<?xml version="1.0" standalone="no"?>
<!DOCTYPE svg PUBLIC "-//W3C//DTD SVG 20010904//EN"
 "http://www.w3.org/TR/2001/REC-SVG-20010904/DTD/svg10.dtd">
<svg version="1.0" xmlns="http://www.w3.org/2000/svg"
 width="700.000000pt" height="700.000000pt" viewBox="0 0 700.000000 700.000000"
 preserveAspectRatio="xMidYMid meet">
<metadata>
Created by potrace 1.14, written by Peter Selinger 2001-2017
</metadata>
<g transform="translate(0.000000,700.000000) scale(0.100000,-0.100000)"
fill="#000000" stroke="none">
<path d="M4152 5405 c-507 -96 -1291 -543 -2027 -1155 -248 -206 -408 -352
-655 -600 l-235 -235 238 -3 238 -2 167 157 c686 648 1432 1166 2012 1396 234
93 433 134 520 106 62 -19 74 -47 60 -134 -21 -131 -103 -302 -251 -525 -172
-257 -359 -479 -673 -797 l-200 -203 246 0 246 0 87 92 c406 426 713 861 832
1176 131 349 55 610 -207 714 -70 27 -285 34 -398 13z"/>
<path d="M3217 3263 c-359 -398 -615 -774 -724 -1061 -171 -454 25 -765 467
-739 524 30 1427 534 2300 1282 137 117 466 424 600 559 l85 86 -246 0 -245 0
-110 -102 c-592 -554 -1196 -991 -1739 -1258 -299 -147 -489 -209 -660 -217
-147 -6 -159 1 -163 84 -7 146 124 415 353 723 138 185 291 363 554 640 l123
130 -240 0 -240 0 -115 -127z"/>
</g>
</svg>
