<svg width="256" height="256" viewBox="0 0 256 256" fill="none" xmlns="http://www.w3.org/2000/svg">
<rect width="256" height="256" fill="white"/>
<path d="M87.6119 115.256C89.1999 115.256 89.3221 117.638 88.467 118.432L65.7469 140.786H87.9784C88.7113 140.786 89.3221 141.519 89.3221 142.496C89.3221 143.412 88.7113 144.206 87.9784 144.206H61.7159C60.5555 144.206 59.5783 142.313 60.983 140.908C62.6932 139.198 83.581 118.738 83.581 118.738H62.4489C61.7159 118.738 61.1052 117.944 61.1052 117.027C61.1052 116.05 61.7159 115.256 62.4489 115.256H87.6119ZM106.261 145C97.833 145 90.9926 138.16 90.9926 129.731C90.9926 121.303 97.833 114.462 106.261 114.462C114.69 114.462 121.53 121.303 121.53 129.731V143.046C121.53 144.145 120.675 145 119.576 145C118.477 145 117.56 144.145 117.56 143.046V129.731C117.56 123.501 112.491 118.432 106.261 118.432C100.032 118.432 94.9625 123.501 94.9625 129.731C94.9625 135.961 100.032 141.03 106.261 141.03C108.888 141.03 111.331 140.175 113.346 138.587C114.201 137.854 115.423 138.037 116.156 138.892C116.827 139.748 116.705 140.969 115.85 141.641C113.102 143.84 109.743 145 106.261 145ZM139.666 114.462C147.789 114.462 154.752 121.425 154.752 129.609V142.862C154.752 144.267 153.958 145 152.92 145C151.881 145 150.782 144.267 150.782 142.862V129.609C150.782 123.501 145.713 118.554 139.666 118.554C133.253 118.554 128.184 123.501 128.184 129.609V142.862C128.184 144.267 127.451 145 126.413 145C125.314 145 124.214 144.267 124.214 142.862V103.408C124.214 102.064 125.314 101.209 126.413 101.209C127.451 101.209 128.184 102.064 128.184 103.408V119.593C131.116 116.417 135.086 114.462 139.666 114.462ZM159.451 145C158.291 145 157.436 144.084 157.436 143.046V116.417C157.436 115.378 158.291 114.462 159.451 114.462C160.551 114.462 161.467 115.378 161.467 116.417V143.046C161.467 144.084 160.551 145 159.451 145ZM157.436 107.683V104.324C157.436 103.163 158.291 102.247 159.451 102.247C160.551 102.247 161.467 103.163 161.467 104.324V107.683C161.467 108.782 160.551 109.698 159.451 109.698C158.291 109.698 157.436 108.782 157.436 107.683ZM179.384 141.03C185.613 141.03 190.621 135.961 190.621 129.792C190.621 123.563 185.613 118.432 179.384 118.432C173.215 118.432 168.146 123.563 168.146 129.792C168.146 135.961 173.215 141.03 179.384 141.03ZM164.176 129.792C164.176 121.303 171.016 114.462 179.384 114.462C183.842 114.462 187.873 116.417 190.621 119.47V103.224C190.621 102.125 191.538 101.209 192.637 101.209C193.736 101.209 194.652 102.125 194.652 103.224V129.792C194.652 138.16 187.812 145 179.384 145C171.016 145 164.176 138.16 164.176 129.792Z" fill="#204AD4"/>
</svg>
