<svg width="1588" height="687" viewBox="0 0 1588 687" fill="none" xmlns="http://www.w3.org/2000/svg">
<g style="mix-blend-mode:overlay">
<path d="M1550.23 685.545H1586.26V649.517M1550.23 685.545V649.517M1550.23 685.545H1514.21M1550.23 649.517H1586.26M1550.23 649.517V613.488M1550.23 649.517H1514.21M1586.26 649.517V613.488M1550.23 613.488H1586.26M1550.23 613.488V577.459M1550.23 613.488H1514.21M1586.26 613.488V577.459M1550.23 577.459H1586.26M1550.23 577.459V541.431M1550.23 577.459H1514.21M1586.26 577.459V541.431M1550.23 541.431H1586.26M1550.23 541.431V505.402M1550.23 541.431H1514.21M1586.26 541.431V505.402M1550.23 505.402H1586.26M1550.23 505.402V469.373M1550.23 505.402H1514.21M1586.26 505.402V469.373M1550.23 469.373H1586.26M1550.23 469.373V433.344M1550.23 469.373H1514.21M1586.26 469.373V433.344M1550.23 433.344H1586.26M1550.23 433.344V397.316M1550.23 433.344H1514.21M1586.26 433.344V397.316M1550.23 397.316H1586.26M1550.23 397.316V361.287M1550.23 397.316H1514.21M1586.26 397.316V361.287M1550.23 361.287H1586.26M1550.23 361.287V325.258M1550.23 361.287H1514.21M1586.26 361.287V325.258M1550.23 325.258H1586.26M1550.23 325.258V289.23M1550.23 325.258H1514.21M1586.26 325.258V289.23M1550.23 289.23H1586.26M1550.23 289.23V253.201M1550.23 289.23H1514.21M1586.26 289.23V253.201M1550.23 253.201H1586.26M1550.23 253.201V217.172M1550.23 253.201H1514.21M1586.26 253.201V217.172M1550.23 217.172H1586.26M1550.23 217.172V181.143M1550.23 217.172H1514.21M1586.26 217.172V181.143M1550.23 181.143H1586.26M1550.23 181.143V145.115M1550.23 181.143H1514.21M1586.26 181.143V145.115M1550.23 145.115H1586.26M1550.23 145.115V109.086M1550.23 145.115H1514.21M1586.26 145.115V109.086M1550.23 109.086H1586.26M1550.23 109.086V73.0574M1550.23 109.086H1514.21M1586.26 109.086V73.0574M1550.23 73.0574H1586.26M1550.23 73.0574V37.0286M1550.23 73.0574H1514.21M1586.26 73.0574V37.0286M1550.23 37.0286H1586.26M1550.23 37.0286V0.999931M1550.23 37.0286H1514.21M1586.26 37.0286V0.999931H1550.23M1550.23 0.999931H1514.21M1514.21 685.545V649.517M1514.21 685.545H1478.18M1514.21 649.517V613.488M1514.21 649.517H1478.18M1514.21 613.488V577.459M1514.21 613.488H1478.18M1514.21 577.459V541.431M1514.21 577.459H1478.18M1514.21 541.431V505.402M1514.21 541.431H1478.18M1514.21 505.402V469.373M1514.21 505.402H1478.18M1514.21 469.373V433.344M1514.21 469.373H1478.18M1514.21 433.344V397.316M1514.21 433.344H1478.18M1514.21 397.316V361.287M1514.21 397.316H1478.18M1514.21 361.287V325.258M1514.21 361.287H1478.18M1514.21 325.258V289.23M1514.21 325.258H1478.18M1514.21 289.23V253.201M1514.21 289.23H1478.18M1514.21 253.201V217.172M1514.21 253.201H1478.18M1514.21 217.172V181.143M1514.21 217.172H1478.18M1514.21 181.143V145.115M1514.21 181.143H1478.18M1514.21 145.115V109.086M1514.21 145.115H1478.18M1514.21 109.086V73.0574M1514.21 109.086H1478.18M1514.21 73.0574V37.0286M1514.21 73.0574H1478.18M1514.21 37.0286V0.999931M1514.21 37.0286H1478.18M1514.21 0.999931H1478.18M1478.18 685.545V649.517M1478.18 685.545H1442.15M1478.18 649.517V613.488M1478.18 649.517H1442.15M1478.18 613.488V577.459M1478.18 613.488H1442.15M1478.18 577.459V541.431M1478.18 577.459H1442.15M1478.18 541.431V505.402M1478.18 541.431H1442.15M1478.18 505.402V469.373M1478.18 505.402H1442.15M1478.18 469.373V433.344M1478.18 469.373H1442.15M1478.18 433.344V397.316M1478.18 433.344H1442.15M1478.18 397.316V361.287M1478.18 397.316H1442.15M1478.18 361.287V325.258M1478.18 361.287H1442.15M1478.18 325.258V289.23M1478.18 325.258H1442.15M1478.18 289.23V253.201M1478.18 289.23H1442.15M1478.18 253.201V217.172M1478.18 253.201H1442.15M1478.18 217.172V181.143M1478.18 217.172H1442.15M1478.18 181.143V145.115M1478.18 181.143H1442.15M1478.18 145.115V109.086M1478.18 145.115H1442.15M1478.18 109.086V73.0574M1478.18 109.086H1442.15M1478.18 73.0574V37.0286M1478.18 73.0574H1442.15M1478.18 37.0286V0.999931M1478.18 37.0286H1442.15M1478.18 0.999931H1442.15M1442.15 685.545V649.517M1442.15 685.545H1406.12M1442.15 649.517V613.488M1442.15 649.517H1406.12M1442.15 613.488V577.459M1442.15 613.488H1406.12M1442.15 577.459V541.431M1442.15 577.459H1406.12M1442.15 541.431V505.402M1442.15 541.431H1406.12M1442.15 505.402V469.373M1442.15 505.402H1406.12M1442.15 469.373V433.344M1442.15 469.373H1406.12M1442.15 433.344V397.316M1442.15 433.344H1406.12M1442.15 397.316V361.287M1442.15 397.316H1406.12M1442.15 361.287V325.258M1442.15 361.287H1406.12M1442.15 325.258V289.23M1442.15 325.258H1406.12M1442.15 289.23V253.201M1442.15 289.23H1406.12M1442.15 253.201V217.172M1442.15 253.201H1406.12M1442.15 217.172V181.143M1442.15 217.172H1406.12M1442.15 181.143V145.115M1442.15 181.143H1406.12M1442.15 145.115V109.086M1442.15 145.115H1406.12M1442.15 109.086V73.0574M1442.15 109.086H1406.12M1442.15 73.0574V37.0286M1442.15 73.0574H1406.12M1442.15 37.0286V0.999931M1442.15 37.0286H1406.12M1442.15 0.999931H1406.12M1406.12 685.545V649.517M1406.12 685.545H1370.09M1406.12 649.517V613.488M1406.12 649.517H1370.09M1406.12 613.488V577.459M1406.12 613.488H1370.09M1406.12 577.459V541.431M1406.12 577.459H1370.09M1406.12 541.431V505.402M1406.12 541.431H1370.09M1406.12 505.402V469.373M1406.12 505.402H1370.09M1406.12 469.373V433.344M1406.12 469.373H1370.09M1406.12 433.344V397.316M1406.12 433.344H1370.09M1406.12 397.316V361.287M1406.12 397.316H1370.09M1406.12 361.287V325.258M1406.12 361.287H1370.09M1406.12 325.258V289.23M1406.12 325.258H1370.09M1406.12 289.23V253.201M1406.12 289.23H1370.09M1406.12 253.201V217.172M1406.12 253.201H1370.09M1406.12 217.172V181.143M1406.12 217.172H1370.09M1406.12 181.143V145.115M1406.12 181.143H1370.09M1406.12 145.115V109.086M1406.12 145.115H1370.09M1406.12 109.086V73.0574M1406.12 109.086H1370.09M1406.12 73.0574V37.0286M1406.12 73.0574H1370.09M1406.12 37.0286V0.999931M1406.12 37.0286H1370.09M1406.12 0.999931H1370.09M1370.09 685.545V649.517M1370.09 685.545H1334.06M1370.09 649.517V613.488M1370.09 649.517H1334.06M1370.09 613.488V577.459M1370.09 613.488H1334.06M1370.09 577.459V541.431M1370.09 577.459H1334.06M1370.09 541.431V505.402M1370.09 541.431H1334.06M1370.09 505.402V469.373M1370.09 505.402H1334.06M1370.09 469.373V433.344M1370.09 469.373H1334.06M1370.09 433.344V397.316M1370.09 433.344H1334.06M1370.09 397.316V361.287M1370.09 397.316L1334.06 397.316M1370.09 361.287V325.258M1370.09 361.287L1334.06 361.287M1370.09 325.258V289.23M1370.09 325.258L1334.06 325.258M1370.09 289.23V253.201M1370.09 289.23L1334.06 289.23M1370.09 253.201V217.172M1370.09 253.201L1334.06 253.201M1370.09 217.172V181.143M1370.09 217.172L1334.06 217.172M1370.09 181.143V145.115M1370.09 181.143L1334.06 181.143M1370.09 145.115V109.086M1370.09 145.115H1334.06M1370.09 109.086V73.0574M1370.09 109.086H1334.06M1370.09 73.0574V37.0286M1370.09 73.0574H1334.06M1370.09 37.0286V0.999931M1370.09 37.0286H1334.06M1370.09 0.999931H1334.06M1334.06 685.545V649.517M1334.06 685.545H1298.03M1334.06 649.517V613.488M1334.06 649.517H1298.03M1334.06 613.488V577.459M1334.06 613.488H1298.03M1334.06 577.459V541.431M1334.06 577.459H1298.03M1334.06 541.431V505.402M1334.06 541.431H1298.03M1334.06 505.402V469.373M1334.06 505.402H1298.03M1334.06 469.373V433.344M1334.06 469.373H1298.03M1334.06 433.344V397.316M1334.06 433.344H1298.03M1334.06 397.316V361.287M1334.06 397.316H1298.03M1334.06 361.287V325.258M1334.06 361.287H1298.03M1334.06 325.258V289.23M1334.06 325.258H1298.03M1334.06 289.23V253.201M1334.06 289.23H1298.03M1334.06 253.201V217.172M1334.06 253.201H1298.03M1334.06 217.172V181.143M1334.06 217.172H1298.03M1334.06 181.143V145.115M1334.06 181.143H1298.03M1334.06 145.115V109.086M1334.06 145.115H1298.03M1334.06 109.086V73.0574M1334.06 109.086H1298.03M1334.06 73.0574V37.0286M1334.06 73.0574H1298.03M1334.06 37.0286V0.999931M1334.06 37.0286H1298.03M1334.06 0.999931H1298.03M1298.03 685.545V649.517M1298.03 685.545H1262M1298.03 649.517V613.488M1298.03 649.517H1262M1298.03 613.488V577.459M1298.03 613.488H1262M1298.03 577.459V541.431M1298.03 577.459H1262M1298.03 541.431V505.402M1298.03 541.431H1262M1298.03 505.402V469.373M1298.03 505.402H1262M1298.03 469.373V433.344M1298.03 469.373H1262M1298.03 433.344V397.316M1298.03 433.344H1262M1298.03 397.316V361.287M1298.03 397.316H1262M1298.03 361.287V325.258M1298.03 361.287H1262M1298.03 325.258V289.23M1298.03 325.258H1262M1298.03 289.23V253.201M1298.03 289.23H1262M1298.03 253.201V217.172M1298.03 253.201H1262M1298.03 217.172V181.143M1298.03 217.172H1262M1298.03 181.143V145.115M1298.03 181.143H1262M1298.03 145.115V109.086M1298.03 145.115H1262M1298.03 109.086V73.0574M1298.03 109.086H1262M1298.03 73.0574V37.0286M1298.03 73.0574H1262M1298.03 37.0286V0.999931M1298.03 37.0286H1262M1298.03 0.999931H1262M1262 685.545V649.517M1262 685.545H1225.98M1262 649.517V613.488M1262 649.517H1225.98M1262 613.488V577.459M1262 613.488H1225.98M1262 577.459V541.431M1262 577.459H1225.98M1262 541.431V505.402M1262 541.431H1225.98M1262 505.402V469.373M1262 505.402L1225.98 505.402M1262 469.373V433.344M1262 469.373L1225.98 469.373M1262 433.344V397.316M1262 433.344L1225.98 433.344M1262 397.316V361.287M1262 397.316H1225.98M1262 361.287V325.258M1262 361.287H1225.98M1262 325.258V289.23M1262 325.258H1225.98M1262 289.23V253.201M1262 289.23H1225.98M1262 253.201V217.172M1262 253.201H1225.98M1262 217.172V181.143M1262 217.172H1225.98M1262 181.143V145.115M1262 181.143H1225.98M1262 145.115V109.086M1262 145.115H1225.98M1262 109.086V73.0574M1262 109.086H1225.98M1262 73.0574V37.0286M1262 73.0574H1225.98M1262 37.0286V0.999931M1262 37.0286H1225.98M1262 0.999931H1225.98M1225.98 685.545V649.517M1225.98 685.545H1189.95M1225.98 649.517V613.488M1225.98 649.517H1189.95M1225.98 613.488V577.459M1225.98 613.488H1189.95M1225.98 577.459V541.431M1225.98 577.459H1189.95M1225.98 541.431V505.402M1225.98 541.431H1189.95M1225.98 505.402V469.373M1225.98 505.402H1189.95M1225.98 469.373V433.344M1225.98 469.373H1189.95M1225.98 433.344V397.316M1225.98 433.344H1189.95M1225.98 397.316V361.287M1225.98 397.316H1189.95M1225.98 361.287V325.258M1225.98 361.287H1189.95M1225.98 325.258V289.23M1225.98 325.258H1189.95M1225.98 289.23V253.201M1225.98 289.23H1189.95M1225.98 253.201V217.172M1225.98 253.201H1189.95M1225.98 217.172V181.143M1225.98 217.172H1189.95M1225.98 181.143V145.115M1225.98 181.143H1189.95M1225.98 145.115V109.086M1225.98 145.115H1189.95M1225.98 109.086V73.0574M1225.98 109.086H1189.95M1225.98 73.0574V37.0286M1225.98 73.0574H1189.95M1225.98 37.0286V0.999931M1225.98 37.0286H1189.95M1225.98 0.999931H1189.95M1189.95 685.545V649.517M1189.95 685.545H1153.92M1189.95 649.517V613.488M1189.95 649.517H1153.92M1189.95 613.488V577.459M1189.95 613.488H1153.92M1189.95 577.459V541.431M1189.95 577.459H1153.92M1189.95 541.431V505.402M1189.95 541.431H1153.92M1189.95 505.402V469.373M1189.95 505.402H1153.92M1189.95 469.373V433.344M1189.95 469.373H1153.92M1189.95 433.344V397.316M1189.95 433.344H1153.92M1189.95 397.316V361.287M1189.95 397.316H1153.92M1189.95 361.287V325.258M1189.95 361.287H1153.92M1189.95 325.258V289.23M1189.95 325.258H1153.92M1189.95 289.23V253.201M1189.95 289.23H1153.92M1189.95 253.201V217.172M1189.95 253.201H1153.92M1189.95 217.172V181.143M1189.95 217.172H1153.92M1189.95 181.143V145.115M1189.95 181.143H1153.92M1189.95 145.115V109.086M1189.95 145.115H1153.92M1189.95 109.086V73.0574M1189.95 109.086H1153.92M1189.95 73.0574V37.0286M1189.95 73.0574H1153.92M1189.95 37.0286V0.999931M1189.95 37.0286H1153.92M1189.95 0.999931H1153.92M1153.92 685.545V649.517M1153.92 685.545L1117.89 685.545M1153.92 649.517V613.488M1153.92 649.517H1117.89M1153.92 613.488V577.459M1153.92 613.488H1117.89M1153.92 577.459V541.431M1153.92 577.459H1117.89M1153.92 541.431V505.402M1153.92 541.431H1117.89M1153.92 505.402V469.373M1153.92 505.402H1117.89M1153.92 469.373V433.344M1153.92 469.373H1117.89M1153.92 433.344V397.316M1153.92 433.344H1117.89M1153.92 397.316V361.287M1153.92 397.316H1117.89M1153.92 361.287V325.258M1153.92 361.287H1117.89M1153.92 325.258V289.23M1153.92 325.258H1117.89M1153.92 289.23V253.201M1153.92 289.23H1117.89M1153.92 253.201V217.172M1153.92 253.201H1117.89M1153.92 217.172V181.143M1153.92 217.172H1117.89M1153.92 181.143V145.115M1153.92 181.143H1117.89M1153.92 145.115V109.086M1153.92 145.115L1117.89 145.115M1153.92 109.086V73.0574M1153.92 109.086L1117.89 109.086M1153.92 73.0574V37.0286M1153.92 73.0574L1117.89 73.0574M1153.92 37.0286V0.999931M1153.92 37.0286L1117.89 37.0286M1153.92 0.999931L1117.89 0.999931M1117.89 685.545V649.517M1117.89 685.545H1081.86M1117.89 649.517V613.488M1117.89 649.517L1081.86 649.517M1117.89 613.488V577.459M1117.89 613.488H1081.86M1117.89 577.459V541.431M1117.89 577.459H1081.86M1117.89 541.431V505.402M1117.89 541.431H1081.86M1117.89 505.402V469.373M1117.89 505.402H1081.86M1117.89 469.373V433.344M1117.89 469.373H1081.86M1117.89 433.344V397.316M1117.89 433.344H1081.86M1117.89 397.316V361.287M1117.89 397.316H1081.86M1117.89 361.287V325.258M1117.89 361.287H1081.86M1117.89 325.258V289.23M1117.89 325.258H1081.86M1117.89 289.23V253.201M1117.89 289.23H1081.86M1117.89 253.201V217.172M1117.89 253.201H1081.86M1117.89 217.172V181.143M1117.89 217.172H1081.86M1117.89 181.143V145.115M1117.89 181.143H1081.86M1117.89 145.115V109.086M1117.89 145.115H1081.86M1117.89 109.086V73.0574M1117.89 109.086H1081.86M1117.89 73.0574V37.0286M1117.89 73.0574H1081.86M1117.89 37.0286V0.999931M1117.89 37.0286H1081.86M1117.89 0.999931H1081.86M1081.86 685.545V649.517M1081.86 685.545H1045.83M1081.86 649.517V613.488M1081.86 649.517H1045.83M1081.86 613.488V577.459M1081.86 613.488L1045.83 613.488M1081.86 577.459V541.431M1081.86 577.459L1045.83 577.459M1081.86 541.431V505.402M1081.86 541.431H1045.83M1081.86 505.402V469.373M1081.86 505.402H1045.83M1081.86 469.373V433.344M1081.86 469.373H1045.83M1081.86 433.344V397.316M1081.86 433.344H1045.83M1081.86 397.316V361.287M1081.86 397.316H1045.83M1081.86 361.287V325.258M1081.86 361.287H1045.83M1081.86 325.258V289.23M1081.86 325.258H1045.83M1081.86 289.23V253.201M1081.86 289.23H1045.83M1081.86 253.201V217.172M1081.86 253.201H1045.83M1081.86 217.172V181.143M1081.86 217.172H1045.83M1081.86 181.143V145.115M1081.86 181.143H1045.83M1081.86 145.115V109.086M1081.86 145.115H1045.83M1081.86 109.086V73.0574M1081.86 109.086H1045.83M1081.86 73.0574V37.0286M1081.86 73.0574H1045.83M1081.86 37.0286V0.999931M1081.86 37.0286H1045.83M1081.86 0.999931H1045.83M1045.83 685.545V649.517M1045.83 685.545H1009.8M1045.83 649.517V613.488M1045.83 649.517H1009.8M1045.83 613.488V577.459M1045.83 613.488H1009.8M1045.83 577.459V541.431M1045.83 577.459H1009.8M1045.83 541.431V505.402M1045.83 541.431H1009.8M1045.83 505.402V469.373M1045.83 505.402H1009.8M1045.83 469.373V433.344M1045.83 469.373H1009.8M1045.83 433.344V397.316M1045.83 433.344H1009.8M1045.83 397.316V361.287M1045.83 397.316H1009.8M1045.83 361.287V325.258M1045.83 361.287H1009.8M1045.83 325.258V289.23M1045.83 325.258H1009.8M1045.83 289.23V253.201M1045.83 289.23H1009.8M1045.83 253.201V217.172M1045.83 253.201H1009.8M1045.83 217.172V181.143M1045.83 217.172H1009.8M1045.83 181.143V145.115M1045.83 181.143H1009.8M1045.83 145.115V109.086M1045.83 145.115H1009.8M1045.83 109.086V73.0574M1045.83 109.086H1009.8M1045.83 73.0574V37.0286M1045.83 73.0574H1009.8M1045.83 37.0286V0.999931M1045.83 37.0286H1009.8M1045.83 0.999931H1009.8M1009.8 685.545V649.517M1009.8 685.545H973.775M1009.8 649.517V613.488M1009.8 649.517H973.775M1009.8 613.488V577.459M1009.8 613.488H973.775M1009.8 577.459V541.431M1009.8 577.459H973.775M1009.8 541.431V505.402M1009.8 541.431L973.775 541.431M1009.8 505.402V469.373M1009.8 505.402L973.775 505.402M1009.8 469.373V433.344M1009.8 469.373L973.775 469.373M1009.8 433.344V397.316M1009.8 433.344L973.775 433.344M1009.8 397.316V361.287M1009.8 397.316H973.775M1009.8 361.287V325.258M1009.8 361.287H973.775M1009.8 325.258V289.23M1009.8 325.258H973.775M1009.8 289.23V253.201M1009.8 289.23H973.775M1009.8 253.201L1009.8 217.172M1009.8 253.201H973.775M1009.8 217.172V181.143M1009.8 217.172H973.775M1009.8 181.143V145.115M1009.8 181.143H973.775M1009.8 145.115V109.086M1009.8 145.115H973.775M1009.8 109.086V73.0574M1009.8 109.086H973.775M1009.8 73.0574V37.0286M1009.8 73.0574H973.775M1009.8 37.0286V0.999931M1009.8 37.0286H973.775M1009.8 0.999931H973.775M973.775 685.545V649.517M973.775 685.545H937.746M973.775 649.517V613.488M973.775 649.517H937.746M973.775 613.488V577.459M973.775 613.488H937.746M973.775 577.459V541.431M973.775 577.459H937.746M973.775 541.431V505.402M973.775 541.431H937.746M973.775 505.402V469.373M973.775 505.402H937.746M973.775 469.373V433.344M973.775 469.373H937.746M973.775 433.344V397.316M973.775 433.344H937.746M973.775 397.316V361.287M973.775 397.316H937.746M973.775 361.287V325.258M973.775 361.287H937.746M973.775 325.258V289.23M973.775 325.258H937.746M973.775 289.23V253.201M973.775 289.23H937.746M973.775 253.201L973.775 217.172M973.775 253.201H937.746M973.775 217.172V181.143M973.775 217.172H937.746M973.775 181.143V145.115M973.775 181.143H937.746M973.775 145.115V109.086M973.775 145.115H937.746M973.775 109.086V73.0574M973.775 109.086H937.746M973.775 73.0574V37.0286M973.775 73.0574H937.746M973.775 37.0286V0.999931M973.775 37.0286H937.746M973.775 0.999931H937.746M937.746 685.545V649.517M937.746 685.545H901.718M937.746 649.517V613.488M937.746 649.517H901.718M937.746 613.488V577.459M937.746 613.488H901.718M937.746 577.459V541.431M937.746 577.459H901.718M937.746 541.431V505.402M937.746 541.431H901.718M937.746 505.402V469.373M937.746 505.402H901.718M937.746 469.373V433.344M937.746 469.373H901.718M937.746 433.344V397.316M937.746 433.344H901.718M937.746 397.316V361.287M937.746 397.316H901.718M937.746 361.287V325.258M937.746 361.287H901.718M937.746 325.258V289.23M937.746 325.258H901.718M937.746 289.23V253.201M937.746 289.23H901.718M937.746 253.201L937.746 217.172M937.746 253.201H901.718M937.746 217.172V181.143M937.746 217.172H901.718M937.746 181.143V145.115M937.746 181.143H901.718M937.746 145.115V109.086M937.746 145.115H901.718M937.746 109.086V73.0574M937.746 109.086H901.718M937.746 73.0574V37.0286M937.746 73.0574H901.718M937.746 37.0286V0.999931M937.746 37.0286H901.718M937.746 0.999931H901.718M901.718 685.545V649.517M901.718 685.545H865.689M901.718 649.517V613.488M901.718 649.517H865.689M901.718 613.488V577.459M901.718 613.488H865.689M901.718 577.459V541.431M901.718 577.459H865.689M901.718 541.431V505.402M901.718 541.431H865.689M901.718 505.402V469.373M901.718 505.402H865.689M901.718 469.373V433.344M901.718 469.373H865.689M901.718 433.344V397.316M901.718 433.344H865.689M901.718 397.316V361.287M901.718 397.316L865.689 397.316M901.718 361.287V325.258M901.718 361.287L865.689 361.287M901.718 325.258V289.23M901.718 325.258L865.689 325.258M901.718 289.23V253.201M901.718 289.23L865.689 289.23M901.718 253.201L901.718 217.172M901.718 253.201L865.689 253.201M901.718 217.172V181.143M901.718 217.172L865.689 217.172M901.718 181.143V145.115M901.718 181.143L865.689 181.143M901.718 145.115V109.086M901.718 145.115H865.689M901.718 109.086V73.0574M901.718 109.086H865.689M901.718 73.0574V37.0286M901.718 73.0574H865.689M901.718 37.0286V0.999931M901.718 37.0286H865.689M901.718 0.999931H865.689M865.689 685.545V649.517M865.689 685.545H829.66M865.689 649.517V613.488M865.689 649.517H829.66M865.689 613.488V577.459M865.689 613.488H829.66M865.689 577.459V541.431M865.689 577.459H829.66M865.689 541.431V505.402M865.689 541.431H829.66M865.689 505.402V469.373M865.689 505.402H829.66M865.689 469.373V433.344M865.689 469.373H829.66M865.689 433.344V397.316M865.689 433.344H829.66M865.689 397.316V361.287M865.689 397.316H829.66M865.689 361.287V325.258M865.689 361.287H829.66M865.689 325.258V289.23M865.689 325.258H829.66M865.689 289.23V253.201M865.689 289.23H829.66M865.689 253.201L865.689 217.172M865.689 253.201H829.66M865.689 217.172V181.143M865.689 217.172H829.66M865.689 181.143V145.115M865.689 181.143H829.66M865.689 145.115V109.086M865.689 145.115H829.66M865.689 109.086V73.0574M865.689 109.086H829.66M865.689 73.0574V37.0286M865.689 73.0574H829.66M865.689 37.0286V0.999931M865.689 37.0286H829.66M865.689 0.999931H829.66M829.66 685.545V649.517M829.66 685.545H793.632M829.66 649.517V613.488M829.66 649.517H793.632M829.66 613.488V577.459M829.66 613.488H793.632M829.66 577.459V541.431M829.66 577.459H793.632M829.66 541.431V505.402M829.66 541.431H793.632M829.66 505.402V469.373M829.66 505.402H793.632M829.66 469.373V433.344M829.66 469.373H793.632M829.66 433.344V397.316M829.66 433.344H793.632M829.66 397.316V361.287M829.66 397.316H793.632M829.66 361.287V325.258M829.66 361.287H793.632M829.66 325.258V289.23M829.66 325.258H793.632M829.66 289.23V253.201M829.66 289.23H793.632M829.66 253.201L829.66 217.172M829.66 253.201H793.632M829.66 217.172V181.143M829.66 217.172H793.632M829.66 181.143V145.115M829.66 181.143H793.632M829.66 145.115V109.086M829.66 145.115H793.632M829.66 109.086V73.0574M829.66 109.086H793.632M829.66 73.0574V37.0286M829.66 73.0574H793.632M829.66 37.0286V0.999931M829.66 37.0286H793.632M829.66 0.999931H793.632M793.632 685.545V649.517M793.632 685.545H757.603M793.632 649.517V613.488M793.632 649.517H757.603M793.632 613.488V577.459M793.632 613.488H757.603M793.632 577.459V541.431M793.632 577.459H757.603M793.632 541.431V505.402M793.632 541.431H757.603M793.632 505.402V469.373M793.632 505.402H757.603M793.632 469.373V433.344M793.632 469.373H757.603M793.632 433.344V397.316M793.632 433.344H757.603M793.632 397.316V361.287M793.632 397.316H757.603M793.632 361.287V325.258M793.632 361.287H757.603M793.632 325.258V289.23M793.632 325.258H757.603M793.632 289.23V253.201M793.632 289.23H757.603M793.632 253.201L793.632 217.172M793.632 253.201H757.603M793.632 217.172V181.143M793.632 217.172H757.603M793.632 181.143V145.115M793.632 181.143H757.603M793.632 145.115V109.086M793.632 145.115H757.603M793.632 109.086V73.0574M793.632 109.086H757.603M793.632 73.0574V37.0286M793.632 73.0574H757.603M793.632 37.0286V0.999931M793.632 37.0286H757.603M793.632 0.999931H757.603M757.603 685.545V649.517M757.603 685.545H721.574M757.603 649.517V613.488M757.603 649.517H721.574M757.603 613.488V577.459M757.603 613.488H721.574M757.603 577.459V541.431M757.603 577.459H721.574M757.603 541.431V505.402M757.603 541.431H721.574M757.603 505.402V469.373M757.603 505.402H721.574M757.603 469.373V433.344M757.603 469.373H721.574M757.603 433.344V397.316M757.603 433.344H721.574M757.603 397.316V361.287M757.603 397.316H721.574M757.603 361.287V325.258M757.603 361.287H721.574M757.603 325.258V289.23M757.603 325.258H721.574M757.603 289.23V253.201M757.603 289.23H721.574M757.603 253.201L757.603 217.172M757.603 253.201H721.574M757.603 217.172V181.143M757.603 217.172H721.574M757.603 181.143V145.115M757.603 181.143H721.574M757.603 145.115V109.086M757.603 145.115H721.574M757.603 109.086V73.0574M757.603 109.086H721.574M757.603 73.0574V37.0286M757.603 73.0574H721.574M757.603 37.0286V0.999931M757.603 37.0286H721.574M757.603 0.999931H721.574M721.574 685.545V649.517M721.574 685.545H685.545M721.574 649.517V613.488M721.574 649.517H685.545M721.574 613.488V577.459M721.574 613.488H685.545M721.574 577.459V541.431M721.574 577.459H685.545M721.574 541.431V505.402M721.574 541.431H685.545M721.574 505.402V469.373M721.574 505.402H685.545M721.574 469.373V433.344M721.574 469.373H685.545M721.574 433.344V397.316M721.574 433.344H685.545M721.574 397.316V361.287M721.574 397.316H685.545M721.574 361.287V325.258M721.574 361.287H685.545M721.574 325.258V289.23M721.574 325.258H685.545M721.574 289.23V253.201M721.574 289.23H685.545M721.574 253.201L721.574 217.172M721.574 253.201H685.545M721.574 217.172V181.143M721.574 217.172H685.545M721.574 181.143V145.115M721.574 181.143H685.545M721.574 145.115V109.086M721.574 145.115H685.545M721.574 109.086V73.0574M721.574 109.086H685.545M721.574 73.0574V37.0286M721.574 73.0574H685.545M721.574 37.0286V0.999931M721.574 37.0286H685.545M721.574 0.999931H685.545M685.545 685.545V649.517M685.545 685.545H649.517M685.545 649.517V613.488M685.545 649.517H649.517M685.545 613.488V577.459M685.545 613.488H649.517M685.545 577.459V541.431M685.545 577.459H649.517M685.545 541.431V505.402M685.545 541.431H649.517M685.545 505.402V469.373M685.545 505.402H649.517M685.545 469.373V433.344M685.545 469.373H649.517M685.545 433.344V397.316M685.545 433.344H649.517M685.545 397.316V361.287M685.545 397.316H649.517M685.545 361.287V325.258M685.545 361.287H649.517M685.545 325.258V289.23M685.545 325.258H649.517M685.545 289.23V253.201M685.545 289.23H649.517M685.545 253.201L685.545 217.172M685.545 253.201H649.517M685.545 217.172V181.143M685.545 217.172H649.517M685.545 181.143V145.115M685.545 181.143H649.517M685.545 145.115V109.086M685.545 145.115H649.517M685.545 109.086V73.0574M685.545 109.086H649.517M685.545 73.0574V37.0286M685.545 73.0574H649.517M685.545 37.0286V0.999931M685.545 37.0286H649.517M685.545 0.999931H649.517M649.517 685.545V649.517M649.517 685.545H613.488M649.517 649.517V613.488M649.517 649.517H613.488M649.517 613.488V577.459M649.517 613.488H613.488M649.517 577.459V541.431M649.517 577.459H613.488M649.517 541.431V505.402M649.517 541.431H613.488M649.517 505.402V469.373M649.517 505.402H613.488M649.517 469.373V433.344M649.517 469.373H613.488M649.517 433.344V397.316M649.517 433.344H613.488M649.517 397.316V361.287M649.517 397.316H613.488M649.517 361.287V325.258M649.517 361.287H613.488M649.517 325.258V289.23M649.517 325.258H613.488M649.517 289.23V253.201M649.517 289.23H613.488M649.517 253.201L649.517 217.172M649.517 253.201H613.488M649.517 217.172V181.143M649.517 217.172H613.488M649.517 181.143V145.115M649.517 181.143H613.488M649.517 145.115V109.086M649.517 145.115H613.488M649.517 109.086V73.0574M649.517 109.086H613.488M649.517 73.0574V37.0286M649.517 73.0574H613.488M649.517 37.0286V0.999931M649.517 37.0286H613.488M649.517 0.999931H613.488M613.488 685.545V649.517M613.488 685.545H577.459M613.488 649.517V613.488M613.488 649.517H577.459M613.488 613.488V577.459M613.488 613.488H577.459M613.488 577.459V541.431M613.488 577.459H577.459M613.488 541.431V505.402M613.488 541.431H577.459M613.488 505.402V469.373M613.488 505.402H577.459M613.488 469.373V433.344M613.488 469.373H577.459M613.488 433.344V397.316M613.488 433.344H577.459M613.488 397.316V361.287M613.488 397.316H577.459M613.488 361.287V325.258M613.488 361.287H577.459M613.488 325.258V289.23M613.488 325.258H577.459M613.488 289.23V253.201M613.488 289.23H577.459M613.488 253.201L613.488 217.172M613.488 253.201H577.459M613.488 217.172V181.143M613.488 217.172H577.459M613.488 181.143V145.115M613.488 181.143H577.459M613.488 145.115V109.086M613.488 145.115H577.459M613.488 109.086V73.0574M613.488 109.086H577.459M613.488 73.0574V37.0286M613.488 73.0574H577.459M613.488 37.0286V0.999931M613.488 37.0286H577.459M613.488 0.999931H577.459M577.459 685.545V649.517M577.459 685.545H541.431M577.459 649.517V613.488M577.459 649.517H541.431M577.459 613.488V577.459M577.459 613.488H541.431M577.459 577.459V541.431M577.459 577.459H541.431M577.459 541.431V505.402M577.459 541.431H541.431M577.459 505.402V469.373M577.459 505.402H541.431M577.459 469.373V433.344M577.459 469.373H541.431M577.459 433.344V397.316M577.459 433.344H541.431M577.459 397.316V361.287M577.459 397.316H541.431M577.459 361.287V325.258M577.459 361.287H541.431M577.459 325.258V289.23M577.459 325.258H541.431M577.459 289.23V253.201M577.459 289.23H541.431M577.459 253.201L577.459 217.172M577.459 253.201H541.431M577.459 217.172V181.143M577.459 217.172H541.431M577.459 181.143V145.115M577.459 181.143H541.431M577.459 145.115V109.086M577.459 145.115H541.431M577.459 109.086V73.0574M577.459 109.086H541.431M577.459 73.0574V37.0286M577.459 73.0574H541.431M577.459 37.0286V0.999931M577.459 37.0286H541.431M577.459 0.999931H541.431M541.431 685.545V649.517M541.431 685.545H505.402M541.431 649.517V613.488M541.431 649.517H505.402M541.431 613.488V577.459M541.431 613.488H505.402M541.431 577.459V541.431M541.431 577.459H505.402M541.431 541.431V505.402M541.431 541.431H505.402M541.431 505.402V469.373M541.431 505.402H505.402M541.431 469.373V433.344M541.431 469.373H505.402M541.431 433.344V397.316M541.431 433.344H505.402M541.431 397.316V361.287M541.431 397.316H505.402M541.431 361.287V325.258M541.431 361.287H505.402M541.431 325.258V289.23M541.431 325.258H505.402M541.431 289.23V253.201M541.431 289.23H505.402M541.431 253.201V217.172M541.431 253.201H505.402M541.431 217.172V181.143M541.431 217.172H505.402M541.431 181.143V145.115M541.431 181.143H505.402M541.431 145.115V109.086M541.431 145.115H505.402M541.431 109.086V73.0574M541.431 109.086H505.402M541.431 73.0574V37.0286M541.431 73.0574H505.402M541.431 37.0286V0.999931M541.431 37.0286H505.402M541.431 0.999931H505.402M505.402 685.545V649.517M505.402 685.545H469.373M505.402 649.517V613.488M505.402 649.517H469.373M505.402 613.488V577.459M505.402 613.488H469.373M505.402 577.459V541.431M505.402 577.459H469.373M505.402 541.431V505.402M505.402 541.431H469.373M505.402 505.402V469.373M505.402 505.402H469.373M505.402 469.373V433.344M505.402 469.373H469.373M505.402 433.344V397.316M505.402 433.344H469.373M505.402 397.316V361.287M505.402 397.316H469.373M505.402 361.287V325.258M505.402 361.287H469.373M505.402 325.258V289.23M505.402 325.258H469.373M505.402 289.23V253.201M505.402 289.23H469.373M505.402 253.201V217.172M505.402 253.201H469.373M505.402 217.172V181.143M505.402 217.172H469.373M505.402 181.143V145.115M505.402 181.143H469.373M505.402 145.115V109.086M505.402 145.115H469.373M505.402 109.086V73.0574M505.402 109.086H469.373M505.402 73.0574V37.0286M505.402 73.0574H469.373M505.402 37.0286V0.999931M505.402 37.0286H469.373M505.402 0.999931H469.373M469.373 685.545V649.517M469.373 685.545H433.344M469.373 649.517V613.488M469.373 649.517H433.344M469.373 613.488V577.459M469.373 613.488H433.344M469.373 577.459V541.431M469.373 577.459H433.344M469.373 541.431V505.402M469.373 541.431H433.344M469.373 505.402V469.373M469.373 505.402H433.344M469.373 469.373V433.344M469.373 469.373H433.344M469.373 433.344V397.316M469.373 433.344H433.344M469.373 397.316V361.287M469.373 397.316H433.344M469.373 361.287V325.258M469.373 361.287H433.344M469.373 325.258V289.23M469.373 325.258H433.344M469.373 289.23V253.201M469.373 289.23H433.344M469.373 253.201V217.172M469.373 253.201H433.344M469.373 217.172V181.143M469.373 217.172H433.344M469.373 181.143V145.115M469.373 181.143H433.344M469.373 145.115V109.086M469.373 145.115H433.344M469.373 109.086V73.0574M469.373 109.086H433.344M469.373 73.0574V37.0286M469.373 73.0574H433.344M469.373 37.0286V0.999931M469.373 37.0286H433.344M469.373 0.999931H433.344M433.344 685.545V649.517M433.344 685.545H397.316M433.344 649.517V613.488M433.344 649.517H397.316M433.344 613.488V577.459M433.344 613.488H397.316M433.344 577.459V541.431M433.344 577.459H397.316M433.344 541.431V505.402M433.344 541.431H397.316M433.344 505.402V469.373M433.344 505.402H397.316M433.344 469.373V433.344M433.344 469.373H397.316M433.344 433.344V397.316M433.344 433.344H397.316M433.344 397.316V361.287M433.344 397.316L397.316 397.316M433.344 361.287V325.258M433.344 361.287L397.316 361.287M433.344 325.258V289.23M433.344 325.258L397.316 325.258M433.344 289.23V253.201M433.344 289.23L397.316 289.23M433.344 253.201V217.172M433.344 253.201L397.316 253.201M433.344 217.172V181.143M433.344 217.172L397.316 217.172M433.344 181.143V145.115M433.344 181.143L397.316 181.143M433.344 145.115V109.086M433.344 145.115H397.316M433.344 109.086V73.0574M433.344 109.086H397.316M433.344 73.0574V37.0286M433.344 73.0574H397.316M433.344 37.0286V0.999931M433.344 37.0286H397.316M433.344 0.999931H397.316M397.316 685.545V649.517M397.316 685.545H361.287M397.316 649.517V613.488M397.316 649.517H361.287M397.316 613.488V577.459M397.316 613.488H361.287M397.316 577.459V541.431M397.316 577.459H361.287M397.316 541.431V505.402M397.316 541.431H361.287M397.316 505.402V469.373M397.316 505.402H361.287M397.316 469.373V433.344M397.316 469.373H361.287M397.316 433.344V397.316M397.316 433.344H361.287M397.316 397.316V361.287M397.316 397.316H361.287M397.316 361.287V325.258M397.316 361.287H361.287M397.316 325.258V289.23M397.316 325.258H361.287M397.316 289.23V253.201M397.316 289.23H361.287M397.316 253.201V217.172M397.316 253.201H361.287M397.316 217.172V181.143M397.316 217.172H361.287M397.316 181.143V145.115M397.316 181.143H361.287M397.316 145.115V109.086M397.316 145.115H361.287M397.316 109.086V73.0574M397.316 109.086H361.287M397.316 73.0574V37.0286M397.316 73.0574H361.287M397.316 37.0286V0.999931M397.316 37.0286H361.287M397.316 0.999931H361.287M361.287 685.545V649.517M361.287 685.545H325.258M361.287 649.517V613.488M361.287 649.517H325.258M361.287 613.488V577.459M361.287 613.488H325.258M361.287 577.459V541.431M361.287 577.459H325.258M361.287 541.431V505.402M361.287 541.431H325.258M361.287 505.402V469.373M361.287 505.402H325.258M361.287 469.373V433.344M361.287 469.373H325.258M361.287 433.344V397.316M361.287 433.344H325.258M361.287 397.316V361.287M361.287 397.316H325.258M361.287 361.287V325.258M361.287 361.287H325.258M361.287 325.258V289.23M361.287 325.258H325.258M361.287 289.23V253.201M361.287 289.23H325.258M361.287 253.201V217.172M361.287 253.201H325.258M361.287 217.172V181.143M361.287 217.172H325.258M361.287 181.143V145.115M361.287 181.143H325.258M361.287 145.115V109.086M361.287 145.115H325.258M361.287 109.086V73.0574M361.287 109.086H325.258M361.287 73.0574V37.0286M361.287 73.0574H325.258M361.287 37.0286V0.999931M361.287 37.0286H325.258M361.287 0.999931H325.258M325.258 685.545V649.517M325.258 685.545H289.23M325.258 649.517V613.488M325.258 649.517H289.23M325.258 613.488V577.459M325.258 613.488H289.23M325.258 577.459V541.431M325.258 577.459H289.23M325.258 541.431V505.402M325.258 541.431L289.23 541.431M325.258 505.402V469.373M325.258 505.402L289.23 505.402M325.258 469.373V433.344M325.258 469.373L289.23 469.373M325.258 433.344V397.316M325.258 433.344L289.23 433.344M325.258 397.316V361.287M325.258 397.316H289.23M325.258 361.287V325.258M325.258 361.287H289.23M325.258 325.258V289.23M325.258 325.258H289.23M325.258 289.23V253.201M325.258 289.23H289.23M325.258 253.201V217.172M325.258 253.201H289.23M325.258 217.172V181.143M325.258 217.172H289.23M325.258 181.143V145.115M325.258 181.143H289.23M325.258 145.115V109.086M325.258 145.115H289.23M325.258 109.086V73.0574M325.258 109.086H289.23M325.258 73.0574V37.0286M325.258 73.0574H289.23M325.258 37.0286V0.999931M325.258 37.0286H289.23M325.258 0.999931H289.23M289.23 685.545V649.517M289.23 685.545H253.201M289.23 649.517V613.488M289.23 649.517H253.201M289.23 613.488V577.459M289.23 613.488H253.201M289.23 577.459V541.431M289.23 577.459H253.201M289.23 541.431V505.402M289.23 541.431H253.201M289.23 505.402V469.373M289.23 505.402H253.201M289.23 469.373V433.344M289.23 469.373H253.201M289.23 433.344V397.316M289.23 433.344H253.201M289.23 397.316V361.287M289.23 397.316H253.201M289.23 361.287V325.258M289.23 361.287H253.201M289.23 325.258V289.23M289.23 325.258H253.201M289.23 289.23V253.201M289.23 289.23H253.201M289.23 253.201V217.172M289.23 253.201H253.201M289.23 217.172V181.143M289.23 217.172H253.201M289.23 181.143V145.115M289.23 181.143H253.201M289.23 145.115V109.086M289.23 145.115H253.201M289.23 109.086V73.0574M289.23 109.086H253.201M289.23 73.0574V37.0286M289.23 73.0574H253.201M289.23 37.0286V0.999931M289.23 37.0286H253.201M289.23 0.999931H253.201M253.201 685.545V649.517M253.201 685.545H217.172M253.201 649.517V613.488M253.201 649.517L217.172 649.517M253.201 613.488V577.459M253.201 613.488L217.172 613.488M253.201 577.459V541.431M253.201 577.459L217.172 577.459M253.201 541.431V505.402M253.201 541.431H217.172M253.201 505.402V469.373M253.201 505.402H217.172M253.201 469.373V433.344M253.201 469.373H217.172M253.201 433.344V397.316M253.201 433.344H217.172M253.201 397.316V361.287M253.201 397.316H217.172M253.201 361.287V325.258M253.201 361.287H217.172M253.201 325.258V289.23M253.201 325.258H217.172M253.201 289.23V253.201M253.201 289.23H217.172M253.201 253.201V217.172M253.201 253.201H217.172M253.201 217.172V181.143M253.201 217.172H217.172M253.201 181.143V145.115M253.201 181.143H217.172M253.201 145.115V109.086M253.201 145.115H217.172M253.201 109.086V73.0574M253.201 109.086H217.172M253.201 73.0574V37.0286M253.201 73.0574H217.172M253.201 37.0286V0.999931M253.201 37.0286H217.172M253.201 0.999931H217.172M217.172 685.545V649.517M217.172 685.545L181.144 685.545M217.172 649.517V613.488M217.172 649.517H181.144M217.172 613.488V577.459M217.172 613.488H181.144M217.172 577.459V541.431M217.172 577.459H181.144M217.172 541.431V505.402M217.172 541.431H181.144M217.172 505.402V469.373M217.172 505.402H181.144M217.172 469.373V433.344M217.172 469.373H181.144M217.172 433.344V397.316M217.172 433.344H181.144M217.172 397.316V361.287M217.172 397.316H181.144M217.172 361.287V325.258M217.172 361.287H181.144M217.172 325.258V289.23M217.172 325.258H181.144M217.172 289.23V253.201M217.172 289.23H181.144M217.172 253.201V217.172M217.172 253.201H181.144M217.172 217.172V181.143M217.172 217.172H181.144M217.172 181.143V145.115M217.172 181.143H181.144M217.172 145.115V109.086M217.172 145.115L181.144 145.115M217.172 109.086V73.0574M217.172 109.086L181.144 109.086M217.172 73.0574V37.0286M217.172 73.0574L181.144 73.0574M217.172 37.0286V0.999931M217.172 37.0286L181.144 37.0286M217.172 0.999931L181.144 0.999931M181.144 685.545V649.517M181.144 685.545H145.115M181.144 649.517V613.488M181.144 649.517H145.115M181.144 613.488V577.459M181.144 613.488H145.115M181.144 577.459V541.431M181.144 577.459H145.115M181.144 541.431V505.402M181.144 541.431H145.115M181.144 505.402V469.373M181.144 505.402H145.115M181.144 469.373V433.344M181.144 469.373H145.115M181.144 433.344V397.316M181.144 433.344H145.115M181.144 397.316V361.287M181.144 397.316H145.115M181.144 361.287V325.258M181.144 361.287H145.115M181.144 325.258V289.23M181.144 325.258H145.115M181.144 289.23V253.201M181.144 289.23H145.115M181.144 253.201V217.172M181.144 253.201H145.115M181.144 217.172V181.143M181.144 217.172H145.115M181.144 181.143V145.115M181.144 181.143H145.115M181.144 145.115V109.086M181.144 145.115H145.115M181.144 109.086V73.0574M181.144 109.086H145.115M181.144 73.0574V37.0286M181.144 73.0574H145.115M181.144 37.0286V0.999931M181.144 37.0286H145.115M181.144 0.999931H145.115M145.115 685.545V649.517M145.115 685.545H109.086M145.115 649.517V613.488M145.115 649.517H109.086M145.115 613.488V577.459M145.115 613.488H109.086M145.115 577.459V541.431M145.115 577.459H109.086M145.115 541.431V505.402M145.115 541.431H109.086M145.115 505.402V469.373M145.115 505.402H109.086M145.115 469.373V433.344M145.115 469.373H109.086M145.115 433.344V397.316M145.115 433.344H109.086M145.115 397.316V361.287M145.115 397.316H109.086M145.115 361.287V325.258M145.115 361.287H109.086M145.115 325.258V289.23M145.115 325.258H109.086M145.115 289.23V253.201M145.115 289.23H109.086M145.115 253.201V217.172M145.115 253.201H109.086M145.115 217.172V181.143M145.115 217.172H109.086M145.115 181.143V145.115M145.115 181.143H109.086M145.115 145.115V109.086M145.115 145.115H109.086M145.115 109.086V73.0574M145.115 109.086H109.086M145.115 73.0574V37.0286M145.115 73.0574H109.086M145.115 37.0286V0.999931M145.115 37.0286H109.086M145.115 0.999931H109.086M109.086 685.545V649.517M109.086 685.545H73.0574M109.086 649.517V613.488M109.086 649.517H73.0574M109.086 613.488V577.459M109.086 613.488H73.0574M109.086 577.459V541.431M109.086 577.459H73.0574M109.086 541.431V505.402M109.086 541.431H73.0574M109.086 505.402V469.373M109.086 505.402L73.0574 505.402M109.086 469.373V433.344M109.086 469.373L73.0574 469.373M109.086 433.344V397.316M109.086 433.344L73.0574 433.344M109.086 397.316V361.287M109.086 397.316H73.0574M109.086 361.287V325.258M109.086 361.287H73.0574M109.086 325.258V289.23M109.086 325.258H73.0574M109.086 289.23V253.201M109.086 289.23H73.0574M109.086 253.201V217.172M109.086 253.201H73.0574M109.086 217.172V181.143M109.086 217.172H73.0574M109.086 181.143V145.115M109.086 181.143H73.0574M109.086 145.115V109.086M109.086 145.115H73.0574M109.086 109.086V73.0574M109.086 109.086H73.0574M109.086 73.0574V37.0286M109.086 73.0574H73.0574M109.086 37.0286V0.999931M109.086 37.0286H73.0574M109.086 0.999931H73.0574M73.0574 685.545V649.517M73.0574 685.545H37.0287M73.0574 649.517V613.488M73.0574 649.517H37.0287M73.0574 613.488V577.459M73.0574 613.488H37.0287M73.0574 577.459V541.431M73.0574 577.459H37.0287M73.0574 541.431V505.402M73.0574 541.431H37.0287M73.0574 505.402V469.373M73.0574 505.402H37.0287M73.0574 469.373V433.344M73.0574 469.373H37.0287M73.0574 433.344V397.316M73.0574 433.344H37.0287M73.0574 397.316V361.287M73.0574 397.316H37.0287M73.0574 361.287V325.258M73.0574 361.287H37.0287M73.0574 325.258V289.23M73.0574 325.258H37.0287M73.0574 289.23V253.201M73.0574 289.23H37.0287M73.0574 253.201V217.172M73.0574 253.201H37.0287M73.0574 217.172V181.143M73.0574 217.172H37.0287M73.0574 181.143V145.115M73.0574 181.143H37.0287M73.0574 145.115V109.086M73.0574 145.115H37.0287M73.0574 109.086V73.0574M73.0574 109.086H37.0287M73.0574 73.0574V37.0286M73.0574 73.0574H37.0287M73.0574 37.0286V0.999931M73.0574 37.0286H37.0287M73.0574 0.999931H37.0287M37.0287 685.545V649.517M37.0287 685.545H0.999969V649.517M37.0287 649.517V613.488M37.0287 649.517H0.999969M37.0287 613.488V577.459M37.0287 613.488H0.999969M37.0287 577.459V541.431M37.0287 577.459H0.999969M37.0287 541.431V505.402M37.0287 541.431H0.999969M37.0287 505.402V469.373M37.0287 505.402H0.999969M37.0287 469.373V433.344M37.0287 469.373H0.999969M37.0287 433.344V397.316M37.0287 433.344H0.999969M37.0287 397.316V361.287M37.0287 397.316H0.999969M37.0287 361.287V325.258M37.0287 361.287H0.999969M37.0287 325.258V289.23M37.0287 325.258H0.999969M37.0287 289.23V253.201M37.0287 289.23H0.999969M37.0287 253.201V217.172M37.0287 253.201H0.999969M37.0287 217.172V181.143M37.0287 217.172H0.999969M37.0287 181.143V145.115M37.0287 181.143H0.999969M37.0287 145.115V109.086M37.0287 145.115H0.999969M37.0287 109.086V73.0574M37.0287 109.086H0.999969M37.0287 73.0574V37.0286M37.0287 73.0574H0.999969M37.0287 37.0286V0.999931M37.0287 37.0286H0.999969M37.0287 0.999931H0.999969V37.0286M0.999969 649.517V613.488M0.999969 613.488V577.459M0.999969 577.459V541.431M0.999969 541.431V505.402M0.999969 505.402V469.373M0.999969 469.373V433.344M0.999969 433.344V397.316M0.999969 397.316V361.287M0.999969 361.287V325.258M0.999969 325.258V289.23M0.999969 289.23V253.201M0.999969 253.201V217.172M0.999969 217.172V181.143M0.999969 181.143V145.115M0.999969 145.115V109.086M0.999969 109.086V73.0574M0.999969 73.0574V37.0286" stroke="url(#paint0_linear_1702_3)" stroke-width="2"/>
</g>
<defs>
<linearGradient id="paint0_linear_1702_3" x1="1591.76" y1="347.545" x2="558.263" y2="343.545" gradientUnits="userSpaceOnUse">
<stop stop-color="#ADADAD"/>
<stop offset="1" stop-color="white" stop-opacity="0"/>
</linearGradient>
</defs>
</svg>
