<svg width="1588" height="687" viewBox="0 0 1588 687" fill="none" xmlns="http://www.w3.org/2000/svg">
<g style="mix-blend-mode:overlay">
<path d="M37.0287 1H1V37.0287M37.0287 1V37.0287M37.0287 1H73.0574M37.0287 37.0287H1M37.0287 37.0287V73.0574M37.0287 37.0287H73.0574M1 37.0287V73.0574M37.0287 73.0574H1M37.0287 73.0574V109.086M37.0287 73.0574H73.0574M1 73.0574V109.086M37.0287 109.086H1M37.0287 109.086V145.115M37.0287 109.086H73.0574M1 109.086V145.115M37.0287 145.115H1M37.0287 145.115V181.144M37.0287 145.115H73.0574M1 145.115V181.144M37.0287 181.144H1M37.0287 181.144V217.172M37.0287 181.144H73.0574M1 181.144V217.172M37.0287 217.172H1M37.0287 217.172V253.201M37.0287 217.172H73.0574M1 217.172V253.201M37.0287 253.201H1M37.0287 253.201V289.23M37.0287 253.201H73.0574M1 253.201V289.23M37.0287 289.23H1M37.0287 289.23V325.258M37.0287 289.23H73.0574M1 289.23V325.258M37.0287 325.258H1M37.0287 325.258V361.287M37.0287 325.258H73.0574M1 325.258V361.287M37.0287 361.287H1M37.0287 361.287V397.316M37.0287 361.287H73.0574M1 361.287V397.316M37.0287 397.316H1M37.0287 397.316V433.345M37.0287 397.316H73.0574M1 397.316V433.345M37.0287 433.345H1M37.0287 433.345V469.373M37.0287 433.345H73.0574M1 433.345V469.373M37.0287 469.373H1M37.0287 469.373V505.402M37.0287 469.373H73.0574M1 469.373V505.402M37.0287 505.402H1M37.0287 505.402V541.431M37.0287 505.402H73.0574M1 505.402V541.431M37.0287 541.431H1M37.0287 541.431V577.459M37.0287 541.431H73.0574M1 541.431V577.459M37.0287 577.459H1M37.0287 577.459V613.488M37.0287 577.459H73.0574M1 577.459V613.488M37.0287 613.488H1M37.0287 613.488V649.517M37.0287 613.488H73.0574M1 613.488V649.517M37.0287 649.517H1M37.0287 649.517V685.545M37.0287 649.517H73.0574M1 649.517V685.545H37.0287M37.0287 685.545H73.0574M73.0574 1V37.0287M73.0574 1H109.086M73.0574 37.0287V73.0574M73.0574 37.0287H109.086M73.0574 73.0574V109.086M73.0574 73.0574H109.086M73.0574 109.086V145.115M73.0574 109.086H109.086M73.0574 145.115V181.144M73.0574 145.115H109.086M73.0574 181.144V217.172M73.0574 181.144H109.086M73.0574 217.172V253.201M73.0574 217.172H109.086M73.0574 253.201V289.23M73.0574 253.201H109.086M73.0574 289.23V325.258M73.0574 289.23H109.086M73.0574 325.258V361.287M73.0574 325.258H109.086M73.0574 361.287V397.316M73.0574 361.287H109.086M73.0574 397.316V433.345M73.0574 397.316H109.086M73.0574 433.345V469.373M73.0574 433.345H109.086M73.0574 469.373V505.402M73.0574 469.373H109.086M73.0574 505.402V541.431M73.0574 505.402H109.086M73.0574 541.431V577.459M73.0574 541.431H109.086M73.0574 577.459V613.488M73.0574 577.459H109.086M73.0574 613.488V649.517M73.0574 613.488H109.086M73.0574 649.517V685.545M73.0574 649.517H109.086M73.0574 685.545H109.086M109.086 1V37.0287M109.086 1H145.115M109.086 37.0287V73.0574M109.086 37.0287H145.115M109.086 73.0574V109.086M109.086 73.0574H145.115M109.086 109.086V145.115M109.086 109.086H145.115M109.086 145.115V181.144M109.086 145.115H145.115M109.086 181.144V217.172M109.086 181.144H145.115M109.086 217.172V253.201M109.086 217.172H145.115M109.086 253.201V289.23M109.086 253.201H145.115M109.086 289.23V325.258M109.086 289.23H145.115M109.086 325.258V361.287M109.086 325.258H145.115M109.086 361.287V397.316M109.086 361.287H145.115M109.086 397.316V433.345M109.086 397.316H145.115M109.086 433.345V469.373M109.086 433.345H145.115M109.086 469.373V505.402M109.086 469.373H145.115M109.086 505.402V541.431M109.086 505.402H145.115M109.086 541.431V577.459M109.086 541.431H145.115M109.086 577.459V613.488M109.086 577.459H145.115M109.086 613.488V649.517M109.086 613.488H145.115M109.086 649.517V685.545M109.086 649.517H145.115M109.086 685.545H145.115M145.115 1V37.0287M145.115 1H181.144M145.115 37.0287V73.0574M145.115 37.0287H181.144M145.115 73.0574V109.086M145.115 73.0574H181.144M145.115 109.086V145.115M145.115 109.086H181.144M145.115 145.115V181.144M145.115 145.115H181.144M145.115 181.144V217.172M145.115 181.144H181.144M145.115 217.172V253.201M145.115 217.172H181.144M145.115 253.201V289.23M145.115 253.201H181.144M145.115 289.23V325.258M145.115 289.23H181.144M145.115 325.258V361.287M145.115 325.258H181.144M145.115 361.287V397.316M145.115 361.287H181.144M145.115 397.316V433.345M145.115 397.316H181.144M145.115 433.345V469.373M145.115 433.345H181.144M145.115 469.373V505.402M145.115 469.373H181.144M145.115 505.402V541.431M145.115 505.402H181.144M145.115 541.431V577.459M145.115 541.431H181.144M145.115 577.459V613.488M145.115 577.459H181.144M145.115 613.488V649.517M145.115 613.488H181.144M145.115 649.517V685.545M145.115 649.517H181.144M145.115 685.545H181.144M181.144 1V37.0287M181.144 1H217.172M181.144 37.0287V73.0574M181.144 37.0287H217.172M181.144 73.0574V109.086M181.144 73.0574H217.172M181.144 109.086V145.115M181.144 109.086H217.172M181.144 145.115V181.144M181.144 145.115H217.172M181.144 181.144V217.172M181.144 181.144H217.172M181.144 217.172V253.201M181.144 217.172H217.172M181.144 253.201V289.23M181.144 253.201H217.172M181.144 289.23V325.258M181.144 289.23H217.172M181.144 325.258V361.287M181.144 325.258H217.172M181.144 361.287V397.316M181.144 361.287H217.172M181.144 397.316V433.345M181.144 397.316H217.172M181.144 433.345V469.373M181.144 433.345H217.172M181.144 469.373V505.402M181.144 469.373H217.172M181.144 505.402V541.431M181.144 505.402H217.172M181.144 541.431V577.459M181.144 541.431H217.172M181.144 577.459V613.488M181.144 577.459H217.172M181.144 613.488V649.517M181.144 613.488H217.172M181.144 649.517V685.545M181.144 649.517H217.172M181.144 685.545H217.172M217.172 1V37.0287M217.172 1H253.201M217.172 37.0287V73.0574M217.172 37.0287H253.201M217.172 73.0574V109.086M217.172 73.0574H253.201M217.172 109.086V145.115M217.172 109.086H253.201M217.172 145.115V181.144M217.172 145.115H253.201M217.172 181.144V217.172M217.172 181.144H253.201M217.172 217.172V253.201M217.172 217.172H253.201M217.172 253.201V289.23M217.172 253.201H253.201M217.172 289.23V325.258M217.172 289.23H253.201M217.172 325.258V361.287M217.172 325.258H253.201M217.172 361.287V397.316M217.172 361.287H253.201M217.172 397.316V433.345M217.172 397.316H253.201M217.172 433.345V469.373M217.172 433.345H253.201M217.172 469.373V505.402M217.172 469.373H253.201M217.172 505.402V541.431M217.172 505.402H253.201M217.172 541.431V577.459M217.172 541.431H253.201M217.172 577.459V613.488M217.172 577.459H253.201M217.172 613.488V649.517M217.172 613.488H253.201M217.172 649.517V685.545M217.172 649.517H253.201M217.172 685.545H253.201M253.201 1V37.0287M253.201 1H289.23M253.201 37.0287V73.0574M253.201 37.0287H289.23M253.201 73.0574V109.086M253.201 73.0574H289.23M253.201 109.086V145.115M253.201 109.086H289.23M253.201 145.115V181.144M253.201 145.115H289.23M253.201 181.144V217.172M253.201 181.144H289.23M253.201 217.172V253.201M253.201 217.172H289.23M253.201 253.201V289.23M253.201 253.201H289.23M253.201 289.23V325.258M253.201 289.23H289.23M253.201 325.258V361.287M253.201 325.258H289.23M253.201 361.287V397.316M253.201 361.287H289.23M253.201 397.316V433.345M253.201 397.316H289.23M253.201 433.345V469.373M253.201 433.345H289.23M253.201 469.373V505.402M253.201 469.373H289.23M253.201 505.402V541.431M253.201 505.402H289.23M253.201 541.431V577.459M253.201 541.431H289.23M253.201 577.459V613.488M253.201 577.459H289.23M253.201 613.488V649.517M253.201 613.488H289.23M253.201 649.517V685.545M253.201 649.517H289.23M253.201 685.545H289.23M289.23 1V37.0287M289.23 1H325.258M289.23 37.0287V73.0574M289.23 37.0287H325.258M289.23 73.0574V109.086M289.23 73.0574H325.258M289.23 109.086V145.115M289.23 109.086H325.258M289.23 145.115V181.144M289.23 145.115H325.258M289.23 181.144V217.172M289.23 181.144H325.258M289.23 217.172V253.201M289.23 217.172H325.258M289.23 253.201V289.23M289.23 253.201H325.258M289.23 289.23V325.258M289.23 289.23H325.258M289.23 325.258V361.287M289.23 325.258H325.258M289.23 361.287V397.316M289.23 361.287H325.258M289.23 397.316V433.345M289.23 397.316H325.258M289.23 433.345V469.373M289.23 433.345H325.258M289.23 469.373V505.402M289.23 469.373H325.258M289.23 505.402V541.431M289.23 505.402H325.258M289.23 541.431V577.459M289.23 541.431H325.258M289.23 577.459V613.488M289.23 577.459H325.258M289.23 613.488V649.517M289.23 613.488H325.258M289.23 649.517V685.545M289.23 649.517H325.258M289.23 685.545H325.258M325.258 1V37.0287M325.258 1H361.287M325.258 37.0287V73.0574M325.258 37.0287H361.287M325.258 73.0574V109.086M325.258 73.0574H361.287M325.258 109.086V145.115M325.258 109.086H361.287M325.258 145.115V181.144M325.258 145.115H361.287M325.258 181.144V217.172M325.258 181.144H361.287M325.258 217.172V253.201M325.258 217.172H361.287M325.258 253.201V289.23M325.258 253.201H361.287M325.258 289.23V325.258M325.258 289.23H361.287M325.258 325.258V361.287M325.258 325.258H361.287M325.258 361.287V397.316M325.258 361.287H361.287M325.258 397.316V433.345M325.258 397.316H361.287M325.258 433.345V469.373M325.258 433.345H361.287M325.258 469.373V505.402M325.258 469.373H361.287M325.258 505.402V541.431M325.258 505.402H361.287M325.258 541.431V577.459M325.258 541.431H361.287M325.258 577.459V613.488M325.258 577.459H361.287M325.258 613.488V649.517M325.258 613.488H361.287M325.258 649.517V685.545M325.258 649.517H361.287M325.258 685.545H361.287M361.287 1V37.0287M361.287 1H397.316M361.287 37.0287V73.0574M361.287 37.0287H397.316M361.287 73.0574V109.086M361.287 73.0574H397.316M361.287 109.086V145.115M361.287 109.086H397.316M361.287 145.115V181.144M361.287 145.115H397.316M361.287 181.144V217.172M361.287 181.144H397.316M361.287 217.172V253.201M361.287 217.172H397.316M361.287 253.201V289.23M361.287 253.201H397.316M361.287 289.23V325.258M361.287 289.23H397.316M361.287 325.258V361.287M361.287 325.258H397.316M361.287 361.287V397.316M361.287 361.287H397.316M361.287 397.316V433.345M361.287 397.316H397.316M361.287 433.345V469.373M361.287 433.345H397.316M361.287 469.373V505.402M361.287 469.373H397.316M361.287 505.402V541.431M361.287 505.402H397.316M361.287 541.431V577.459M361.287 541.431H397.316M361.287 577.459V613.488M361.287 577.459H397.316M361.287 613.488V649.517M361.287 613.488H397.316M361.287 649.517V685.545M361.287 649.517H397.316M361.287 685.545H397.316M397.316 1V37.0287M397.316 1H433.345M397.316 37.0287V73.0574M397.316 37.0287H433.345M397.316 73.0574V109.086M397.316 73.0574H433.345M397.316 109.086V145.115M397.316 109.086H433.345M397.316 145.115V181.144M397.316 145.115H433.345M397.316 181.144V217.172M397.316 181.144H433.345M397.316 217.172V253.201M397.316 217.172H433.345M397.316 253.201V289.23M397.316 253.201H433.345M397.316 289.23V325.258M397.316 289.23H433.345M397.316 325.258V361.287M397.316 325.258H433.345M397.316 361.287V397.316M397.316 361.287H433.345M397.316 397.316V433.345M397.316 397.316H433.345M397.316 433.345V469.373M397.316 433.345H433.345M397.316 469.373V505.402M397.316 469.373H433.345M397.316 505.402V541.431M397.316 505.402H433.345M397.316 541.431V577.459M397.316 541.431H433.345M397.316 577.459V613.488M397.316 577.459H433.345M397.316 613.488V649.517M397.316 613.488H433.345M397.316 649.517V685.545M397.316 649.517H433.345M397.316 685.545H433.345M433.345 1V37.0287M433.345 1H469.373M433.345 37.0287V73.0574M433.345 37.0287H469.373M433.345 73.0574V109.086M433.345 73.0574H469.373M433.345 109.086V145.115M433.345 109.086H469.373M433.345 145.115V181.144M433.345 145.115H469.373M433.345 181.144V217.172M433.345 181.144H469.373M433.345 217.172V253.201M433.345 217.172H469.373M433.345 253.201V289.23M433.345 253.201H469.373M433.345 289.23V325.258M433.345 289.23H469.373M433.345 325.258V361.287M433.345 325.258H469.373M433.345 361.287V397.316M433.345 361.287H469.373M433.345 397.316V433.345M433.345 397.316H469.373M433.345 433.345V469.373M433.345 433.345H469.373M433.345 469.373V505.402M433.345 469.373H469.373M433.345 505.402V541.431M433.345 505.402H469.373M433.345 541.431V577.459M433.345 541.431H469.373M433.345 577.459V613.488M433.345 577.459H469.373M433.345 613.488V649.517M433.345 613.488H469.373M433.345 649.517V685.545M433.345 649.517H469.373M433.345 685.545H469.373M469.373 1V37.0287M469.373 1H505.402M469.373 37.0287V73.0574M469.373 37.0287H505.402M469.373 73.0574V109.086M469.373 73.0574H505.402M469.373 109.086V145.115M469.373 109.086H505.402M469.373 145.115V181.144M469.373 145.115H505.402M469.373 181.144V217.172M469.373 181.144H505.402M469.373 217.172V253.201M469.373 217.172H505.402M469.373 253.201V289.23M469.373 253.201H505.402M469.373 289.23V325.258M469.373 289.23H505.402M469.373 325.258V361.287M469.373 325.258H505.402M469.373 361.287V397.316M469.373 361.287H505.402M469.373 397.316V433.345M469.373 397.316H505.402M469.373 433.345V469.373M469.373 433.345H505.402M469.373 469.373V505.402M469.373 469.373H505.402M469.373 505.402V541.431M469.373 505.402H505.402M469.373 541.431V577.459M469.373 541.431H505.402M469.373 577.459V613.488M469.373 577.459H505.402M469.373 613.488V649.517M469.373 613.488H505.402M469.373 649.517V685.545M469.373 649.517H505.402M469.373 685.545H505.402M505.402 1V37.0287M505.402 1H541.431M505.402 37.0287V73.0574M505.402 37.0287H541.431M505.402 73.0574V109.086M505.402 73.0574H541.431M505.402 109.086V145.115M505.402 109.086H541.431M505.402 145.115V181.144M505.402 145.115H541.431M505.402 181.144V217.172M505.402 181.144H541.431M505.402 217.172V253.201M505.402 217.172H541.431M505.402 253.201V289.23M505.402 253.201H541.431M505.402 289.23V325.258M505.402 289.23H541.431M505.402 325.258V361.287M505.402 325.258H541.431M505.402 361.287V397.316M505.402 361.287H541.431M505.402 397.316V433.345M505.402 397.316H541.431M505.402 433.345V469.373M505.402 433.345H541.431M505.402 469.373V505.402M505.402 469.373H541.431M505.402 505.402V541.431M505.402 505.402H541.431M505.402 541.431V577.459M505.402 541.431H541.431M505.402 577.459V613.488M505.402 577.459H541.431M505.402 613.488V649.517M505.402 613.488H541.431M505.402 649.517V685.545M505.402 649.517H541.431M505.402 685.545H541.431M541.431 1V37.0287M541.431 1H577.459M541.431 37.0287V73.0574M541.431 37.0287H577.459M541.431 73.0574V109.086M541.431 73.0574H577.459M541.431 109.086V145.115M541.431 109.086H577.459M541.431 145.115V181.144M541.431 145.115H577.459M541.431 181.144V217.172M541.431 181.144H577.459M541.431 217.172V253.201M541.431 217.172H577.459M541.431 253.201V289.23M541.431 253.201H577.459M541.431 289.23V325.258M541.431 289.23H577.459M541.431 325.258V361.287M541.431 325.258H577.459M541.431 361.287V397.316M541.431 361.287H577.459M541.431 397.316V433.345M541.431 397.316H577.459M541.431 433.345V469.373M541.431 433.345H577.459M541.431 469.373V505.402M541.431 469.373H577.459M541.431 505.402V541.431M541.431 505.402H577.459M541.431 541.431V577.459M541.431 541.431H577.459M541.431 577.459V613.488M541.431 577.459H577.459M541.431 613.488V649.517M541.431 613.488H577.459M541.431 649.517V685.545M541.431 649.517H577.459M541.431 685.545H577.459M577.459 1V37.0287M577.459 1H613.488M577.459 37.0287V73.0574M577.459 37.0287H613.488M577.459 73.0574V109.086M577.459 73.0574H613.488M577.459 109.086V145.115M577.459 109.086H613.488M577.459 145.115V181.144M577.459 145.115H613.488M577.459 181.144V217.172M577.459 181.144H613.488M577.459 217.172V253.201M577.459 217.172H613.488M577.459 253.201V289.23M577.459 253.201H613.488M577.459 289.23V325.258M577.459 289.23H613.488M577.459 325.258V361.287M577.459 325.258H613.488M577.459 361.287V397.316M577.459 361.287H613.488M577.459 397.316V433.345M577.459 397.316H613.488M577.459 433.345V469.373M577.459 433.345H613.488M577.459 469.373V505.402M577.459 469.373H613.488M577.459 505.402V541.431M577.459 505.402H613.488M577.459 541.431V577.459M577.459 541.431H613.488M577.459 577.459V613.488M577.459 577.459H613.488M577.459 613.488V649.517M577.459 613.488H613.488M577.459 649.517V685.545M577.459 649.517H613.488M577.459 685.545H613.488M613.488 1V37.0287M613.488 1H649.517M613.488 37.0287V73.0574M613.488 37.0287H649.517M613.488 73.0574V109.086M613.488 73.0574H649.517M613.488 109.086V145.115M613.488 109.086H649.517M613.488 145.115V181.144M613.488 145.115H649.517M613.488 181.144V217.172M613.488 181.144H649.517M613.488 217.172V253.201M613.488 217.172H649.517M613.488 253.201V289.23M613.488 253.201H649.517M613.488 289.23V325.258M613.488 289.23H649.517M613.488 325.258V361.287M613.488 325.258H649.517M613.488 361.287V397.316M613.488 361.287H649.517M613.488 397.316V433.345M613.488 397.316H649.517M613.488 433.345V469.373M613.488 433.345H649.517M613.488 469.373V505.402M613.488 469.373H649.517M613.488 505.402V541.431M613.488 505.402H649.517M613.488 541.431V577.459M613.488 541.431H649.517M613.488 577.459V613.488M613.488 577.459H649.517M613.488 613.488V649.517M613.488 613.488H649.517M613.488 649.517V685.545M613.488 649.517H649.517M613.488 685.545H649.517M649.517 1V37.0287M649.517 1H685.545M649.517 37.0287V73.0574M649.517 37.0287H685.545M649.517 73.0574V109.086M649.517 73.0574H685.545M649.517 109.086V145.115M649.517 109.086H685.545M649.517 145.115V181.144M649.517 145.115H685.545M649.517 181.144V217.172M649.517 181.144H685.545M649.517 217.172V253.201M649.517 217.172H685.545M649.517 253.201V289.23M649.517 253.201H685.545M649.517 289.23V325.258M649.517 289.23H685.545M649.517 325.258V361.287M649.517 325.258H685.545M649.517 361.287V397.316M649.517 361.287H685.545M649.517 397.316V433.345M649.517 397.316H685.545M649.517 433.345V469.373M649.517 433.345H685.545M649.517 469.373V505.402M649.517 469.373H685.545M649.517 505.402V541.431M649.517 505.402H685.545M649.517 541.431V577.459M649.517 541.431H685.545M649.517 577.459V613.488M649.517 577.459H685.545M649.517 613.488V649.517M649.517 613.488H685.545M649.517 649.517V685.545M649.517 649.517H685.545M649.517 685.545H685.545M685.545 1V37.0287M685.545 1H721.574M685.545 37.0287V73.0574M685.545 37.0287H721.574M685.545 73.0574V109.086M685.545 73.0574H721.574M685.545 109.086V145.115M685.545 109.086H721.574M685.545 145.115V181.144M685.545 145.115H721.574M685.545 181.144V217.172M685.545 181.144H721.574M685.545 217.172V253.201M685.545 217.172H721.574M685.545 253.201V289.23M685.545 253.201H721.574M685.545 289.23V325.258M685.545 289.23H721.574M685.545 325.258V361.287M685.545 325.258H721.574M685.545 361.287V397.316M685.545 361.287H721.574M685.545 397.316V433.345M685.545 397.316H721.574M685.545 433.345V469.373M685.545 433.345H721.574M685.545 469.373V505.402M685.545 469.373H721.574M685.545 505.402V541.431M685.545 505.402H721.574M685.545 541.431V577.459M685.545 541.431H721.574M685.545 577.459V613.488M685.545 577.459H721.574M685.545 613.488V649.517M685.545 613.488H721.574M685.545 649.517V685.545M685.545 649.517H721.574M685.545 685.545H721.574M721.574 1V37.0287M721.574 1H757.603M721.574 37.0287V73.0574M721.574 37.0287H757.603M721.574 73.0574V109.086M721.574 73.0574H757.603M721.574 109.086V145.115M721.574 109.086H757.603M721.574 145.115V181.144M721.574 145.115H757.603M721.574 181.144V217.172M721.574 181.144H757.603M721.574 217.172V253.201M721.574 217.172H757.603M721.574 253.201V289.23M721.574 253.201H757.603M721.574 289.23V325.258M721.574 289.23H757.603M721.574 325.258V361.287M721.574 325.258H757.603M721.574 361.287V397.316M721.574 361.287H757.603M721.574 397.316V433.345M721.574 397.316H757.603M721.574 433.345V469.373M721.574 433.345H757.603M721.574 469.373V505.402M721.574 469.373H757.603M721.574 505.402V541.431M721.574 505.402H757.603M721.574 541.431V577.459M721.574 541.431H757.603M721.574 577.459V613.488M721.574 577.459H757.603M721.574 613.488V649.517M721.574 613.488H757.603M721.574 649.517V685.545M721.574 649.517H757.603M721.574 685.545H757.603M757.603 1V37.0287M757.603 1H793.632M757.603 37.0287V73.0574M757.603 37.0287H793.632M757.603 73.0574V109.086M757.603 73.0574H793.632M757.603 109.086V145.115M757.603 109.086H793.632M757.603 145.115V181.144M757.603 145.115H793.632M757.603 181.144V217.172M757.603 181.144H793.632M757.603 217.172V253.201M757.603 217.172H793.632M757.603 253.201V289.23M757.603 253.201H793.632M757.603 289.23V325.258M757.603 289.23H793.632M757.603 325.258V361.287M757.603 325.258H793.632M757.603 361.287V397.316M757.603 361.287H793.632M757.603 397.316V433.345M757.603 397.316H793.632M757.603 433.345V469.373M757.603 433.345H793.632M757.603 469.373V505.402M757.603 469.373H793.632M757.603 505.402V541.431M757.603 505.402H793.632M757.603 541.431V577.459M757.603 541.431H793.632M757.603 577.459V613.488M757.603 577.459H793.632M757.603 613.488V649.517M757.603 613.488H793.632M757.603 649.517V685.545M757.603 649.517H793.632M757.603 685.545H793.632M793.632 1V37.0287M793.632 1H829.66M793.632 37.0287V73.0574M793.632 37.0287H829.66M793.632 73.0574V109.086M793.632 73.0574H829.66M793.632 109.086V145.115M793.632 109.086H829.66M793.632 145.115V181.144M793.632 145.115H829.66M793.632 181.144V217.172M793.632 181.144H829.66M793.632 217.172V253.201M793.632 217.172H829.66M793.632 253.201V289.23M793.632 253.201H829.66M793.632 289.23V325.258M793.632 289.23H829.66M793.632 325.258V361.287M793.632 325.258H829.66M793.632 361.287V397.316M793.632 361.287H829.66M793.632 397.316V433.345M793.632 397.316H829.66M793.632 433.345V469.373M793.632 433.345H829.66M793.632 469.373V505.402M793.632 469.373H829.66M793.632 505.402V541.431M793.632 505.402H829.66M793.632 541.431V577.459M793.632 541.431H829.66M793.632 577.459V613.488M793.632 577.459H829.66M793.632 613.488V649.517M793.632 613.488H829.66M793.632 649.517V685.545M793.632 649.517H829.66M793.632 685.545H829.66M829.66 1V37.0287M829.66 1H865.689M829.66 37.0287V73.0574M829.66 37.0287H865.689M829.66 73.0574V109.086M829.66 73.0574H865.689M829.66 109.086V145.115M829.66 109.086H865.689M829.66 145.115V181.144M829.66 145.115H865.689M829.66 181.144V217.172M829.66 181.144H865.689M829.66 217.172V253.201M829.66 217.172H865.689M829.66 253.201V289.23M829.66 253.201H865.689M829.66 289.23V325.258M829.66 289.23H865.689M829.66 325.258V361.287M829.66 325.258H865.689M829.66 361.287V397.316M829.66 361.287H865.689M829.66 397.316V433.345M829.66 397.316H865.689M829.66 433.345V469.373M829.66 433.345H865.689M829.66 469.373V505.402M829.66 469.373H865.689M829.66 505.402V541.431M829.66 505.402H865.689M829.66 541.431V577.459M829.66 541.431H865.689M829.66 577.459V613.488M829.66 577.459H865.689M829.66 613.488V649.517M829.66 613.488H865.689M829.66 649.517V685.545M829.66 649.517H865.689M829.66 685.545H865.689M865.689 1V37.0287M865.689 1H901.718M865.689 37.0287V73.0574M865.689 37.0287H901.718M865.689 73.0574V109.086M865.689 73.0574H901.718M865.689 109.086V145.115M865.689 109.086H901.718M865.689 145.115V181.144M865.689 145.115H901.718M865.689 181.144V217.172M865.689 181.144H901.718M865.689 217.172V253.201M865.689 217.172H901.718M865.689 253.201V289.23M865.689 253.201H901.718M865.689 289.23V325.258M865.689 289.23H901.718M865.689 325.258V361.287M865.689 325.258H901.718M865.689 361.287V397.316M865.689 361.287H901.718M865.689 397.316V433.345M865.689 397.316H901.718M865.689 433.345V469.373M865.689 433.345H901.718M865.689 469.373V505.402M865.689 469.373H901.718M865.689 505.402V541.431M865.689 505.402H901.718M865.689 541.431V577.459M865.689 541.431H901.718M865.689 577.459V613.488M865.689 577.459H901.718M865.689 613.488V649.517M865.689 613.488H901.718M865.689 649.517V685.545M865.689 649.517H901.718M865.689 685.545H901.718M901.718 1V37.0287M901.718 1H937.746M901.718 37.0287V73.0574M901.718 37.0287H937.746M901.718 73.0574V109.086M901.718 73.0574H937.746M901.718 109.086V145.115M901.718 109.086H937.746M901.718 145.115V181.144M901.718 145.115H937.746M901.718 181.144V217.172M901.718 181.144H937.746M901.718 217.172V253.201M901.718 217.172H937.746M901.718 253.201V289.23M901.718 253.201H937.746M901.718 289.23V325.258M901.718 289.23H937.746M901.718 325.258V361.287M901.718 325.258H937.746M901.718 361.287V397.316M901.718 361.287H937.746M901.718 397.316V433.345M901.718 397.316H937.746M901.718 433.345V469.373M901.718 433.345H937.746M901.718 469.373V505.402M901.718 469.373H937.746M901.718 505.402V541.431M901.718 505.402H937.746M901.718 541.431V577.459M901.718 541.431H937.746M901.718 577.459V613.488M901.718 577.459H937.746M901.718 613.488V649.517M901.718 613.488H937.746M901.718 649.517V685.545M901.718 649.517H937.746M901.718 685.545H937.746M937.746 1V37.0287M937.746 1H973.775M937.746 37.0287V73.0574M937.746 37.0287H973.775M937.746 73.0574V109.086M937.746 73.0574H973.775M937.746 109.086V145.115M937.746 109.086H973.775M937.746 145.115V181.144M937.746 145.115H973.775M937.746 181.144V217.172M937.746 181.144H973.775M937.746 217.172V253.201M937.746 217.172H973.775M937.746 253.201V289.23M937.746 253.201H973.775M937.746 289.23V325.258M937.746 289.23H973.775M937.746 325.258V361.287M937.746 325.258H973.775M937.746 361.287V397.316M937.746 361.287H973.775M937.746 397.316V433.345M937.746 397.316H973.775M937.746 433.345V469.373M937.746 433.345H973.775M937.746 469.373V505.402M937.746 469.373H973.775M937.746 505.402V541.431M937.746 505.402H973.775M937.746 541.431V577.459M937.746 541.431H973.775M937.746 577.459V613.488M937.746 577.459H973.775M937.746 613.488V649.517M937.746 613.488H973.775M937.746 649.517V685.545M937.746 649.517H973.775M937.746 685.545H973.775M973.775 1V37.0287M973.775 1H1009.8M973.775 37.0287V73.0574M973.775 37.0287H1009.8M973.775 73.0574V109.086M973.775 73.0574H1009.8M973.775 109.086V145.115M973.775 109.086H1009.8M973.775 145.115V181.144M973.775 145.115H1009.8M973.775 181.144V217.172M973.775 181.144H1009.8M973.775 217.172V253.201M973.775 217.172H1009.8M973.775 253.201V289.23M973.775 253.201H1009.8M973.775 289.23V325.258M973.775 289.23H1009.8M973.775 325.258V361.287M973.775 325.258H1009.8M973.775 361.287V397.316M973.775 361.287H1009.8M973.775 397.316V433.345M973.775 397.316H1009.8M973.775 433.345V469.373M973.775 433.345H1009.8M973.775 469.373V505.402M973.775 469.373H1009.8M973.775 505.402V541.431M973.775 505.402H1009.8M973.775 541.431V577.459M973.775 541.431H1009.8M973.775 577.459V613.488M973.775 577.459H1009.8M973.775 613.488V649.517M973.775 613.488H1009.8M973.775 649.517V685.545M973.775 649.517H1009.8M973.775 685.545H1009.8M1009.8 1V37.0287M1009.8 1H1045.83M1009.8 37.0287V73.0574M1009.8 37.0287H1045.83M1009.8 73.0574V109.086M1009.8 73.0574H1045.83M1009.8 109.086V145.115M1009.8 109.086H1045.83M1009.8 145.115V181.144M1009.8 145.115H1045.83M1009.8 181.144V217.172M1009.8 181.144H1045.83M1009.8 217.172V253.201M1009.8 217.172H1045.83M1009.8 253.201V289.23M1009.8 253.201H1045.83M1009.8 289.23V325.258M1009.8 289.23H1045.83M1009.8 325.258V361.287M1009.8 325.258H1045.83M1009.8 361.287V397.316M1009.8 361.287H1045.83M1009.8 397.316V433.345M1009.8 397.316H1045.83M1009.8 433.345V469.373M1009.8 433.345H1045.83M1009.8 469.373V505.402M1009.8 469.373H1045.83M1009.8 505.402V541.431M1009.8 505.402H1045.83M1009.8 541.431V577.459M1009.8 541.431H1045.83M1009.8 577.459V613.488M1009.8 577.459H1045.83M1009.8 613.488V649.517M1009.8 613.488H1045.83M1009.8 649.517V685.545M1009.8 649.517H1045.83M1009.8 685.545H1045.83M1045.83 1V37.0287M1045.83 1H1081.86M1045.83 37.0287V73.0574M1045.83 37.0287H1081.86M1045.83 73.0574V109.086M1045.83 73.0574H1081.86M1045.83 109.086V145.115M1045.83 109.086H1081.86M1045.83 145.115V181.144M1045.83 145.115H1081.86M1045.83 181.144V217.172M1045.83 181.144H1081.86M1045.83 217.172V253.201M1045.83 217.172H1081.86M1045.83 253.201V289.23M1045.83 253.201H1081.86M1045.83 289.23V325.258M1045.83 289.23H1081.86M1045.83 325.258V361.287M1045.83 325.258H1081.86M1045.83 361.287V397.316M1045.83 361.287H1081.86M1045.83 397.316V433.345M1045.83 397.316H1081.86M1045.83 433.345V469.373M1045.83 433.345H1081.86M1045.83 469.373V505.402M1045.83 469.373H1081.86M1045.83 505.402V541.431M1045.83 505.402H1081.86M1045.83 541.431V577.459M1045.83 541.431H1081.86M1045.83 577.459V613.488M1045.83 577.459H1081.86M1045.83 613.488V649.517M1045.83 613.488H1081.86M1045.83 649.517V685.545M1045.83 649.517H1081.86M1045.83 685.545H1081.86M1081.86 1V37.0287M1081.86 1H1117.89M1081.86 37.0287V73.0574M1081.86 37.0287H1117.89M1081.86 73.0574V109.086M1081.86 73.0574H1117.89M1081.86 109.086V145.115M1081.86 109.086H1117.89M1081.86 145.115V181.144M1081.86 145.115H1117.89M1081.86 181.144V217.172M1081.86 181.144H1117.89M1081.86 217.172V253.201M1081.86 217.172H1117.89M1081.86 253.201V289.23M1081.86 253.201H1117.89M1081.86 289.23V325.258M1081.86 289.23H1117.89M1081.86 325.258V361.287M1081.86 325.258H1117.89M1081.86 361.287V397.316M1081.86 361.287H1117.89M1081.86 397.316V433.345M1081.86 397.316H1117.89M1081.86 433.345V469.373M1081.86 433.345H1117.89M1081.86 469.373V505.402M1081.86 469.373H1117.89M1081.86 505.402V541.431M1081.86 505.402H1117.89M1081.86 541.431V577.459M1081.86 541.431H1117.89M1081.86 577.459V613.488M1081.86 577.459H1117.89M1081.86 613.488V649.517M1081.86 613.488H1117.89M1081.86 649.517V685.545M1081.86 649.517H1117.89M1081.86 685.545H1117.89M1117.89 1V37.0287M1117.89 1H1153.92M1117.89 37.0287V73.0574M1117.89 37.0287H1153.92M1117.89 73.0574V109.086M1117.89 73.0574H1153.92M1117.89 109.086V145.115M1117.89 109.086H1153.92M1117.89 145.115V181.144M1117.89 145.115H1153.92M1117.89 181.144V217.172M1117.89 181.144H1153.92M1117.89 217.172V253.201M1117.89 217.172H1153.92M1117.89 253.201V289.23M1117.89 253.201H1153.92M1117.89 289.23V325.258M1117.89 289.23H1153.92M1117.89 325.258V361.287M1117.89 325.258H1153.92M1117.89 361.287V397.316M1117.89 361.287H1153.92M1117.89 397.316V433.345M1117.89 397.316H1153.92M1117.89 433.345V469.373M1117.89 433.345H1153.92M1117.89 469.373V505.402M1117.89 469.373H1153.92M1117.89 505.402V541.431M1117.89 505.402H1153.92M1117.89 541.431V577.459M1117.89 541.431H1153.92M1117.89 577.459V613.488M1117.89 577.459H1153.92M1117.89 613.488V649.517M1117.89 613.488H1153.92M1117.89 649.517V685.545M1117.89 649.517H1153.92M1117.89 685.545H1153.92M1153.92 1V37.0287M1153.92 1H1189.95M1153.92 37.0287V73.0574M1153.92 37.0287H1189.95M1153.92 73.0574V109.086M1153.92 73.0574H1189.95M1153.92 109.086V145.115M1153.92 109.086H1189.95M1153.92 145.115V181.144M1153.92 145.115H1189.95M1153.92 181.144V217.172M1153.92 181.144H1189.95M1153.92 217.172V253.201M1153.92 217.172H1189.95M1153.92 253.201V289.23M1153.92 253.201H1189.95M1153.92 289.23V325.258M1153.92 289.23H1189.95M1153.92 325.258V361.287M1153.92 325.258H1189.95M1153.92 361.287V397.316M1153.92 361.287H1189.95M1153.92 397.316V433.345M1153.92 397.316H1189.95M1153.92 433.345V469.373M1153.92 433.345H1189.95M1153.92 469.373V505.402M1153.92 469.373H1189.95M1153.92 505.402V541.431M1153.92 505.402H1189.95M1153.92 541.431V577.459M1153.92 541.431H1189.95M1153.92 577.459V613.488M1153.92 577.459H1189.95M1153.92 613.488V649.517M1153.92 613.488H1189.95M1153.92 649.517V685.545M1153.92 649.517H1189.95M1153.92 685.545H1189.95M1189.95 1V37.0287M1189.95 1H1225.98M1189.95 37.0287V73.0574M1189.95 37.0287H1225.98M1189.95 73.0574V109.086M1189.95 73.0574H1225.98M1189.95 109.086V145.115M1189.95 109.086H1225.98M1189.95 145.115V181.144M1189.95 145.115H1225.98M1189.95 181.144V217.172M1189.95 181.144H1225.98M1189.95 217.172V253.201M1189.95 217.172H1225.98M1189.95 253.201V289.23M1189.95 253.201H1225.98M1189.95 289.23V325.258M1189.95 289.23H1225.98M1189.95 325.258V361.287M1189.95 325.258H1225.98M1189.95 361.287V397.316M1189.95 361.287H1225.98M1189.95 397.316V433.345M1189.95 397.316H1225.98M1189.95 433.345V469.373M1189.95 433.345H1225.98M1189.95 469.373V505.402M1189.95 469.373H1225.98M1189.95 505.402V541.431M1189.95 505.402H1225.98M1189.95 541.431V577.459M1189.95 541.431H1225.98M1189.95 577.459V613.488M1189.95 577.459H1225.98M1189.95 613.488V649.517M1189.95 613.488H1225.98M1189.95 649.517V685.545M1189.95 649.517H1225.98M1189.95 685.545H1225.98M1225.98 1V37.0287M1225.98 1H1262M1225.98 37.0287V73.0574M1225.98 37.0287H1262M1225.98 73.0574V109.086M1225.98 73.0574H1262M1225.98 109.086V145.115M1225.98 109.086H1262M1225.98 145.115V181.144M1225.98 145.115H1262M1225.98 181.144V217.172M1225.98 181.144H1262M1225.98 217.172V253.201M1225.98 217.172H1262M1225.98 253.201V289.23M1225.98 253.201H1262M1225.98 289.23V325.258M1225.98 289.23H1262M1225.98 325.258V361.287M1225.98 325.258H1262M1225.98 361.287V397.316M1225.98 361.287H1262M1225.98 397.316V433.345M1225.98 397.316H1262M1225.98 433.345V469.373M1225.98 433.345H1262M1225.98 469.373V505.402M1225.98 469.373H1262M1225.98 505.402V541.431M1225.98 505.402H1262M1225.98 541.431V577.459M1225.98 541.431H1262M1225.98 577.459V613.488M1225.98 577.459H1262M1225.98 613.488V649.517M1225.98 613.488H1262M1225.98 649.517V685.545M1225.98 649.517H1262M1225.98 685.545H1262M1262 1V37.0287M1262 1H1298.03M1262 37.0287V73.0574M1262 37.0287H1298.03M1262 73.0574V109.086M1262 73.0574H1298.03M1262 109.086V145.115M1262 109.086H1298.03M1262 145.115V181.144M1262 145.115H1298.03M1262 181.144V217.172M1262 181.144H1298.03M1262 217.172V253.201M1262 217.172H1298.03M1262 253.201V289.23M1262 253.201H1298.03M1262 289.23V325.258M1262 289.23H1298.03M1262 325.258V361.287M1262 325.258H1298.03M1262 361.287V397.316M1262 361.287H1298.03M1262 397.316V433.345M1262 397.316H1298.03M1262 433.345V469.373M1262 433.345H1298.03M1262 469.373V505.402M1262 469.373H1298.03M1262 505.402V541.431M1262 505.402H1298.03M1262 541.431V577.459M1262 541.431H1298.03M1262 577.459V613.488M1262 577.459H1298.03M1262 613.488V649.517M1262 613.488H1298.03M1262 649.517V685.545M1262 649.517H1298.03M1262 685.545H1298.03M1298.03 1V37.0287M1298.03 1H1334.06M1298.03 37.0287V73.0574M1298.03 37.0287H1334.06M1298.03 73.0574V109.086M1298.03 73.0574H1334.06M1298.03 109.086V145.115M1298.03 109.086H1334.06M1298.03 145.115V181.144M1298.03 145.115H1334.06M1298.03 181.144V217.172M1298.03 181.144H1334.06M1298.03 217.172V253.201M1298.03 217.172H1334.06M1298.03 253.201V289.23M1298.03 253.201H1334.06M1298.03 289.23V325.258M1298.03 289.23H1334.06M1298.03 325.258V361.287M1298.03 325.258H1334.06M1298.03 361.287V397.316M1298.03 361.287H1334.06M1298.03 397.316V433.345M1298.03 397.316H1334.06M1298.03 433.345V469.373M1298.03 433.345H1334.06M1298.03 469.373V505.402M1298.03 469.373H1334.06M1298.03 505.402V541.431M1298.03 505.402H1334.06M1298.03 541.431V577.459M1298.03 541.431H1334.06M1298.03 577.459V613.488M1298.03 577.459H1334.06M1298.03 613.488V649.517M1298.03 613.488H1334.06M1298.03 649.517V685.545M1298.03 649.517H1334.06M1298.03 685.545H1334.06M1334.06 1V37.0287M1334.06 1H1370.09M1334.06 37.0287V73.0574M1334.06 37.0287H1370.09M1334.06 73.0574V109.086M1334.06 73.0574H1370.09M1334.06 109.086V145.115M1334.06 109.086H1370.09M1334.06 145.115V181.144M1334.06 145.115H1370.09M1334.06 181.144V217.172M1334.06 181.144H1370.09M1334.06 217.172V253.201M1334.06 217.172H1370.09M1334.06 253.201V289.23M1334.06 253.201H1370.09M1334.06 289.23V325.258M1334.06 289.23H1370.09M1334.06 325.258V361.287M1334.06 325.258H1370.09M1334.06 361.287V397.316M1334.06 361.287H1370.09M1334.06 397.316V433.345M1334.06 397.316H1370.09M1334.06 433.345V469.373M1334.06 433.345H1370.09M1334.06 469.373V505.402M1334.06 469.373H1370.09M1334.06 505.402V541.431M1334.06 505.402H1370.09M1334.06 541.431V577.459M1334.06 541.431H1370.09M1334.06 577.459V613.488M1334.06 577.459H1370.09M1334.06 613.488V649.517M1334.06 613.488H1370.09M1334.06 649.517V685.545M1334.06 649.517H1370.09M1334.06 685.545H1370.09M1370.09 1V37.0287M1370.09 1H1406.12M1370.09 37.0287V73.0574M1370.09 37.0287H1406.12M1370.09 73.0574V109.086M1370.09 73.0574H1406.12M1370.09 109.086V145.115M1370.09 109.086H1406.12M1370.09 145.115V181.144M1370.09 145.115H1406.12M1370.09 181.144V217.172M1370.09 181.144H1406.12M1370.09 217.172V253.201M1370.09 217.172H1406.12M1370.09 253.201V289.23M1370.09 253.201H1406.12M1370.09 289.23V325.258M1370.09 289.23H1406.12M1370.09 325.258V361.287M1370.09 325.258H1406.12M1370.09 361.287V397.316M1370.09 361.287H1406.12M1370.09 397.316V433.345M1370.09 397.316H1406.12M1370.09 433.345V469.373M1370.09 433.345H1406.12M1370.09 469.373V505.402M1370.09 469.373H1406.12M1370.09 505.402V541.431M1370.09 505.402H1406.12M1370.09 541.431V577.459M1370.09 541.431H1406.12M1370.09 577.459V613.488M1370.09 577.459H1406.12M1370.09 613.488V649.517M1370.09 613.488H1406.12M1370.09 649.517V685.545M1370.09 649.517H1406.12M1370.09 685.545H1406.12M1406.12 1V37.0287M1406.12 1H1442.15M1406.12 37.0287V73.0574M1406.12 37.0287H1442.15M1406.12 73.0574V109.086M1406.12 73.0574H1442.15M1406.12 109.086V145.115M1406.12 109.086H1442.15M1406.12 145.115V181.144M1406.12 145.115H1442.15M1406.12 181.144V217.172M1406.12 181.144H1442.15M1406.12 217.172V253.201M1406.12 217.172H1442.15M1406.12 253.201V289.23M1406.12 253.201H1442.15M1406.12 289.23V325.258M1406.12 289.23H1442.15M1406.12 325.258V361.287M1406.12 325.258H1442.15M1406.12 361.287V397.316M1406.12 361.287H1442.15M1406.12 397.316V433.345M1406.12 397.316H1442.15M1406.12 433.345V469.373M1406.12 433.345H1442.15M1406.12 469.373V505.402M1406.12 469.373H1442.15M1406.12 505.402V541.431M1406.12 505.402H1442.15M1406.12 541.431V577.459M1406.12 541.431H1442.15M1406.12 577.459V613.488M1406.12 577.459H1442.15M1406.12 613.488V649.517M1406.12 613.488H1442.15M1406.12 649.517V685.545M1406.12 649.517H1442.15M1406.12 685.545H1442.15M1442.15 1V37.0287M1442.15 1H1478.18M1442.15 37.0287V73.0574M1442.15 37.0287H1478.18M1442.15 73.0574V109.086M1442.15 73.0574H1478.18M1442.15 109.086V145.115M1442.15 109.086H1478.18M1442.15 145.115V181.144M1442.15 145.115H1478.18M1442.15 181.144V217.172M1442.15 181.144H1478.18M1442.15 217.172V253.201M1442.15 217.172H1478.18M1442.15 253.201V289.23M1442.15 253.201H1478.18M1442.15 289.23V325.258M1442.15 289.23H1478.18M1442.15 325.258V361.287M1442.15 325.258H1478.18M1442.15 361.287V397.316M1442.15 361.287H1478.18M1442.15 397.316V433.345M1442.15 397.316H1478.18M1442.15 433.345V469.373M1442.15 433.345H1478.18M1442.15 469.373V505.402M1442.15 469.373H1478.18M1442.15 505.402V541.431M1442.15 505.402H1478.18M1442.15 541.431V577.459M1442.15 541.431H1478.18M1442.15 577.459V613.488M1442.15 577.459H1478.18M1442.15 613.488V649.517M1442.15 613.488H1478.18M1442.15 649.517V685.545M1442.15 649.517H1478.18M1442.15 685.545H1478.18M1478.18 1V37.0287M1478.18 1H1514.21M1478.18 37.0287V73.0574M1478.18 37.0287H1514.21M1478.18 73.0574V109.086M1478.18 73.0574H1514.21M1478.18 109.086V145.115M1478.18 109.086H1514.21M1478.18 145.115V181.144M1478.18 145.115H1514.21M1478.18 181.144V217.172M1478.18 181.144H1514.21M1478.18 217.172V253.201M1478.18 217.172H1514.21M1478.18 253.201V289.23M1478.18 253.201H1514.21M1478.18 289.23V325.258M1478.18 289.23H1514.21M1478.18 325.258V361.287M1478.18 325.258H1514.21M1478.18 361.287V397.316M1478.18 361.287H1514.21M1478.18 397.316V433.345M1478.18 397.316H1514.21M1478.18 433.345V469.373M1478.18 433.345H1514.21M1478.18 469.373V505.402M1478.18 469.373H1514.21M1478.18 505.402V541.431M1478.18 505.402H1514.21M1478.18 541.431V577.459M1478.18 541.431H1514.21M1478.18 577.459V613.488M1478.18 577.459H1514.21M1478.18 613.488V649.517M1478.18 613.488H1514.21M1478.18 649.517V685.545M1478.18 649.517H1514.21M1478.18 685.545H1514.21M1514.21 1V37.0287M1514.21 1H1550.23M1514.21 37.0287V73.0574M1514.21 37.0287H1550.23M1514.21 73.0574V109.086M1514.21 73.0574H1550.23M1514.21 109.086V145.115M1514.21 109.086H1550.23M1514.21 145.115V181.144M1514.21 145.115H1550.23M1514.21 181.144V217.172M1514.21 181.144H1550.23M1514.21 217.172V253.201M1514.21 217.172H1550.23M1514.21 253.201V289.23M1514.21 253.201H1550.23M1514.21 289.23V325.258M1514.21 289.23H1550.23M1514.21 325.258V361.287M1514.21 325.258H1550.23M1514.21 361.287V397.316M1514.21 361.287H1550.23M1514.21 397.316V433.345M1514.21 397.316H1550.23M1514.21 433.345V469.373M1514.21 433.345H1550.23M1514.21 469.373V505.402M1514.21 469.373H1550.23M1514.21 505.402V541.431M1514.21 505.402H1550.23M1514.21 541.431V577.459M1514.21 541.431H1550.23M1514.21 577.459V613.488M1514.21 577.459H1550.23M1514.21 613.488V649.517M1514.21 613.488H1550.23M1514.21 649.517V685.545M1514.21 649.517H1550.23M1514.21 685.545H1550.23M1550.23 1V37.0287M1550.23 1H1586.26V37.0287M1550.23 37.0287V73.0574M1550.23 37.0287H1586.26M1550.23 73.0574V109.086M1550.23 73.0574H1586.26M1550.23 109.086V145.115M1550.23 109.086H1586.26M1550.23 145.115V181.144M1550.23 145.115H1586.26M1550.23 181.144V217.172M1550.23 181.144H1586.26M1550.23 217.172V253.201M1550.23 217.172H1586.26M1550.23 253.201V289.23M1550.23 253.201H1586.26M1550.23 289.23V325.258M1550.23 289.23H1586.26M1550.23 325.258V361.287M1550.23 325.258H1586.26M1550.23 361.287V397.316M1550.23 361.287H1586.26M1550.23 397.316V433.345M1550.23 397.316H1586.26M1550.23 433.345V469.373M1550.23 433.345H1586.26M1550.23 469.373V505.402M1550.23 469.373H1586.26M1550.23 505.402V541.431M1550.23 505.402H1586.26M1550.23 541.431V577.459M1550.23 541.431H1586.26M1550.23 577.459V613.488M1550.23 577.459H1586.26M1550.23 613.488V649.517M1550.23 613.488H1586.26M1550.23 649.517V685.545M1550.23 649.517H1586.26M1550.23 685.545H1586.26V649.517M1586.26 37.0287V73.0574M1586.26 73.0574V109.086M1586.26 109.086V145.115M1586.26 145.115V181.144M1586.26 181.144V217.172M1586.26 217.172V253.201M1586.26 253.201V289.23M1586.26 289.23V325.258M1586.26 325.258V361.287M1586.26 361.287V397.316M1586.26 397.316V433.345M1586.26 433.345V469.373M1586.26 469.373V505.402M1586.26 505.402V541.431M1586.26 541.431V577.459M1586.26 577.459V613.488M1586.26 613.488V649.517" stroke="url(#paint0_linear_1702_3)" stroke-width="2"/>
</g>
<defs>
<linearGradient id="paint0_linear_1702_3" x1="-4.5" y1="339" x2="1029" y2="343" gradientUnits="userSpaceOnUse">
<stop stop-color="#ADADAD"/>
<stop offset="1" stop-color="white" stop-opacity="0"/>
</linearGradient>
</defs>
</svg>
