<svg width="7185" height="6967" viewBox="0 0 7185 6967" fill="none" xmlns="http://www.w3.org/2000/svg">
<path d="M3592.05 6966.39C5575.89 6966.39 7184.11 6037.88 7184.11 4892.51C7184.11 3747.14 5575.89 2818.63 3592.05 2818.63C1608.22 2818.63 0 3747.14 0 4892.51C0 6037.88 1608.22 6966.39 3592.05 6966.39Z" fill="#F0F0F0"/>
<path d="M864.13 5631.01L244.542 5274.11C209.629 5253.83 209.629 5221.21 244.542 5201.08L3848.64 3119.58C3868.23 3109.58 3889.91 3104.37 3911.91 3104.37C3933.91 3104.37 3955.59 3109.58 3975.18 3119.58L4594.77 3477.25C4629.68 3497.37 4629.68 3530.15 4594.77 3550.27L990.67 5631.01C971.056 5640.94 949.382 5646.11 927.4 5646.11C905.417 5646.11 883.743 5640.94 864.13 5631.01Z" fill="#E0E0E0"/>
<path d="M3527.41 5779.05L2039.27 4919.95L3898.95 3848.33L5385.26 4706.36L3527.41 5779.05Z" fill="#E0E0E0"/>
<path d="M5581.93 6162.18C5970.43 6162.18 6285.37 5980.34 6285.37 5756.03C6285.37 5531.72 5970.43 5349.88 5581.93 5349.88C5193.43 5349.88 4878.49 5531.72 4878.49 5756.03C4878.49 5980.34 5193.43 6162.18 5581.93 6162.18Z" fill="#E0E0E0"/>
<path d="M6525.8 5266.95C6602.02 5311.01 6602.02 5382.36 6525.8 5426.42C6449.57 5470.48 6325.92 5470.32 6249.7 5426.42C6173.47 5382.51 6173.47 5311.01 6249.7 5266.95C6325.92 5222.89 6449.57 5222.89 6525.8 5266.95Z" fill="#E0E0E0"/>
<path d="M3091.23 4993.44L3623.92 4685.47C3678.8 4653.76 3706.24 4612.29 3706.24 4570.67C3706.24 4529.05 3706.24 4496.58 3706.24 4496.58L3153.59 4184.95C3138.19 4174.94 3125.36 4161.44 3116.14 4145.55C3106.93 4129.66 3101.58 4111.82 3100.53 4093.48V3436.54L2170.54 3974.1V4630.74C2171.61 4649.07 2176.97 4666.9 2186.18 4682.79C2195.4 4698.68 2208.21 4712.18 2223.59 4722.21L2693.77 4992.98C2803.39 5056.86 2981.46 5056.86 3091.23 4993.44Z" fill="#204AD4"/>
<g opacity="0.6">
<path d="M3091.23 4993.44L3623.92 4685.47C3678.8 4653.76 3706.24 4612.29 3706.24 4570.67C3706.24 4529.05 3706.24 4496.58 3706.24 4496.58L3153.59 4184.95C3138.19 4174.94 3125.36 4161.44 3116.14 4145.55C3106.93 4129.66 3101.58 4111.82 3100.53 4093.48V3436.54L2170.54 3974.1V4630.74C2171.61 4649.07 2176.97 4666.9 2186.18 4682.79C2195.4 4698.68 2208.21 4712.18 2223.59 4722.21L2693.77 4992.98C2803.39 5056.86 2981.46 5056.86 3091.23 4993.44Z" fill="black"/>
</g>
<path opacity="0.3" d="M2393.89 4747.07V4820.85L2223.29 4722.52C2207.91 4712.5 2195.11 4698.99 2185.92 4683.1C2176.73 4667.21 2171.41 4649.37 2170.39 4631.04V3974.11L2347.54 3871.5C2351.2 3917.24 2355.32 3962.98 2358.98 4008.71L2234.57 4080.67V4593.69C2235.56 4612.05 2240.88 4629.91 2250.1 4645.81C2259.33 4661.71 2272.18 4675.2 2287.63 4685.17L2393.89 4747.07Z" fill="black"/>
<path d="M2234.57 4593.85C2235.62 4612.19 2240.97 4630.02 2250.18 4645.91C2259.4 4661.8 2272.23 4675.3 2287.63 4685.32L2693.47 4919.19C2803.24 4982.46 2981.31 4982.61 3091.23 4919.19L3624.83 4611.23C3734.76 4547.8 3734.76 4445.05 3624.83 4381.62L3218.84 4147.75C3203.43 4137.75 3190.6 4124.25 3181.38 4108.36C3172.16 4092.46 3166.82 4074.62 3165.78 4056.28V3543.11L2235.79 4080.67L2234.57 4593.85Z" fill="#204AD4"/>
<path opacity="0.3" d="M2234.57 4593.85C2235.62 4612.19 2240.97 4630.02 2250.18 4645.91C2259.4 4661.8 2272.23 4675.3 2287.63 4685.32L2693.47 4919.19C2803.24 4982.46 2981.31 4982.61 3091.23 4919.19L3624.83 4611.23C3734.76 4547.8 3734.76 4445.05 3624.83 4381.62L3218.84 4147.75C3203.43 4137.75 3190.6 4124.25 3181.38 4108.36C3172.16 4092.46 3166.82 4074.62 3165.78 4056.28V3543.11L2235.79 4080.67L2234.57 4593.85Z" fill="black"/>
<path opacity="0.5" d="M3326.02 4210.41L3218.08 4148.06C3202.67 4138.05 3189.84 4124.55 3180.62 4108.66C3171.4 4092.77 3166.06 4074.93 3165.02 4056.59V3543.11L2235.03 4080.67V4593.85C2236.08 4612.19 2241.43 4630.02 2250.64 4645.91C2259.86 4661.8 2272.69 4675.3 2288.08 4685.32L2394.8 4746.3L3326.02 4210.41Z" fill="black"/>
<path d="M3706.4 4496.58V4570.67C3706.4 4612.29 3678.8 4653.61 3624.07 4685.47L3090.47 4993.28C3032.07 5024.45 2966.85 5040.64 2900.66 5040.39V4966.6C2966.85 4966.85 3032.07 4950.67 3090.47 4919.49L3624.07 4611.38C3678.8 4579.97 3706.4 4538.35 3706.4 4496.58Z" fill="#204AD4"/>
<path opacity="0.5" d="M3706.4 4496.58V4570.67C3706.4 4612.29 3678.8 4653.61 3624.07 4685.47L3090.47 4993.28C3032.07 5024.45 2966.85 5040.64 2900.66 5040.39V4966.6C2966.85 4966.85 3032.07 4950.67 3090.47 4919.49L3624.07 4611.38C3678.8 4579.97 3706.4 4538.35 3706.4 4496.58Z" fill="black"/>
<path d="M740.792 5231.58C760.897 5241.29 783.002 5246.14 805.326 5245.74C827.649 5245.34 849.568 5239.71 869.314 5229.29L4467.31 3152.05C4486.61 3139.47 4502.66 3122.52 4514.19 3102.57C4525.71 3082.63 4532.37 3060.25 4533.63 3037.25V126.532C4532.77 104.247 4526.68 82.4778 4515.85 62.9844C4505.02 43.491 4489.75 26.821 4471.28 14.3231C4451.2 4.60175 4429.11 -0.243967 4406.8 0.179892C4384.5 0.603752 4362.6 6.28522 4342.91 16.7624L744.909 2093.85C725.631 2106.39 709.59 2123.32 698.091 2143.24C686.593 2163.17 679.964 2185.52 678.742 2208.49V5119.21C679.543 5141.5 685.577 5163.28 696.357 5182.8C707.136 5202.32 722.359 5219.03 740.792 5231.58Z" fill="#204AD4"/>
<path d="M869.315 5229.14L4467.31 3151.9C4486.62 3139.33 4502.68 3122.38 4514.2 3102.43C4525.73 3082.48 4532.38 3060.1 4533.63 3037.1V126.532C4533.63 84.3012 4503.9 67.0735 4467.31 88.2651L869.315 2165.5C850.014 2178.07 833.95 2195.02 822.427 2214.97C810.904 2234.92 804.247 2257.3 802.996 2280.3V5190.87C802.996 5233.1 832.725 5250.33 869.315 5229.14Z" fill="#204AD4"/>
<path opacity="0.5" d="M869.315 5229.14L4467.31 3151.9C4486.62 3139.33 4502.68 3122.38 4514.2 3102.43C4525.73 3082.48 4532.38 3060.1 4533.63 3037.1V126.532C4533.63 84.3012 4503.9 67.0735 4467.31 88.2651L869.315 2165.5C850.014 2178.07 833.95 2195.02 822.427 2214.97C810.904 2234.92 804.247 2257.3 802.996 2280.3V5190.87C802.996 5233.1 832.725 5250.33 869.315 5229.14Z" fill="black"/>
<path d="M859.557 5304.6C840.752 5312.77 820.406 5316.78 799.908 5316.36C779.411 5315.94 759.246 5311.1 740.793 5302.16C722.299 5289.59 707.028 5272.84 696.221 5253.27C685.413 5233.69 679.373 5211.84 678.59 5189.5V4924.68L802.843 4996.64V5261.61C802.843 5300.18 827.389 5317.71 859.557 5304.6Z" fill="#204AD4"/>
<path opacity="0.5" d="M859.557 5304.6C840.752 5312.77 820.406 5316.78 799.908 5316.36C779.411 5315.94 759.246 5311.1 740.793 5302.16C722.299 5289.59 707.028 5272.84 696.221 5253.27C685.413 5233.69 679.373 5211.84 678.59 5189.5V4924.68L802.843 4996.64V5261.61C802.843 5300.18 827.389 5317.71 859.557 5304.6Z" fill="black"/>
<path d="M802.844 4996.64V5261.61C802.844 5303.84 833.335 5320.92 869.163 5299.88L4467.16 3222.64C4486.46 3210.06 4502.51 3193.11 4514.03 3173.16C4525.56 3153.22 4532.22 3130.84 4533.48 3107.84V2842.26L802.844 4996.64Z" fill="#204AD4"/>
<path opacity="0.3" d="M802.996 4996.03V5261.61C802.996 5303.84 833.488 5320.92 869.315 5299.88L4467.31 3222.64C4486.61 3210.06 4502.66 3193.11 4514.19 3173.16C4525.71 3153.22 4532.37 3130.84 4533.63 3107.84V2842.26L802.996 4996.03Z" fill="black"/>
<path d="M927.248 4664.28V2321.46C927.981 2307.69 931.953 2294.29 938.841 2282.34C945.728 2270.39 955.337 2260.24 966.887 2252.71L4369.28 288.746C4391.24 276.092 4409.08 286.307 4409.08 311.615V2653.97C4408.34 2667.78 4404.35 2681.22 4397.43 2693.2C4390.52 2705.17 4380.87 2715.34 4369.28 2722.88L967.192 4687.15C945.086 4699.8 927.248 4689.44 927.248 4664.28Z" fill="#204AD4"/>
<path d="M927.248 4664.28V2321.46C927.981 2307.69 931.953 2294.29 938.841 2282.34C945.728 2270.39 955.337 2260.24 966.887 2252.71L4369.28 288.746C4391.24 276.092 4409.08 286.307 4409.08 311.615V2653.97C4408.34 2667.78 4404.35 2681.22 4397.43 2693.2C4390.52 2705.17 4380.87 2715.34 4369.28 2722.88L967.192 4687.15C945.086 4699.8 927.248 4689.44 927.248 4664.28Z" fill="#263238"/>
<path opacity="0.7" d="M822.51 2214.74C810.694 2234.6 803.941 2257.06 802.843 2280.15V4996.64L678.59 4924.68V2208.49C679.409 2185.38 686.127 2162.87 698.104 2143.09L822.51 2214.74Z" fill="black"/>
<path opacity="0.3" d="M4532.87 115.555C4528.14 81.4043 4500.55 69.0552 4467.16 88.1124L869.313 2165.5C849.806 2177.7 833.704 2194.64 822.509 2214.74L698.104 2142.94C709.373 2122.84 725.522 2105.9 745.06 2093.69L4343.06 16.6098C4362.78 6.13112 4384.7 0.449412 4407.03 0.0255898C4429.36 -0.398232 4451.47 4.44777 4471.58 14.1705C4488.46 25.7019 4502.66 40.7198 4513.23 58.2098C4523.8 75.6999 4530.5 95.2551 4532.87 115.555Z" fill="black"/>
<path d="M1205.18 2769.99C1196.08 2763.69 1188.59 2755.35 1183.29 2745.64C1178 2735.92 1175.05 2725.1 1174.69 2714.04V2456.24C1175.34 2444.78 1178.68 2433.64 1184.43 2423.71C1190.17 2413.79 1198.17 2405.34 1207.77 2399.07L4593.7 443.796C4603.23 437.795 4614.22 434.509 4625.49 434.293C4636.75 434.077 4647.86 436.938 4657.62 442.57C4667.37 448.201 4675.41 456.389 4680.86 466.25C4686.3 476.111 4688.96 487.271 4688.53 498.529V756.182C4687.97 767.641 4684.7 778.804 4678.97 788.745C4673.24 798.687 4665.23 807.122 4655.6 813.354L1269.06 2768.77C1259.26 2774 1248.36 2776.83 1237.26 2777.04C1226.16 2777.26 1215.17 2774.84 1205.18 2769.99Z" fill="#204AD4"/>
<path opacity="0.4" d="M4688.23 493.192C4685.94 476.117 4672.06 469.866 4655.6 479.471L1269.06 2434.89C1259.38 2441.09 1251.37 2449.57 1245.73 2459.59L1183.83 2423.15C1189.42 2413.1 1197.44 2404.61 1207.16 2398.46L4593.7 443.796C4602.79 437.808 4613.31 434.36 4624.18 433.809C4635.04 433.259 4645.86 435.627 4655.51 440.666C4665.15 445.706 4673.27 453.235 4679.02 462.471C4684.78 471.707 4687.95 482.314 4688.23 493.192Z" fill="white"/>
<path d="M1269.06 4866.13C1261.21 4870.88 1252.3 4873.61 1243.14 4874.06C1230.1 4875.72 1216.86 4873.38 1205.18 4867.35C1196.05 4861.08 1188.54 4852.74 1183.24 4843.02C1177.94 4833.3 1175.01 4822.47 1174.69 4811.4V2847.29L1236.74 2883.12V4847.23C1236.74 4862.48 1244.21 4870.86 1255.03 4870.86C1260.01 4870.41 1264.82 4868.79 1269.06 4866.13Z" fill="#F0F0F0"/>
<path opacity="0.1" d="M1245.73 2459.59C1239.81 2469.42 1236.5 2480.6 1236.13 2492.06V2883.12L1174.08 2847.29V2456.24C1174.08 2454.87 1174.08 2453.65 1174.08 2452.27C1174.36 2449.55 1174.82 2446.85 1175.45 2444.19C1177.15 2437.01 1179.93 2430.12 1183.68 2423.76L1245.73 2459.59Z" fill="black"/>
<path d="M4688.53 498.529V674.922L2259.88 2077.53C2241.74 2088.05 2226.95 2079.51 2226.95 2058.48V1991.7C2226.95 1970.66 2211.7 1962.12 2193.86 1972.64L1393 2435.05C1383.38 2441.3 1375.36 2449.73 1369.61 2459.67C1363.86 2469.6 1360.54 2480.76 1359.92 2492.22V2558.99C1359.29 2570.44 1355.98 2581.57 1350.26 2591.5C1344.54 2601.43 1336.57 2609.88 1326.99 2616.17L1235.52 2668.61V2492.06C1236.14 2480.62 1239.45 2469.49 1245.17 2459.56C1250.89 2449.63 1258.86 2441.18 1268.45 2434.89L4655.6 479.472C4673.74 468.952 4688.53 477.49 4688.53 498.529Z" fill="#204AD4"/>
<path d="M4688.53 2853.54C4687.94 2865.01 4684.64 2876.18 4678.92 2886.14C4673.2 2896.1 4665.21 2904.57 4655.6 2910.87L1269.06 4866.13C1250.92 4876.65 1236.13 4868.12 1236.13 4847.08V2668.46L1327.6 2616.01C1345.74 2605.49 1375.32 2445.41 1393.62 2434.89L2181.06 1980.11C2199.35 1969.59 2242.04 2087.9 2260.49 2077.38L4689.14 674.77V2853.39L4688.53 2853.54Z" fill="#FAFAFA"/>
<path d="M4673.28 701.297V2853.54C4672.7 2862.33 4670.12 2870.87 4665.73 2878.5C4661.35 2886.14 4655.27 2892.67 4647.97 2897.6L1261.43 4853.02C1259.33 4854.4 1256.92 4855.24 1254.42 4855.46C1251.37 4855.46 1251.37 4847.53 1251.37 4847.08V2677.15L1334.61 2629.12C1347.88 2621.5 1356.11 2595.89 1374.56 2529.87C1381.18 2501.62 1390.32 2474.02 1401.85 2447.39L2182.28 1996.27C2191.42 2008.93 2199.72 2022.17 2207.13 2035.91C2228.32 2073.26 2240.21 2092.78 2257.44 2092.78C2260.98 2092.79 2264.46 2091.84 2267.5 2090.03L4673.28 700.84M4688.53 674.922L2259.88 2077.53C2259.08 2077.76 2258.24 2077.76 2257.44 2077.53C2238.99 2077.53 2201.49 1979.04 2182.89 1979.04C2182.09 1978.84 2181.25 1978.84 2180.45 1979.04L1393 2433.83C1374.71 2444.34 1345.13 2604.43 1326.99 2614.94L1235.52 2667.39V4847.23C1235.52 4862.47 1242.99 4870.86 1253.81 4870.86C1259.21 4870.76 1264.49 4869.18 1269.06 4866.29L4655.6 2911.02C4665.21 2904.73 4673.2 2896.26 4678.92 2886.3C4684.64 2876.33 4687.93 2865.17 4688.53 2853.69V674.922Z" fill="#E0E0E0"/>
<path d="M1815.47 3621.01L2266.74 3360.46C2278.94 3353.45 2288.69 3359.09 2288.69 3373.12V4133.12C2288.3 4140.75 2286.1 4148.18 2282.29 4154.81C2278.47 4161.43 2273.15 4167.06 2266.74 4171.23L1815.47 4431.78C1803.27 4438.8 1793.51 4433 1793.51 4418.98V3659.13C1793.91 3651.49 1796.1 3644.06 1799.92 3637.44C1803.73 3630.81 1809.06 3625.19 1815.47 3621.01Z" fill="#F0F0F0"/>
<path d="M1897.94 3668.58L2184.26 3503.32C2196.3 3496.3 2206.21 3501.33 2206.21 3514.44C2205.67 3521.84 2203.4 3528.99 2199.59 3535.35C2195.77 3541.7 2190.52 3547.08 2184.26 3551.04L1897.94 3716.3C1885.9 3723.31 1875.99 3718.28 1875.99 3705.17C1876.55 3697.78 1878.82 3690.63 1882.63 3684.28C1886.45 3677.92 1891.69 3672.55 1897.94 3668.58Z" fill="#E0E0E0"/>
<path d="M1875.99 3791.92V3809.15C1875.99 3817.53 1881.94 3820.88 1889.25 3816.77L1904.5 3808.08C1908.38 3805.6 1911.6 3802.23 1913.91 3798.25C1916.22 3794.28 1917.54 3789.8 1917.76 3785.21V3768.13C1917.76 3759.6 1911.82 3756.24 1904.5 3760.51L1889.25 3769.05C1885.4 3771.55 1882.2 3774.93 1879.89 3778.9C1877.59 3782.87 1876.25 3787.33 1875.99 3791.92Z" fill="#204AD4"/>
<path d="M1958.17 3752.89C1958.17 3766 1968.08 3771.03 1980.27 3764.02L2183.96 3646.32C2190.21 3642.39 2195.45 3637.04 2199.26 3630.71C2203.08 3624.38 2205.35 3617.25 2205.91 3609.88C2205.91 3596.62 2196 3591.74 2183.96 3598.75L1980.27 3716.3C1973.96 3720.22 1968.67 3725.58 1964.83 3731.94C1960.99 3738.3 1958.7 3745.48 1958.17 3752.89Z" fill="#E0E0E0"/>
<path d="M1875.99 3886.75V3903.97C1875.99 3912.36 1881.94 3915.71 1889.25 3911.6L1904.5 3902.91C1908.36 3900.41 1911.57 3897.04 1913.88 3893.07C1916.18 3889.09 1917.51 3884.63 1917.76 3880.04V3862.96C1917.76 3854.43 1911.82 3851.07 1904.5 3855.34L1889.25 3863.88C1885.4 3866.38 1882.2 3869.76 1879.89 3873.73C1877.59 3877.7 1876.25 3882.16 1875.99 3886.75Z" fill="#204AD4"/>
<path d="M1958.17 3848.33C1958.17 3861.44 1968.08 3866.47 1980.27 3859.46L2183.96 3741.76C2190.21 3737.82 2195.45 3732.48 2199.26 3726.15C2203.08 3719.82 2205.35 3712.69 2205.91 3705.32C2205.91 3692.06 2196 3687.18 2183.96 3694.19L1980.27 3811.74C1973.96 3815.66 1968.67 3821.02 1964.83 3827.38C1960.99 3833.74 1958.7 3840.92 1958.17 3848.33Z" fill="#E0E0E0"/>
<path d="M1875.99 3982.64V3999.72C1875.99 4008.26 1881.94 4011.61 1889.25 4007.34L1904.5 3998.8C1908.35 3996.3 1911.56 3992.92 1913.86 3988.95C1916.16 3984.98 1917.5 3980.52 1917.76 3975.93V3958.71C1917.76 3950.32 1911.82 3946.97 1904.5 3951.08L1889.25 3959.77C1885.4 3962.27 1882.18 3965.64 1879.88 3969.62C1877.57 3973.59 1876.24 3978.05 1875.99 3982.64Z" fill="#204AD4"/>
<path d="M1958.17 3943.46C1958.17 3956.72 1968.08 3961.6 1980.27 3954.59L2183.96 3837.05C2190.21 3833.11 2195.45 3827.76 2199.26 3821.44C2203.08 3815.11 2205.35 3807.97 2205.91 3800.61C2205.91 3787.34 2196 3782.47 2183.96 3789.48L1980.27 3907.02C1973.98 3910.93 1968.7 3916.27 1964.86 3922.6C1961.02 3928.93 1958.73 3936.08 1958.17 3943.46Z" fill="#E0E0E0"/>
<path d="M1875.99 4077.78V4095C1875.99 4103.39 1881.94 4106.9 1889.25 4102.63L1904.5 4094.09C1908.35 4091.58 1911.56 4088.21 1913.86 4084.24C1916.16 4080.26 1917.5 4075.81 1917.76 4071.22V4054.45C1917.76 4046.06 1911.82 4042.56 1904.5 4046.83L1889.25 4055.36C1885.46 4057.82 1882.29 4061.13 1879.99 4065.01C1877.69 4068.9 1876.32 4073.27 1875.99 4077.78Z" fill="#204AD4"/>
<path d="M1958.17 4039.2C1958.17 4052.31 1968.08 4057.35 1980.27 4050.33L2184.26 3932.48C2190.52 3928.52 2195.76 3923.14 2199.57 3916.79C2203.38 3910.44 2205.66 3903.28 2206.21 3895.89C2206.21 3882.78 2196.3 3877.75 2184.26 3884.76L1980.58 4002.31C1974.19 4006.25 1968.83 4011.64 1964.93 4018.06C1961.03 4024.47 1958.72 4031.72 1958.17 4039.2Z" fill="#E0E0E0"/>
<path d="M1896.27 4193.95L2182.43 4028.68C2194.63 4021.67 2204.54 4026.55 2204.54 4039.81C2203.98 4047.2 2201.68 4054.34 2197.84 4060.68C2194 4067.01 2188.72 4072.34 2182.43 4076.25L1896.27 4241.52C1884.07 4248.53 1874.16 4243.65 1874.31 4230.39C1874.85 4223.01 1877.11 4215.87 1880.93 4209.54C1884.74 4203.21 1890 4197.87 1896.27 4193.95Z" fill="#E0E0E0"/>
<path d="M1874.16 4317.13V4334.36C1874.16 4342.75 1880.11 4346.25 1887.43 4341.98L1902.67 4333.45C1906.5 4330.93 1909.68 4327.56 1911.96 4323.58C1914.24 4319.61 1915.55 4315.15 1915.78 4310.58V4293.35C1915.78 4284.97 1909.84 4281.46 1902.67 4285.73L1887.43 4294.27C1883.58 4296.77 1880.37 4300.14 1878.07 4304.12C1875.76 4308.09 1874.42 4312.55 1874.16 4317.13Z" fill="#204AD4"/>
<path d="M1956.79 4278.11C1956.79 4291.22 1966.7 4296.25 1978.75 4289.23L2182.43 4171.69C2188.72 4167.75 2194 4162.38 2197.84 4156.03C2201.68 4149.67 2203.97 4142.5 2204.54 4135.1C2204.54 4121.99 2194.63 4116.96 2182.43 4123.97L1978.75 4241.52C1972.49 4245.48 1967.25 4250.86 1963.44 4257.21C1959.63 4263.56 1957.35 4270.72 1956.79 4278.11Z" fill="#E0E0E0"/>
<path d="M4533.78 608.908C4556.81 595.644 4575.41 606.468 4575.41 632.996C4574.64 647.425 4570.48 661.469 4563.24 673.977C4556.01 686.485 4545.91 697.101 4533.78 704.956C4510.92 718.067 4492.32 707.395 4492.32 680.868C4493.06 666.452 4497.21 652.417 4504.41 639.91C4511.62 627.403 4521.69 616.78 4533.78 608.908Z" fill="white"/>
<path d="M4384.22 695.351C4407.25 682.087 4425.84 692.759 4425.84 719.287C4425.18 733.821 4421.06 747.987 4413.82 760.609C4406.58 773.23 4396.43 783.942 4384.22 791.857C4361.36 805.121 4342.76 794.296 4342.76 767.921C4343.41 753.4 4347.51 739.243 4354.72 726.623C4361.93 714.003 4372.04 703.283 4384.22 695.351Z" fill="white"/>
<path d="M4264.11 846.566C4280.32 818.492 4280.34 788.157 4264.15 778.811C4247.96 769.464 4221.7 784.646 4205.49 812.72C4189.28 840.794 4189.26 871.129 4205.45 880.476C4221.64 889.822 4247.9 874.64 4264.11 846.566Z" fill="white"/>
<path d="M4688.53 674.922V889.582L1236.13 2883.12V2668.46L1303.97 2629.12C1322.11 2618.6 1328.21 2602.6 1336.9 2571.95L1359.92 2492.06C1367.24 2464.32 1375.17 2445.41 1393.01 2434.89L2180.45 1980.11C2198.74 1969.59 2213.08 1968.52 2226.19 1991.55L2254.39 2042.77C2264.76 2060.61 2269.64 2071.13 2288.08 2060.61L4688.53 674.922Z" fill="#E6E6E6"/>
<path d="M1236.13 2668.46V2883.12L1174.08 2847.29V2632.78L1236.13 2668.46Z" fill="#E0E0E0"/>
<path opacity="0.5" d="M1387.52 2683.86L1335.68 2714.35L1355.5 2676.39C1356.28 2674.96 1356.68 2673.36 1356.68 2671.74C1356.68 2670.11 1356.28 2668.51 1355.5 2667.09C1353.98 2665.26 1351.23 2667.09 1349.56 2669.98L1321.5 2723.95C1321.5 2723.95 1321.5 2725.17 1320.74 2725.93C1320.6 2726.84 1320.6 2727.77 1320.74 2728.68C1320.57 2729.48 1320.57 2730.31 1320.74 2731.12C1320.96 2731.55 1321.22 2731.95 1321.5 2732.34L1349.56 2753.83C1349.95 2754.13 1350.43 2754.29 1350.93 2754.29C1351.42 2754.29 1351.9 2754.13 1352.3 2753.83C1353.77 2752.9 1354.9 2751.51 1355.5 2749.87C1356.33 2748.54 1356.76 2747.01 1356.76 2745.45C1356.76 2743.89 1356.33 2742.36 1355.5 2741.03L1335.68 2725.78L1387.52 2695.29C1388.88 2694.26 1389.97 2692.92 1390.71 2691.38C1391.45 2689.84 1391.82 2688.15 1391.79 2686.45C1391.79 2684.31 1389.8 2682.33 1387.52 2683.86Z" fill="#455A64"/>
<path opacity="0.5" d="M1430.82 2658.85L1482.65 2628.36L1462.83 2613.12C1461.15 2611.9 1461 2607.93 1462.83 2604.27C1464.66 2600.61 1466.95 2599.09 1468.63 2600.31L1496.83 2621.96C1496.93 2622.31 1496.93 2622.68 1496.83 2623.03C1496.92 2623.78 1496.92 2624.55 1496.83 2625.31C1496.9 2626.28 1496.9 2627.24 1496.83 2628.21C1496.89 2628.87 1496.89 2629.53 1496.83 2630.19L1468.63 2684.31C1468.04 2685.63 1467.09 2686.74 1465.88 2687.51C1465.68 2687.72 1465.44 2687.88 1465.18 2687.99C1464.92 2688.1 1464.64 2688.16 1464.36 2688.16C1464.07 2688.16 1463.79 2688.1 1463.53 2687.99C1463.27 2687.88 1463.03 2687.72 1462.83 2687.51C1462.04 2686.09 1461.63 2684.49 1461.63 2682.86C1461.63 2681.24 1462.04 2679.64 1462.83 2678.21L1482.65 2640.25L1430.82 2670.74C1428.53 2672.12 1426.7 2670.74 1426.7 2666.78C1426.8 2665.25 1427.22 2663.75 1427.93 2662.39C1428.64 2661.02 1429.62 2659.82 1430.82 2658.85Z" fill="#455A64"/>
<path opacity="0.5" d="M1600.8 2509.6C1600.8 2506.55 1597.76 2507 1596.38 2510.36L1589.37 2527.74C1577.17 2526.37 1562.54 2538.26 1552.63 2559.15C1539.82 2586.28 1539.82 2618.45 1552.63 2630.8C1555.75 2633.71 1559.78 2635.44 1564.04 2635.7C1568.3 2635.95 1572.52 2634.7 1575.95 2632.17C1586.27 2625.24 1594.33 2615.43 1599.13 2603.97C1599.96 2602.59 1600.4 2601.01 1600.4 2599.39C1600.4 2597.78 1599.96 2596.2 1599.13 2594.82C1597.6 2593.3 1594.86 2594.82 1593.33 2598.33C1583.73 2618.6 1568.18 2627.6 1558.57 2618.3C1548.97 2609 1548.97 2585.06 1558.57 2564.79C1565.28 2550.46 1575.19 2541.92 1583.73 2541.31L1578.39 2554.42C1577.02 2557.77 1578.39 2560.97 1580.38 2559.6L1601.57 2545.73C1602.41 2545.04 1603.06 2544.14 1603.46 2543.13C1603.86 2542.12 1604 2541.02 1603.85 2539.94L1600.8 2509.6Z" fill="#455A64"/>
<path opacity="0.5" d="M2157.73 2078.14L2176.64 2038.2C2177.78 2036.31 2178.39 2034.15 2178.39 2031.95C2178.39 2029.74 2177.78 2027.58 2176.64 2025.7C2174.35 2023.56 2170.84 2025.7 2168.56 2030.42L2149.65 2070.37L2130.75 2052.22C2128.61 2050.09 2124.95 2052.22 2122.67 2056.8C2121.6 2058.71 2121.04 2060.86 2121.04 2063.05C2121.04 2065.24 2121.6 2067.39 2122.67 2069.3L2141.11 2087.75L2122.21 2127.84C2121.14 2129.72 2120.58 2131.85 2120.58 2134.02C2120.58 2136.18 2121.14 2138.31 2122.21 2140.19C2122.8 2140.65 2123.52 2140.9 2124.27 2140.9C2125.01 2140.9 2125.74 2140.65 2126.33 2140.19C2128.06 2138.95 2129.42 2137.26 2130.29 2135.31L2149.19 2095.22L2168.1 2113.51C2168.68 2114 2169.4 2114.26 2170.16 2114.26C2170.91 2114.26 2171.64 2114 2172.22 2113.51C2173.98 2112.3 2175.35 2110.61 2176.18 2108.63C2177.32 2106.75 2177.93 2104.59 2177.93 2102.38C2177.93 2100.18 2177.32 2098.02 2176.18 2096.13L2157.73 2078.14Z" fill="#455A64"/>
<path d="M1669.56 2558.84V2492.06C1670.18 2480.6 1673.51 2469.45 1679.25 2459.52C1685 2449.58 1693.02 2441.14 1702.65 2434.89L4469.9 837.595C4488.05 827.075 4502.83 835.613 4502.83 856.652V923.428C4502.21 934.871 4498.9 946.006 4493.18 955.936C4487.46 965.866 4479.49 974.314 4469.9 980.6L1702.65 2577.9C1683.74 2588.42 1669.56 2579.88 1669.56 2558.84Z" fill="#FAFAFA"/>
<path d="M4424.93 985.935C4423.97 986.11 4422.99 986.11 4422.03 985.935C4420.21 985.086 4418.72 983.647 4417.8 981.85C4416.89 980.053 4416.61 978.002 4417 976.026L4420.2 948.888L4407.55 939.741C4406.4 938.874 4405.48 937.741 4404.87 936.44C4404.26 935.138 4403.98 933.707 4404.04 932.27C4404.08 930.082 4404.59 927.928 4405.54 925.955C4406.49 923.982 4407.85 922.236 4409.53 920.836L4428.89 905.59C4429.27 905.156 4429.54 904.631 4429.66 904.066L4438.35 875.556C4438.9 873.247 4440.13 871.151 4441.86 869.526C4443.59 867.9 4445.76 866.817 4448.1 866.409C4449.69 866.278 4451.28 866.649 4452.65 867.469C4454.02 868.29 4455.09 869.518 4455.73 870.982L4463.04 886.228L4479.36 879.977C4480.86 879.364 4482.51 879.226 4484.09 879.58C4485.67 879.935 4487.1 880.765 4488.2 881.959C4489.49 883.958 4490.18 886.287 4490.18 888.667C4490.18 891.048 4489.49 893.377 4488.2 895.375L4474.17 921.598C4474.17 921.598 4474.17 923.123 4474.17 923.275L4477.37 947.059C4477.73 949.283 4477.58 951.558 4476.95 953.72C4476.32 955.881 4475.21 957.876 4473.72 959.56C4472.76 960.618 4471.58 961.443 4470.26 961.971C4468.94 962.5 4467.51 962.718 4466.09 962.609L4450.85 960.627L4433.77 982.429C4432.72 983.719 4431.36 984.719 4429.81 985.333C4428.26 985.946 4426.58 986.154 4424.93 985.935ZM4415.63 930.746L4428.28 939.893C4429.6 940.99 4430.6 942.413 4431.18 944.018C4431.77 945.624 4431.93 947.356 4431.64 949.041L4429.5 967.031L4440.94 952.547C4441.9 951.152 4443.2 950.027 4444.73 949.279C4446.25 948.532 4447.94 948.187 4449.63 948.278L4464.87 950.26C4464.98 949.655 4464.98 949.036 4464.87 948.431L4461.52 924.647C4461.24 921.699 4461.82 918.732 4463.2 916.11L4475.55 893.089L4462.89 897.967C4461.01 898.732 4458.9 898.729 4457.02 897.96C4455.14 897.191 4453.64 895.716 4452.83 893.851L4447.19 881.807L4439.41 907.115C4438.56 909.907 4436.92 912.394 4434.69 914.28L4415.17 929.526C4415.25 929.957 4415.4 930.371 4415.63 930.746Z" fill="#E0E0E0"/>
<g opacity="0.5">
<path d="M4541.71 829.666C4539.2 829.652 4536.76 828.811 4534.77 827.272C4532.79 825.733 4531.36 823.583 4530.72 821.154C4530.08 818.724 4530.26 816.151 4531.22 813.831C4532.19 811.512 4533.89 809.576 4536.07 808.322L4628.92 754.657C4631.55 753.141 4634.67 752.731 4637.6 753.517C4640.53 754.303 4643.03 756.221 4644.55 758.85C4646.06 761.478 4646.47 764.601 4645.69 767.531C4644.9 770.462 4642.98 772.96 4640.35 774.476L4547.51 828.141C4545.74 829.156 4543.75 829.682 4541.71 829.666Z" fill="#455A64"/>
<path d="M4541.71 883.331C4539.2 883.317 4536.76 882.476 4534.77 880.937C4532.79 879.398 4531.36 877.248 4530.72 874.818C4530.08 872.389 4530.26 869.816 4531.22 867.496C4532.19 865.177 4533.89 863.241 4536.07 861.987L4628.92 808.322C4631.55 806.806 4634.67 806.396 4637.6 807.182C4640.53 807.968 4643.03 809.886 4644.55 812.515C4646.06 815.143 4646.47 818.266 4645.69 821.196C4644.9 824.127 4642.98 826.625 4640.35 828.141L4547.51 881.807C4545.72 882.755 4543.74 883.277 4541.71 883.331Z" fill="#455A64"/>
<path d="M4541.71 936.996C4539.2 936.982 4536.76 936.141 4534.77 934.602C4532.79 933.063 4531.36 930.913 4530.72 928.484C4530.08 926.054 4530.26 923.481 4531.22 921.161C4532.19 918.842 4533.89 916.906 4536.07 915.652L4628.92 861.987C4631.49 860.542 4634.53 860.163 4637.38 860.933C4640.23 861.703 4642.67 863.559 4644.16 866.103C4645.57 868.686 4645.93 871.712 4645.16 874.551C4644.39 877.39 4642.56 879.825 4640.05 881.349L4547.2 934.862C4545.59 936.034 4543.7 936.769 4541.71 936.996Z" fill="#455A64"/>
</g>
<path d="M1236.13 2883.12L1235.97 3097.47L4688.22 1104.39L4688.53 889.582L1236.13 2883.12Z" fill="#455A64"/>
<path d="M1622.76 2746.36V2787.83C1622.76 2796.37 1628.71 2799.72 1636.02 2795.45L2154.38 2495.88V2423.15L1636.02 2722.73C1632.09 2725.33 1628.83 2728.83 1626.53 2732.94C1624.22 2737.05 1622.93 2741.65 1622.76 2746.36Z" fill="#FAFAFA"/>
<path d="M2224.97 2383.06C2232.44 2378.79 2238.38 2382.3 2238.38 2390.83V2432.3C2238.14 2436.93 2236.8 2441.43 2234.46 2445.44C2232.13 2449.44 2228.87 2452.83 2224.97 2455.32L2154.84 2495.88V2423.15L2224.97 2383.06Z" fill="#204AD4"/>
<path d="M2219.78 2439.92L2212.01 2437.48C2212.78 2434.19 2213.19 2430.81 2213.23 2427.42C2213.58 2424.27 2213.1 2421.08 2211.84 2418.17C2210.59 2415.25 2208.59 2412.72 2206.06 2410.8C2204.36 2409.77 2202.41 2409.22 2200.42 2409.22C2198.43 2409.22 2196.48 2409.77 2194.78 2410.8C2189.87 2414.65 2185.94 2419.59 2183.29 2425.23C2180.64 2430.87 2179.35 2437.05 2179.53 2443.28C2179.16 2446.46 2179.62 2449.68 2180.88 2452.62C2182.13 2455.56 2184.14 2458.12 2186.7 2460.05C2188.22 2460.96 2189.96 2461.44 2191.73 2461.42C2194.01 2461.38 2196.23 2460.69 2198.13 2459.44C2204.05 2455.29 2208.48 2449.36 2210.79 2442.52L2218.56 2444.96H2219.48C2220.08 2444.95 2220.68 2444.76 2221.17 2444.41C2221.66 2444.05 2222.03 2443.55 2222.22 2442.97C2222.24 2442.26 2222 2441.56 2221.55 2441.01C2221.11 2440.45 2220.48 2440.07 2219.78 2439.92ZM2194.78 2455.17C2193.94 2455.71 2192.96 2456 2191.96 2456C2190.96 2456 2189.98 2455.71 2189.14 2455.17C2187.55 2453.69 2186.33 2451.85 2185.59 2449.81C2184.85 2447.77 2184.6 2445.59 2184.87 2443.43C2184.78 2438.19 2185.89 2432.99 2188.11 2428.23C2190.33 2423.48 2193.6 2419.29 2197.68 2415.99C2198.72 2415.31 2199.94 2414.94 2201.18 2414.92C2201.83 2414.77 2202.51 2414.77 2203.16 2414.92C2204.77 2416.39 2206 2418.22 2206.75 2420.26C2207.49 2422.31 2207.73 2424.5 2207.43 2426.66C2207.64 2432.02 2206.61 2437.35 2204.41 2442.25C2202.22 2447.14 2198.92 2451.46 2194.78 2454.87V2455.17Z" fill="#FAFAFA"/>
<path d="M1532.35 2783.41L1496.98 2804.3C1493.13 2806.8 1489.92 2810.18 1487.62 2814.15C1485.32 2818.12 1483.98 2822.58 1483.72 2827.17V2868.18C1483.72 2876.72 1489.66 2880.07 1496.98 2875.8L1532.35 2855.37C1536.21 2852.88 1539.42 2849.5 1541.73 2845.53C1544.03 2841.55 1545.36 2837.09 1545.61 2832.5V2791.49C1545.61 2782.65 1539.67 2779.14 1532.35 2783.41Z" fill="#FAFAFA"/>
<path d="M2761.62 2056.19C2747.85 2065.19 2736.4 2077.3 2728.19 2091.55C2719.98 2105.8 2715.24 2121.79 2714.36 2138.21C2714.36 2168.7 2735.55 2180.59 2761.62 2165.5C2775.38 2156.5 2786.83 2144.38 2795.04 2130.13C2803.25 2115.88 2807.99 2099.9 2808.88 2083.48C2808.88 2053.44 2787.69 2041.09 2761.62 2056.19Z" fill="#204AD4"/>
<path d="M2756.13 2104.36C2754.64 2104.4 2753.16 2104.03 2751.86 2103.3C2750.32 2102.27 2749.09 2100.86 2748.29 2099.19C2747.48 2097.53 2747.14 2095.69 2747.29 2093.85C2747.51 2089.5 2748.75 2085.28 2750.93 2081.51C2753.1 2077.75 2756.14 2074.56 2759.79 2072.2C2761.39 2071.27 2763.2 2070.79 2765.05 2070.79C2766.89 2070.79 2768.71 2071.27 2770.31 2072.2C2771.84 2073.22 2773.07 2074.64 2773.88 2076.3C2774.68 2077.96 2775.03 2079.81 2774.88 2081.65C2774.66 2085.99 2773.41 2090.22 2771.24 2093.98C2769.06 2097.74 2766.03 2100.94 2762.38 2103.3C2760.42 2104.18 2758.27 2104.55 2756.13 2104.36Z" fill="white"/>
<path d="M2780.37 2107.57C2777.72 2106.24 2774.77 2105.66 2771.82 2105.87C2768.87 2106.09 2766.03 2107.09 2763.6 2108.79L2756.74 2112.75C2750.48 2116.72 2745.28 2122.16 2741.59 2128.58C2737.9 2135.01 2735.83 2142.24 2735.55 2149.64V2154.52C2739.76 2156.35 2744.38 2157.05 2748.94 2156.57C2753.51 2156.09 2757.88 2154.44 2761.62 2151.78C2772.48 2144.97 2781.44 2135.53 2787.69 2124.34V2123.12C2787.97 2120.11 2787.44 2117.08 2786.15 2114.34C2784.86 2111.61 2782.87 2109.27 2780.37 2107.57Z" fill="white"/>
<path d="M2869.86 2019.6L3193.83 1832.38C3206.95 1824.91 3217.62 1830.55 3217.62 1845.34C3217.12 1853.45 3214.7 1861.33 3210.57 1868.33C3206.43 1875.32 3200.7 1881.24 3193.83 1885.59L2869.86 2072.5C2856.75 2080.12 2846.08 2074.33 2846.08 2059.69C2846.61 2051.61 2849.04 2043.77 2853.18 2036.8C2857.31 2029.84 2863.02 2023.94 2869.86 2019.6Z" fill="#E0E0E0"/>
<path d="M3364.44 1734.35L3565.53 1617.26C3578.64 1609.64 3589.16 1615.43 3589.31 1630.07C3588.78 1638.17 3586.35 1646.04 3582.21 1653.03C3578.08 1660.02 3572.37 1665.94 3565.53 1670.32L3364.44 1787.56C3351.32 1795.03 3340.65 1789.39 3340.65 1774.6C3341.19 1766.5 3343.62 1758.63 3347.75 1751.64C3351.88 1744.65 3357.6 1738.73 3364.44 1734.35Z" fill="#E0E0E0"/>
<path d="M3736.43 1520.6L3875.17 1440.11C3888.28 1432.48 3898.95 1438.28 3898.95 1452.91C3898.44 1461.02 3896.02 1468.9 3891.89 1475.89C3887.75 1482.88 3882.02 1488.8 3875.17 1493.16L3736.43 1573.81C3723.32 1581.28 3712.65 1575.64 3712.65 1561.01C3713.16 1552.88 3715.58 1544.98 3719.71 1537.96C3723.84 1530.94 3729.57 1525 3736.43 1520.6Z" fill="#E0E0E0"/>
<path d="M3279.67 1851.89C3278.13 1851.89 3276.66 1851.28 3275.57 1850.2C3274.49 1849.11 3273.88 1847.64 3273.88 1846.1V1774.6C3274.1 1773.24 3274.79 1772.01 3275.84 1771.12C3276.89 1770.23 3278.22 1769.74 3279.59 1769.74C3280.97 1769.74 3282.3 1770.23 3283.34 1771.12C3284.39 1772.01 3285.09 1773.24 3285.31 1774.6V1846.1C3285.31 1847.61 3284.72 1849.06 3283.67 1850.15C3282.61 1851.23 3281.18 1851.86 3279.67 1851.89Z" fill="#263238"/>
<path d="M3651.21 1637.39C3649.67 1637.39 3648.2 1636.78 3647.11 1635.69C3646.02 1634.6 3645.41 1633.13 3645.41 1631.59V1560.09C3645.64 1558.73 3646.33 1557.5 3647.38 1556.61C3648.43 1555.72 3649.76 1555.23 3651.13 1555.23C3652.51 1555.23 3653.83 1555.72 3654.88 1556.61C3655.93 1557.5 3656.63 1558.73 3656.85 1560.09V1631.59C3656.85 1633.1 3656.26 1634.56 3655.21 1635.64C3654.15 1636.72 3652.72 1637.35 3651.21 1637.39Z" fill="#263238"/>
<path d="M3960.85 1458.55C3959.34 1458.55 3957.89 1457.97 3956.81 1456.91C3955.72 1455.86 3955.1 1454.42 3955.06 1452.91V1381.41C3954.92 1380.58 3954.97 1379.73 3955.19 1378.92C3955.42 1378.11 3955.81 1377.36 3956.36 1376.72C3956.9 1376.08 3957.58 1375.57 3958.34 1375.22C3959.1 1374.86 3959.93 1374.68 3960.77 1374.68C3961.61 1374.68 3962.44 1374.86 3963.21 1375.22C3963.97 1375.57 3964.65 1376.08 3965.19 1376.72C3965.73 1377.36 3966.13 1378.11 3966.36 1378.92C3966.58 1379.73 3966.63 1380.58 3966.49 1381.41V1452.91C3966.45 1454.4 3965.85 1455.81 3964.8 1456.86C3963.75 1457.91 3962.33 1458.52 3960.85 1458.55Z" fill="#263238"/>
<path d="M4079.92 1348.33V1335.22C4079.92 1319.97 4070.77 1313.26 4059.49 1319.97C4053.32 1324.43 4048.27 1330.26 4044.75 1337.01C4041.23 1343.76 4039.34 1351.24 4039.21 1358.85V1371.2C4038.97 1379.34 4036.6 1387.27 4032.35 1394.22C4031.28 1396.02 4030.71 1398.07 4030.67 1400.16C4030.67 1403.97 4032.96 1405.65 4035.7 1404.13L4083.42 1376.68C4084.96 1375.52 4086.21 1374.03 4087.09 1372.31C4087.96 1370.59 4088.43 1368.7 4088.46 1366.78C4088.51 1366.04 4088.39 1365.31 4088.13 1364.62C4087.87 1363.94 4087.46 1363.32 4086.93 1362.81C4084.42 1361.41 4082.4 1359.27 4081.14 1356.68C4079.89 1354.08 4079.46 1351.17 4079.92 1348.33Z" fill="#204AD4"/>
<path d="M4069.4 1387.97C4069.32 1391.65 4068.39 1395.26 4066.67 1398.52C4064.95 1401.77 4062.49 1404.58 4059.49 1406.72C4054.15 1409.77 4049.73 1406.72 4049.73 1399.25L4069.4 1387.97Z" fill="#204AD4"/>
<path d="M4166.97 1290.7C4165.32 1290.69 4163.7 1290.27 4162.25 1289.48C4160.51 1288.32 4159.12 1286.72 4158.21 1284.85C4157.3 1282.97 4156.9 1280.89 4157.06 1278.81C4157.27 1273.91 4158.65 1269.14 4161.09 1264.89C4163.54 1260.65 4166.96 1257.05 4171.09 1254.41C4172.82 1253.24 4174.83 1252.54 4176.91 1252.38C4179 1252.22 4181.09 1252.61 4182.98 1253.5C4184.71 1254.66 4186.11 1256.26 4187.02 1258.13C4187.93 1260.01 4188.33 1262.09 4188.16 1264.17C4187.96 1269.06 4186.57 1273.84 4184.13 1278.08C4181.69 1282.33 4178.26 1285.92 4174.14 1288.56C4171.96 1289.86 4169.5 1290.59 4166.97 1290.7Z" fill="#204AD4"/>
<path d="M4194.26 1294.97C4191.29 1293.52 4187.97 1292.89 4184.68 1293.16C4181.38 1293.43 4178.21 1294.58 4175.51 1296.49L4167.73 1300.91C4160.72 1305.44 4154.89 1311.58 4150.72 1318.82C4146.56 1326.06 4144.18 1334.19 4143.8 1342.53V1348.02C4148.56 1350.05 4153.76 1350.84 4158.9 1350.31C4164.05 1349.77 4168.98 1347.94 4173.22 1344.97C4185.39 1337.38 4195.49 1326.91 4202.65 1314.48V1313.11C4203.01 1309.61 4202.43 1306.08 4200.95 1302.88C4199.48 1299.69 4197.16 1296.95 4194.26 1294.97Z" fill="#204AD4"/>
<path d="M4204.78 1255.33C4203.12 1255.4 4201.48 1254.97 4200.06 1254.11C4198.3 1252.97 4196.89 1251.38 4195.97 1249.5C4195.06 1247.62 4194.68 1245.52 4194.87 1243.44C4195.08 1238.54 4196.46 1233.77 4198.9 1229.52C4201.34 1225.28 4204.77 1221.68 4208.9 1219.04C4210.56 1217.73 4212.58 1216.94 4214.7 1216.79C4216.81 1216.64 4218.92 1217.14 4220.75 1218.21C4222.58 1219.28 4224.04 1220.88 4224.95 1222.8C4225.85 1224.71 4226.16 1226.86 4225.82 1228.95C4225.59 1233.82 4224.2 1238.56 4221.76 1242.78C4219.32 1247 4215.9 1250.57 4211.8 1253.19C4209.7 1254.55 4207.27 1255.29 4204.78 1255.33Z" fill="#204AD4"/>
<path d="M4232.07 1258.99C4229.09 1257.5 4225.76 1256.84 4222.43 1257.08C4219.11 1257.33 4215.91 1258.46 4213.17 1260.36L4205.54 1264.93C4196.71 1270.39 4189.83 1278.5 4185.88 1288.11C4188.43 1286.72 4191.28 1285.99 4194.19 1285.99C4197.09 1285.99 4199.95 1286.72 4202.49 1288.11C4205.34 1290.04 4207.61 1292.7 4209.09 1295.81C4210.56 1298.92 4211.18 1302.36 4210.88 1305.79V1309.15C4223.17 1301.66 4233.35 1291.17 4240.46 1278.65V1277.28C4240.87 1273.76 4240.31 1270.19 4238.83 1266.96C4237.35 1263.73 4235.01 1260.97 4232.07 1258.99Z" fill="#204AD4"/>
<path d="M4326.29 1161.41C4314.96 1168.79 4305.53 1178.74 4298.78 1190.45C4292.02 1202.16 4288.13 1215.3 4287.41 1228.8C4287.11 1233.04 4287.74 1237.29 4289.24 1241.26C4290.74 1245.24 4293.08 1248.84 4296.1 1251.82L4291.22 1274.84C4291.22 1277.74 4292.6 1278.96 4294.43 1276.82L4311.96 1256.4C4317.01 1255.64 4321.87 1253.93 4326.29 1251.36C4337.58 1243.96 4346.97 1234 4353.7 1222.3C4360.43 1210.59 4364.3 1197.46 4365.01 1183.98C4365.01 1159.13 4347.63 1149.06 4326.29 1161.41Z" fill="#204AD4"/>
<path d="M4512.75 1052.86C4515.63 1050.99 4518.93 1049.84 4522.35 1049.51C4525.02 1049.15 4527.74 1049.63 4530.13 1050.88C4532.46 1052.31 4534.28 1054.45 4535.31 1056.98C4536.76 1060.29 4537.43 1063.89 4537.29 1067.5C4537.34 1070.68 4536.98 1073.86 4536.22 1076.95C4535.47 1079.85 4534.55 1082.7 4533.48 1085.49C4532.26 1088.08 4531.04 1090.67 4529.67 1093.11C4528.3 1095.55 4527.08 1097.84 4525.86 1100.13C4524.64 1102.41 4523.42 1104.85 4522.5 1107.14C4521.52 1109.33 4520.8 1111.63 4520.37 1114C4520.19 1115.08 4519.93 1116.15 4519.61 1117.2C4519.27 1118.02 4518.68 1118.71 4517.93 1119.18L4506.95 1125.59C4506.7 1125.81 4506.38 1125.94 4506.04 1125.94C4505.7 1125.94 4505.37 1125.81 4505.12 1125.59C4504.58 1124.95 4504.31 1124.13 4504.36 1123.3C4504.38 1120.31 4504.79 1117.34 4505.58 1114.46C4506.44 1111.56 4507.45 1108.71 4508.63 1105.92C4509.85 1103.33 4511.22 1100.58 4512.59 1098.14C4513.97 1095.7 4515.34 1093.27 4516.56 1090.98C4517.73 1088.92 4518.75 1086.78 4519.61 1084.58C4520.41 1082.7 4520.82 1080.67 4520.83 1078.63C4520.83 1075.89 4520.83 1074.21 4518.84 1073.45C4516.86 1072.68 4515.49 1073.45 4512.75 1074.67C4510.37 1075.95 4508.34 1077.78 4506.8 1080C4505.72 1081.77 4504.85 1083.67 4504.21 1085.64C4504.21 1087.47 4503.14 1089.15 4502.84 1090.52C4502.48 1091.87 4501.67 1093.05 4500.55 1093.88L4489.42 1100.28C4489.2 1100.45 4488.93 1100.55 4488.66 1100.55C4488.38 1100.55 4488.11 1100.45 4487.9 1100.28C4487.67 1099.69 4487.67 1099.04 4487.9 1098.45C4488 1094.59 4488.57 1090.75 4489.57 1087.01C4490.85 1082.6 4492.53 1078.31 4494.6 1074.21C4496.81 1069.93 4499.47 1065.89 4502.53 1062.16C4505.33 1058.46 4508.8 1055.31 4512.75 1052.86ZM4520.67 1144.34C4520.64 1145.4 4520.38 1146.44 4519.91 1147.39C4519.56 1148.24 4518.98 1148.98 4518.23 1149.52L4506.65 1156.08C4506.42 1156.29 4506.12 1156.41 4505.81 1156.41C4505.5 1156.41 4505.2 1156.29 4504.97 1156.08C4504.43 1155.44 4504.15 1154.62 4504.21 1153.79V1139.61C4504.24 1138.55 4504.5 1137.51 4504.97 1136.56C4505.27 1135.68 4505.86 1134.93 4506.65 1134.43L4518.23 1127.72C4518.47 1127.54 4518.77 1127.44 4519.07 1127.44C4519.38 1127.44 4519.67 1127.54 4519.91 1127.72C4520.45 1128.35 4520.73 1129.18 4520.67 1130.01V1144.34Z" fill="#204AD4"/>
<path d="M1793.36 2885.41V3524.2C1793.36 3545.24 1808.61 3553.78 1826.44 3543.26L4098.06 2231.21C4107.64 2224.92 4115.62 2216.48 4121.34 2206.55C4127.06 2196.62 4130.36 2185.48 4130.99 2174.04V1535.39C4130.99 1514.35 4115.75 1505.82 4098.06 1516.34L1826.44 2828.23C1816.82 2834.48 1808.8 2842.92 1803.05 2852.86C1797.3 2862.79 1793.98 2873.94 1793.36 2885.41Z" fill="#204AD4"/>
<path opacity="0.7" d="M1793.36 2885.41V3524.2C1793.36 3545.24 1808.61 3553.78 1826.44 3543.26L4098.06 2231.21C4107.64 2224.92 4115.62 2216.48 4121.34 2206.55C4127.06 2196.62 4130.36 2185.48 4130.99 2174.04V1535.39C4130.99 1514.35 4115.75 1505.82 4098.06 1516.34L1826.44 2828.23C1816.82 2834.48 1808.8 2842.92 1803.05 2852.86C1797.3 2862.79 1793.98 2873.94 1793.36 2885.41Z" fill="white"/>
<path d="M1979.21 2978.4C1910.75 3018.04 1855.26 3114.09 1855.26 3193.06C1855.26 3272.04 1910.75 3304.05 1979.21 3264.57C2047.66 3225.08 2103.15 3129.03 2103 3049.91C2102.85 2970.78 2047.51 2938.92 1979.21 2978.4Z" fill="#204AD4"/>
<path d="M1964.72 3104.49C1960.87 3104.54 1957.07 3103.54 1953.74 3101.59C1949.7 3098.91 1946.46 3095.18 1944.36 3090.81C1942.27 3086.43 1941.4 3081.57 1941.85 3076.74C1942.37 3065.43 1945.58 3054.4 1951.23 3044.59C1956.88 3034.77 1964.8 3026.46 1974.33 3020.33C1978.15 3017.22 1982.84 3015.34 1987.76 3014.94C1992.68 3014.54 1997.6 3015.65 2001.88 3018.11C2006.16 3020.57 2009.59 3024.27 2011.72 3028.73C2013.85 3033.18 2014.58 3038.17 2013.81 3043.05C2013.27 3054.37 2010.02 3065.4 2004.35 3075.21C1998.67 3085.03 1990.73 3093.34 1981.19 3099.46C1976.24 3102.56 1970.56 3104.29 1964.72 3104.49Z" fill="white"/>
<path d="M2028.14 3112.72C2021.25 3109.29 2013.56 3107.8 2005.88 3108.39C1998.2 3108.98 1990.83 3111.63 1984.54 3116.07L1966.55 3126.44C1950.25 3136.93 1936.69 3151.16 1926.98 3167.95C1917.28 3184.73 1911.71 3203.58 1910.75 3222.95V3235.75C1928.44 3245.51 1952.53 3243.83 1979.21 3228.43C2007.67 3210.71 2031.17 3186.06 2047.51 3156.78V3153.73C2048.12 3145.8 2046.66 3137.85 2043.27 3130.66C2039.87 3123.46 2034.66 3117.28 2028.14 3112.72Z" fill="white"/>
<path d="M2188.68 2952.33L2451.06 2800.94C2464.17 2793.32 2474.84 2798.2 2474.84 2811.62C2474.13 2819.38 2471.6 2826.88 2467.47 2833.49C2463.34 2840.11 2457.72 2845.67 2451.06 2849.73L2188.68 3001.12C2175.57 3008.74 2164.9 3004.02 2164.9 2990.45C2165.62 2982.68 2168.14 2975.19 2172.27 2968.57C2176.4 2961.95 2182.02 2956.39 2188.68 2952.33Z" fill="#455A64"/>
<path d="M2178.92 3053.87L2333.21 2964.84C2340.83 2960.26 2347.09 2963.16 2347.09 2971.09C2346.66 2975.64 2345.19 2980.03 2342.78 2983.92C2340.38 2987.81 2337.1 2991.09 2333.21 2993.5L2178.92 3082.53C2171.15 3086.95 2164.9 3084.21 2164.9 3076.28C2165.3 3071.7 2166.78 3067.29 2169.22 3063.39C2171.66 3059.5 2174.98 3056.23 2178.92 3053.87Z" fill="#455A64"/>
<path d="M1826.44 3544.02L4098.06 2232.89C4107.64 2226.6 4115.62 2218.15 4121.34 2208.22C4127.06 2198.29 4130.36 2187.16 4130.99 2175.72V2070.98L1793.36 3420.07V3524.96C1793.36 3546 1808.15 3554.54 1826.44 3544.02Z" fill="#F5F5F5"/>
<path d="M2412.64 3174.62C2411.89 3174.64 2411.15 3174.51 2410.46 3174.23C2409.76 3173.95 2409.13 3173.54 2408.61 3173.01C2408.08 3172.48 2407.66 3171.85 2407.39 3171.16C2407.11 3170.46 2406.98 3169.72 2407 3168.98V3097.47C2406.98 3096.72 2407.11 3095.97 2407.39 3095.27C2407.66 3094.57 2408.07 3093.93 2408.6 3093.39C2409.12 3092.85 2409.75 3092.42 2410.45 3092.12C2411.14 3091.83 2411.89 3091.68 2412.64 3091.68C2414.18 3091.68 2415.65 3092.29 2416.74 3093.38C2417.82 3094.46 2418.43 3095.94 2418.43 3097.47V3168.98C2418.43 3169.73 2418.28 3170.48 2417.99 3171.17C2417.7 3171.86 2417.27 3172.49 2416.73 3173.02C2416.19 3173.55 2415.55 3173.96 2414.85 3174.23C2414.14 3174.51 2413.39 3174.64 2412.64 3174.62Z" fill="#EBEBEB"/>
<path d="M2135.63 3268.84L2336.57 3151.6C2349.68 3144.13 2360.35 3149.77 2360.35 3164.56C2359.82 3172.66 2357.38 3180.52 2353.25 3187.51C2349.12 3194.5 2343.41 3200.43 2336.57 3204.8L2135.63 3322.65C2122.52 3330.28 2111.84 3324.48 2111.84 3309.85C2112.26 3301.61 2114.64 3293.6 2118.77 3286.46C2122.91 3279.33 2128.69 3273.29 2135.63 3268.84Z" fill="#E0E0E0"/>
<path d="M2775.64 2963.77C2774.89 2963.77 2774.14 2963.62 2773.45 2963.32C2772.75 2963.03 2772.13 2962.6 2771.6 2962.06C2771.07 2961.52 2770.66 2960.88 2770.39 2960.18C2770.11 2959.48 2769.98 2958.73 2770 2957.97V2886.47C2770 2884.98 2770.6 2883.54 2771.65 2882.48C2772.71 2881.43 2774.15 2880.83 2775.64 2880.83C2777.15 2880.83 2778.6 2881.42 2779.69 2882.47C2780.77 2883.53 2781.4 2884.96 2781.44 2886.47V2957.97C2781.44 2959.51 2780.83 2960.98 2779.74 2962.07C2778.65 2963.16 2777.18 2963.77 2775.64 2963.77Z" fill="#EBEBEB"/>
<path d="M2498.63 3057.83L2699.57 2941.51C2712.68 2933.89 2723.35 2939.68 2723.35 2954.32C2722.84 2962.42 2720.42 2970.3 2716.28 2977.29C2712.15 2984.29 2706.42 2990.21 2699.57 2994.56L2498.63 3111.8C2485.52 3119.43 2474.84 3113.63 2474.84 3099C2475.24 3090.74 2477.6 3082.69 2481.74 3075.53C2485.88 3068.37 2491.67 3062.3 2498.63 3057.83Z" fill="#E0E0E0"/>
<path d="M3138.64 2752.77C3137.13 2752.77 3135.68 2752.18 3134.6 2751.12C3133.52 2750.07 3132.89 2748.64 3132.85 2747.13V2675.62C3132.85 2674.09 3133.46 2672.61 3134.55 2671.53C3135.63 2670.44 3137.11 2669.83 3138.64 2669.83C3139.4 2669.83 3140.14 2669.98 3140.84 2670.27C3141.53 2670.57 3142.16 2671 3142.69 2671.54C3143.21 2672.08 3143.63 2672.72 3143.9 2673.42C3144.18 2674.12 3144.31 2674.87 3144.29 2675.62V2747.13C3144.29 2748.62 3143.69 2750.06 3142.63 2751.11C3141.58 2752.17 3140.14 2752.77 3138.64 2752.77Z" fill="#EBEBEB"/>
<path d="M2861.63 2846.99L3062.57 2729.75C3075.68 2722.28 3086.35 2727.92 3086.35 2742.7C3085.82 2750.81 3083.39 2758.67 3079.26 2765.66C3075.12 2772.65 3069.41 2778.58 3062.57 2782.95L2861.63 2900.04C2848.52 2907.66 2837.85 2901.87 2837.85 2887.23C2838.38 2879.13 2840.81 2871.27 2844.94 2864.28C2849.07 2857.29 2854.79 2851.36 2861.63 2846.99Z" fill="#E0E0E0"/>
<path d="M3501.65 2541.92C3500.11 2541.92 3498.64 2541.31 3497.55 2540.22C3496.46 2539.13 3495.85 2537.66 3495.85 2536.12V2464.62C3495.85 2463.87 3496 2463.12 3496.3 2462.43C3496.59 2461.73 3497.02 2461.1 3497.56 2460.58C3498.1 2460.05 3498.74 2459.64 3499.44 2459.37C3500.14 2459.09 3500.89 2458.96 3501.65 2458.98C3502.39 2458.96 3503.14 2459.09 3503.83 2459.37C3504.52 2459.64 3505.15 2460.06 3505.68 2460.59C3506.21 2461.11 3506.63 2461.74 3506.9 2462.44C3507.18 2463.13 3507.31 2463.88 3507.29 2464.62V2536.12C3507.31 2536.88 3507.18 2537.63 3506.9 2538.33C3506.63 2539.03 3506.22 2539.67 3505.69 2540.21C3505.16 2540.75 3504.54 2541.18 3503.84 2541.47C3503.15 2541.77 3502.4 2541.92 3501.65 2541.92Z" fill="#EBEBEB"/>
<path d="M3224.63 2636.59L3425.57 2519.51C3438.68 2511.88 3449.35 2517.68 3449.35 2532.31C3448.84 2540.42 3446.42 2548.29 3442.29 2555.29C3438.16 2562.28 3432.43 2568.2 3425.57 2572.56L3224.63 2689.8C3211.37 2697.42 3200.85 2691.63 3200.85 2676.99C3201.32 2668.86 3203.73 2660.95 3207.86 2653.92C3212 2646.9 3217.75 2640.96 3224.63 2636.59Z" fill="#E0E0E0"/>
<path d="M3587.48 2425.13L3788.57 2307.89C3801.68 2300.42 3812.36 2306.07 3812.36 2320.85C3811.82 2328.96 3809.39 2336.82 3805.26 2343.81C3801.13 2350.8 3795.41 2356.73 3788.57 2361.1L3587.48 2478.19C3574.37 2485.81 3563.85 2480.02 3563.85 2465.38C3564.36 2457.29 3566.76 2449.43 3570.86 2442.44C3574.97 2435.45 3580.66 2429.52 3587.48 2425.13Z" fill="#E0E0E0"/>
<path d="M1714.23 5684.07L1916.85 5567.29C1916.85 5567.29 2042.63 5197.12 2010.76 4856.22C1970.67 4432.7 1770.64 4283.14 1653.25 4331.01C1535.86 4378.88 1560.1 4547.04 1684.66 4773.14C1782.99 4952.88 1783.3 5366.35 1714.23 5684.07Z" fill="#204AD4"/>
<path opacity="0.1" d="M1714.23 5684.07L1916.85 5567.29C1916.85 5567.29 2042.63 5197.12 2010.76 4856.22C1970.67 4432.7 1770.64 4283.14 1653.25 4331.01C1535.86 4378.88 1560.1 4547.04 1684.66 4773.14C1782.99 4952.88 1783.3 5366.35 1714.23 5684.07Z" fill="black"/>
<path d="M1811.04 5637.57C1812.97 5637.57 1814.84 5636.97 1816.4 5635.85C1817.96 5634.73 1819.13 5633.14 1819.73 5631.32C1950.24 5231.73 1955.73 4670.84 1708.75 4417.6C1707.9 4416.74 1706.9 4416.06 1705.8 4415.58C1704.69 4415.11 1703.5 4414.86 1702.3 4414.84C1701.09 4414.83 1699.9 4415.05 1698.78 4415.5C1697.67 4415.95 1696.65 4416.61 1695.79 4417.45C1694.93 4418.29 1694.24 4419.3 1693.76 4420.4C1693.29 4421.51 1693.04 4422.7 1693.03 4423.9C1693.01 4425.1 1693.23 4426.3 1693.68 4427.41C1694.13 4428.53 1694.79 4429.55 1695.63 4430.41C1928.74 4669.16 1932.86 5225.63 1802.35 5625.53C1801.98 5626.68 1801.83 5627.89 1801.92 5629.1C1802.02 5630.31 1802.35 5631.48 1802.9 5632.56C1803.46 5633.64 1804.22 5634.6 1805.15 5635.38C1806.07 5636.16 1807.14 5636.75 1808.3 5637.11C1809.18 5637.41 1810.11 5637.56 1811.04 5637.57Z" fill="white"/>
<path d="M1349.56 5894.31C1328.52 5906.35 1285.22 5879.98 1268.75 5868.85C1240.41 5849.53 1217.48 5823.29 1202.13 5792.62C1184.99 5757.66 1179.13 5718.24 1185.36 5679.8C1188.78 5659.53 1193.57 5639.51 1199.69 5619.88C1205.33 5600.52 1210.82 5581.16 1216.46 5561.65C1223.2 5542.9 1226.11 5522.99 1225 5503.1C1219.81 5463.31 1184.6 5435.41 1152.43 5411.63C1116.9 5385.1 1080.01 5349.88 1080.16 5302.01C1082.69 5264.81 1097.55 5229.51 1122.39 5201.69C1145.26 5172.73 1172.4 5147.11 1193.13 5116.47C1209.46 5095.17 1217.97 5068.9 1217.22 5042.07C1214.99 5025.65 1209.49 5009.84 1201.06 4995.57C1184.14 4964.32 1161.73 4935.81 1150.14 4902.27C1138.55 4868.73 1140.08 4827.11 1166.3 4803.17C1187.8 4783.5 1219.66 4780.76 1248.78 4782.59C1275.84 4785.97 1301.85 4795.18 1325.01 4809.57C1401.24 4851.96 1444.54 4941.91 1525.19 4974.53C1555.68 4987.03 1590.44 4989.78 1622.91 4998.32C1655.39 5006.85 1688.47 5023.47 1703.41 5053.5C1733.14 5112.66 1678.1 5185.69 1698.84 5248.5C1717.28 5303.99 1771.41 5324.73 1801.74 5375.34C1814.09 5397.46 1819.06 5422.93 1815.92 5448.07C1813.34 5490.59 1803 5532.29 1785.43 5571.1C1765.74 5609.61 1743.22 5646.61 1718.05 5681.78C1716.67 5682.7 1352.76 5892.48 1349.56 5894.31Z" fill="#204AD4"/>
<path d="M1566.96 5777.22C1568.96 5777.16 1570.87 5776.4 1572.35 5775.05C1573.83 5773.71 1574.79 5771.89 1575.04 5769.9C1614.22 5459.5 1466.03 5040.7 1244.66 4836.56C1243.04 4835.3 1241 4834.7 1238.95 4834.88C1236.9 4835.05 1234.99 4835.98 1233.6 4837.49C1232.2 4839 1231.42 4840.98 1231.41 4843.04C1231.4 4845.09 1232.16 4847.08 1233.54 4848.6C1451.4 5049.69 1597.3 5462.09 1558.73 5767.92C1558.47 5770.08 1559.08 5772.26 1560.42 5773.98C1561.76 5775.69 1563.73 5776.8 1565.89 5777.07L1566.96 5777.22Z" fill="white"/>
<path d="M1529 5379.61C1530.28 5379.61 1531.54 5379.31 1532.68 5378.72C1533.82 5378.14 1534.8 5377.3 1535.55 5376.26C1536.85 5374.53 1537.41 5372.37 1537.13 5370.23C1536.84 5368.09 1535.73 5366.15 1534.03 5364.82C1412.06 5273.35 1225.15 5288.59 1217.37 5289.81C1216.29 5289.91 1215.24 5290.22 1214.28 5290.72C1213.31 5291.23 1212.46 5291.92 1211.76 5292.76C1211.07 5293.59 1210.55 5294.56 1210.23 5295.6C1209.91 5296.64 1209.8 5297.73 1209.9 5298.81C1210.13 5300.95 1211.18 5302.92 1212.83 5304.32C1214.48 5305.71 1216.59 5306.41 1218.75 5306.28C1220.73 5306.28 1407.03 5290.12 1523.66 5377.93C1525.2 5379.08 1527.08 5379.67 1529 5379.61Z" fill="white"/>
<path d="M1510.7 5303.38C1512.79 5303.38 1514.81 5302.57 1516.31 5301.12C1517.82 5299.67 1518.71 5297.7 1518.78 5295.61C1524.42 5153.36 1631.76 5066.92 1632.82 5066.92C1633.69 5066.26 1634.41 5065.44 1634.96 5064.5C1635.5 5063.56 1635.86 5062.52 1636 5061.44C1636.14 5060.37 1636.07 5059.27 1635.78 5058.22C1635.5 5057.18 1635.01 5056.19 1634.35 5055.33C1632.97 5053.65 1630.99 5052.56 1628.83 5052.3C1626.67 5052.05 1624.49 5052.64 1622.76 5053.96C1587.42 5083.92 1558.53 5120.75 1537.85 5162.21C1517.17 5203.67 1505.14 5248.9 1502.47 5295.15C1502.39 5297.31 1503.16 5299.41 1504.61 5301.01C1506.07 5302.61 1508.09 5303.57 1510.25 5303.69L1510.7 5303.38Z" fill="white"/>
<path d="M3527.41 5636.05C3392.21 5557.96 3276.33 5450.42 3188.39 5321.4C3100.44 5192.39 3042.69 5045.22 3019.42 4890.83L2911.33 4173.21C2890.74 4036.39 2843.02 3905.06 2770.97 3786.93C2698.92 3668.8 2603.99 3566.26 2491.77 3485.33L2350.74 3383.64V3464.13L2426.97 3519.32C2538.91 3600.11 2633.64 3702.38 2705.62 3820.18C2777.61 3937.97 2825.41 4068.92 2846.23 4205.38L2956.46 4928.03C2979.96 5082.07 3037.79 5228.85 3125.67 5357.52C3213.54 5486.2 3329.22 5593.47 3464.14 5671.42L3527.11 5707.7V5636.2L3527.41 5636.05Z" fill="#EBEBEB"/>
<path d="M4753.32 3889.64L4645.23 3172.03C4624.65 3035.21 4576.95 2903.89 4504.93 2785.77C4432.9 2667.64 4338.01 2565.09 4225.82 2484.14L4084.8 2382.29L2350.74 3383.64L2491.77 3485.48C2603.99 3566.41 2698.92 3668.95 2770.97 3787.08C2843.02 3905.21 2890.74 4036.54 2911.33 4173.37L3019.42 4890.98C3042.69 5045.38 3100.44 5192.54 3188.39 5321.56C3276.33 5450.57 3392.21 5558.11 3527.41 5636.2L5261.47 4635.01C5126.19 4556.95 5010.26 4449.4 4922.28 4320.35C4834.31 4191.3 4776.56 4044.09 4753.32 3889.64Z" fill="#FAFAFA"/>
<path d="M4083.88 2400.44L4216.83 2496.49C4327.14 2576.51 4420.49 2677.63 4491.46 2793.98C4562.43 2910.33 4609.62 3039.6 4630.29 3174.31L4738.23 3891.93C4760.81 4044.35 4816.7 4189.93 4901.91 4318.31C4987.13 4446.68 5099.58 4554.71 5231.28 4634.7L3527.41 5618.36C3395.88 5541.33 3283.3 5435.78 3197.97 5309.47C3112.64 5183.16 3056.73 5039.32 3034.36 4888.55L2926.42 4170.93C2905.16 4032.2 2856.59 3899.07 2783.52 3779.24C2710.46 3659.41 2614.35 3555.26 2500.76 3472.82L2378.8 3384.86L4083.88 2400.44ZM4084.8 2382.29L2350.74 3383.64L2491.77 3485.48C2603.99 3566.41 2698.92 3668.95 2770.97 3787.08C2843.02 3905.21 2890.74 4036.54 2911.33 4173.37L3019.42 4890.98C3042.69 5045.38 3100.44 5192.54 3188.39 5321.56C3276.33 5450.57 3392.21 5558.11 3527.41 5636.2L5261.47 4635.01C5126.21 4556.96 5010.29 4449.44 4922.31 4320.42C4834.34 4191.4 4776.58 4044.21 4753.32 3889.8L4645.23 3172.18C4624.67 3035.34 4576.98 2903.99 4504.95 2785.84C4432.93 2667.68 4338.03 2565.11 4225.82 2484.14L4084.8 2382.29Z" fill="#E0E0E0"/>
<path d="M3527.41 5636.05L5261.47 4634.86V4706.36L3527.41 5707.55V5636.05Z" fill="#F5F5F5"/>
<path d="M2674.72 3329.67C2613.73 3355.43 2607.79 3408.18 2660.23 3447.82C2689.98 3467.76 2724.01 3480.39 2759.56 3484.71C2795.11 3489.03 2831.17 3484.9 2864.83 3472.67C2925.81 3447.06 2931.91 3394.16 2880.08 3354.67C2850.26 3334.55 2816.11 3321.8 2780.41 3317.45C2744.71 3313.11 2708.48 3317.29 2674.72 3329.67Z" fill="#204AD4"/>
<path d="M2740.27 3393.85C2735.21 3394.41 2730.09 3394.41 2725.03 3393.85C2713.71 3392.88 2702.84 3388.99 2693.47 3382.57C2679.44 3372.05 2680.97 3358.33 2697.28 3352.08C2707.98 3348.07 2719.53 3346.86 2730.82 3348.57C2742.13 3349.69 2752.98 3353.62 2762.38 3360.01C2776.41 3370.53 2774.73 3384.25 2758.57 3390.5C2752.71 3392.65 2746.52 3393.78 2740.27 3393.85Z" fill="white"/>
<path d="M2826.11 3392.48C2808.24 3389.79 2789.99 3391.68 2773.05 3397.97L2757.81 3404.68C2730.21 3416.57 2727.31 3439.89 2751.4 3457.88L2759.94 3464.29C2788.8 3468.52 2818.25 3466.18 2846.08 3457.43C2872.3 3447.36 2888.31 3435.78 2890.6 3419.16L2878.86 3411.38C2863.17 3400.7 2845.01 3394.19 2826.11 3392.48Z" fill="white"/>
<path d="M2956.31 3217.15L3465.51 2923.06C3475.47 2917.8 3486.67 2915.33 3497.92 2915.92C3509.16 2916.51 3520.04 2920.14 3529.39 2926.42L3533.97 2930.08C3537.74 2932.49 3540.78 2935.89 3542.77 2939.9C3544.75 2943.91 3545.61 2948.39 3545.25 2952.85C3544.89 2957.32 3543.33 2961.6 3540.72 2965.24C3538.11 2968.88 3534.57 2971.74 3530.46 2973.53L3021.71 3268.23C3011.86 3273.19 3000.82 3275.3 2989.83 3274.33C2978.84 3273.36 2968.34 3269.35 2959.51 3262.74C2957.68 3261.37 2955.85 3259.99 2954.17 3258.47C2950.35 3256.42 2947.19 3253.33 2945.06 3249.55C2942.93 3245.77 2941.91 3241.47 2942.14 3237.13C2942.36 3232.8 2943.81 3228.62 2946.32 3225.09C2948.83 3221.55 2952.29 3218.8 2956.31 3217.15Z" fill="#455A64"/>
<path d="M3068.21 3335.76L3323.12 3188.64C3325.17 3187.64 3326.93 3186.14 3328.24 3184.28C3329.55 3182.42 3330.38 3180.26 3330.63 3177.99C3330.89 3175.73 3330.58 3173.44 3329.72 3171.33C3328.86 3169.22 3327.48 3167.36 3325.71 3165.93L3321.14 3161.51C3317.05 3157.83 3311.91 3155.52 3306.45 3154.89C3300.99 3154.27 3295.47 3155.35 3290.65 3158L3037.11 3306.19C3035.06 3307.21 3033.3 3308.73 3031.99 3310.6C3030.68 3312.47 3029.86 3314.65 3029.6 3316.92C3029.35 3319.19 3029.66 3321.49 3030.52 3323.61C3031.38 3325.73 3032.75 3327.6 3034.52 3329.06L3037.72 3332.11C3041.82 3335.76 3046.94 3338.07 3052.39 3338.73C3057.84 3339.38 3063.36 3338.35 3068.21 3335.76Z" fill="#455A64"/>
<path opacity="0.2" d="M2901.57 3615.22L4275.52 2821.68C4284.58 2816.59 4295.19 2815.01 4305.33 2817.23C4315.48 2819.45 4324.45 2825.32 4330.56 2833.72L4333.45 2837.84C4336.21 2841.92 4338.08 2846.53 4338.96 2851.37C4339.84 2856.22 4339.7 2861.19 4338.55 2865.98C4337.41 2870.77 4335.28 2875.27 4332.3 2879.19C4329.32 2883.11 4325.56 2886.37 4321.26 2888.76L2946.55 3682.91C2937.61 3687.89 2927.13 3689.32 2917.18 3686.92C2907.24 3684.52 2898.56 3678.46 2892.88 3669.95L2889.99 3665.53C2887.17 3661.55 2885.23 3657.02 2884.29 3652.24C2883.35 3647.46 2883.42 3642.53 2884.52 3637.78C2885.61 3633.03 2887.7 3628.57 2890.64 3624.68C2893.57 3620.79 2897.3 3617.57 2901.57 3615.22Z" fill="black"/>
<path opacity="0.2" d="M2984.97 3750.6L4360.44 2956.76C4364.68 2954.22 4369.4 2952.6 4374.3 2951.99C4379.2 2951.39 4384.18 2951.82 4388.9 2953.26C4393.63 2954.69 4398 2957.1 4401.73 2960.33C4405.47 2963.56 4408.49 2967.53 4410.6 2972L4412.73 2976.42C4416.83 2985.98 4417.33 2996.7 4414.14 3006.59C4410.94 3016.49 4404.27 3024.89 4395.35 3030.24L3019.58 3825.15C3015.47 3827.64 3010.89 3829.23 3006.13 3829.8C3001.36 3830.38 2996.53 3829.93 2991.96 3828.48C2987.38 3827.04 2983.17 3824.64 2979.6 3821.43C2976.02 3818.23 2973.18 3814.3 2971.25 3809.91L2968.81 3805.03C2964.11 3795.6 2963.17 3784.73 2966.17 3774.63C2969.17 3764.53 2975.89 3755.94 2984.97 3750.6Z" fill="black"/>
<path opacity="0.2" d="M3046.87 3897.72L4423.56 3102.96C4427.47 3100.39 4431.94 3098.78 4436.59 3098.28C4441.25 3097.78 4445.96 3098.4 4450.33 3100.09C4454.69 3101.77 4458.6 3104.47 4461.71 3107.97C4464.82 3111.47 4467.06 3115.66 4468.23 3120.19L4470.06 3127.05C4472.61 3137.57 4471.78 3148.64 4467.67 3158.66C4463.56 3168.68 4456.4 3177.15 4447.19 3182.85L3071.11 3978.22C3067.29 3980.77 3062.9 3982.33 3058.33 3982.77C3053.76 3983.21 3049.15 3982.52 3044.92 3980.76C3040.68 3978.99 3036.94 3976.21 3034.04 3972.66C3031.14 3969.1 3029.15 3964.89 3028.27 3960.38C3028.27 3957.94 3026.89 3955.51 3026.13 3953.07C3023.28 3942.83 3023.76 3931.96 3027.48 3922.02C3031.21 3912.07 3038 3903.57 3046.87 3897.72Z" fill="black"/>
<path opacity="0.2" d="M3086.35 4058.11L3886.6 3596.01C3890.16 3593.36 3894.38 3591.73 3898.8 3591.31C3903.22 3590.89 3907.67 3591.69 3911.66 3593.62C3915.66 3595.56 3919.04 3598.55 3921.45 3602.28C3923.86 3606.01 3925.2 3610.33 3925.33 3614.76L3927 3625.43C3928.16 3636.49 3926.22 3647.65 3921.41 3657.66C3916.59 3667.68 3909.08 3676.16 3899.71 3682.15L3099.46 4144.71C3095.92 4147.35 3091.71 4148.98 3087.31 4149.4C3082.9 4149.83 3078.46 4149.04 3074.47 4147.13C3070.48 4145.21 3067.09 4142.24 3064.67 4138.53C3062.25 4134.83 3060.89 4130.53 3060.74 4126.11C3060.74 4122.29 3059.67 4118.63 3059.06 4114.82C3058.02 4103.78 3060.02 4092.67 3064.83 4082.67C3069.63 4072.68 3077.08 4064.19 3086.35 4058.11Z" fill="black"/>
<path d="M4741.13 4492.92L3431.67 5249.11C3413.57 5259.54 3392.25 5262.88 3371.83 5258.49C3351.4 5254.1 3333.34 5242.28 3321.14 5225.32C3238.3 5098.48 3183.01 4940.48 3155.26 4751.33L3102.97 4403.88C3100.71 4381.76 3104.61 4359.44 3114.24 4339.4C3123.88 4319.35 3138.86 4302.36 3157.55 4290.3L4468.69 3532.89C4505.12 3511.85 4539.88 3528.62 4546.13 3570.24L4598.43 3917.85C4615.83 4086.71 4672.3 4249.2 4763.39 4392.45C4769 4400.35 4772.9 4409.35 4774.82 4418.85C4776.75 4428.36 4776.66 4438.16 4774.56 4447.62C4772.46 4457.09 4768.4 4466.01 4762.64 4473.81C4756.89 4481.62 4749.56 4488.12 4741.13 4492.92Z" fill="#204AD4"/>
<path opacity="0.7" d="M4741.13 4492.92L3431.67 5249.11C3413.57 5259.54 3392.25 5262.88 3371.83 5258.49C3351.4 5254.1 3333.34 5242.28 3321.14 5225.32C3238.3 5098.48 3183.01 4940.48 3155.26 4751.33L3102.97 4403.88C3100.71 4381.76 3104.61 4359.44 3114.24 4339.4C3123.88 4319.35 3138.86 4302.36 3157.55 4290.3L4468.69 3532.89C4505.12 3511.85 4539.88 3528.62 4546.13 3570.24L4598.43 3917.85C4615.83 4086.71 4672.3 4249.2 4763.39 4392.45C4769 4400.35 4772.9 4409.35 4774.82 4418.85C4776.75 4428.36 4776.66 4438.16 4774.56 4447.62C4772.46 4457.09 4768.4 4466.01 4762.64 4473.81C4756.89 4481.62 4749.56 4488.12 4741.13 4492.92Z" fill="white"/>
<path d="M3431.67 5249.11L4741.13 4492.92C4749.56 4488.12 4756.89 4481.62 4762.64 4473.81C4768.4 4466.01 4772.46 4457.09 4774.56 4447.62C4776.66 4438.16 4776.75 4428.36 4774.82 4418.85C4772.9 4409.35 4769 4400.35 4763.39 4392.45C4720.56 4326.07 4685.66 4254.89 4659.41 4180.38L4253.11 4065.73L4072.75 4466.09L4268.66 4623.57L3585.04 4263.77L3235.46 5058.54C3258.49 5116.85 3287.19 5172.76 3321.14 5225.48C3333.36 5242.4 3351.44 5254.19 3371.86 5258.56C3392.28 5262.92 3413.59 5259.56 3431.67 5249.11Z" fill="#204AD4"/>
<path d="M3980.82 3980.81C4029 3953.07 4074.89 3976.09 4083.42 4032.34C4086.69 4061.92 4081.7 4091.83 4069 4118.74C4056.29 4145.66 4036.38 4168.52 4011.46 4184.8C3963.29 4212.7 3917.4 4189.53 3909.01 4133.27C3905.71 4103.7 3910.68 4073.8 3923.35 4046.88C3936.03 4019.97 3955.92 3997.1 3980.82 3980.81Z" fill="#204AD4"/>
<path d="M4378.43 4940.99C4374.07 4941.37 4369.68 4941.37 4365.32 4940.99C4355.81 4940.09 4346.68 4936.78 4338.79 4931.39C4327.2 4922.7 4328.58 4911.26 4341.99 4905.47C4350.89 4902.14 4360.5 4901.15 4369.89 4902.57C4379.38 4903.5 4388.49 4906.74 4396.42 4912.02C4408.01 4920.87 4406.63 4932.3 4393.22 4938.09C4388.49 4939.9 4383.49 4940.88 4378.43 4940.99Z" fill="#204AD4"/>
<path d="M4450.24 4939.92C4435.3 4937.61 4420.02 4939.19 4405.87 4944.5L4392.61 4949.99C4369.59 4959.9 4367.15 4979.41 4387.27 4994.5L4394.28 4999.84C4418.45 5003.33 4443.1 5001.35 4466.4 4994.05C4488.2 4985.66 4501.61 4975.9 4503.6 4962.03L4493.69 4955.63C4480.79 4946.76 4465.83 4941.35 4450.24 4939.92Z" fill="#204AD4"/>
<path d="M4475.39 4882.45L4426.3 4884.89L4413.04 4896.32C4412.5 4896.76 4412.06 4897.32 4411.76 4897.96C4411.46 4898.59 4411.3 4899.28 4411.3 4899.98C4411.3 4900.68 4411.46 4901.37 4411.76 4902C4412.06 4902.64 4412.5 4903.2 4413.04 4903.64L4426.3 4914.16L4476.16 4912.18L4475.39 4882.45ZM4422.95 4903.18C4422.48 4903.18 4422.01 4903.09 4421.57 4902.9C4421.14 4902.72 4420.74 4902.44 4420.41 4902.1C4420.09 4901.76 4419.83 4901.35 4419.66 4900.91C4419.5 4900.47 4419.42 4900 4419.44 4899.52C4419.44 4898.59 4419.81 4897.7 4420.47 4897.04C4421.13 4896.39 4422.02 4896.02 4422.95 4896.02C4423.42 4896 4423.89 4896.07 4424.34 4896.24C4424.78 4896.4 4425.19 4896.66 4425.53 4896.99C4425.87 4897.32 4426.14 4897.71 4426.33 4898.14C4426.51 4898.58 4426.61 4899.05 4426.61 4899.52C4426.61 4900.49 4426.22 4901.42 4425.54 4902.11C4424.85 4902.8 4423.92 4903.18 4422.95 4903.18Z" fill="#204AD4"/>
<path d="M4729.54 4795.55C4729.54 4803.02 4719.94 4809.27 4714.3 4812.32C4703.65 4818.26 4691.95 4822.04 4679.84 4823.45C4668.25 4809.88 4690.51 4786.25 4729.54 4795.55Z" fill="#204AD4"/>
<path d="M4731.37 4747.52C4695.39 4717.79 4638.98 4706.82 4599.34 4729.53C4559.7 4752.25 4551.93 4800.27 4588.37 4830C4624.8 4859.73 4689.9 4860.49 4729.24 4837.47C4768.57 4814.45 4767.5 4777.1 4731.37 4747.52ZM4671.91 4740.51C4675.24 4738.9 4678.98 4738.34 4682.63 4738.91C4686.28 4739.49 4689.67 4741.16 4692.34 4743.71C4693.51 4744.69 4694.42 4745.94 4694.99 4747.36C4695.55 4748.78 4695.75 4750.32 4695.57 4751.83C4695.39 4753.35 4694.83 4754.79 4693.95 4756.04C4693.06 4757.28 4691.88 4758.29 4690.51 4758.96C4687.17 4760.79 4683.35 4761.56 4679.56 4761.15C4675.77 4760.74 4672.19 4759.18 4669.32 4756.67C4668.15 4755.56 4667.27 4754.18 4666.75 4752.66C4666.23 4751.13 4666.09 4749.5 4666.35 4747.91C4666.61 4746.31 4667.25 4744.81 4668.21 4743.52C4669.18 4742.23 4670.45 4741.2 4671.91 4740.51ZM4599.65 4796C4598.44 4794.9 4597.53 4793.51 4596.99 4791.97C4596.46 4790.42 4596.31 4788.77 4596.56 4787.15C4596.82 4785.54 4597.47 4784.01 4598.46 4782.71C4599.45 4781.41 4600.75 4780.37 4602.24 4779.69C4605.54 4778.07 4609.25 4777.51 4612.88 4778.08C4616.51 4778.66 4619.88 4780.34 4622.52 4782.89C4623.69 4783.86 4624.61 4785.1 4625.19 4786.51C4625.77 4787.92 4625.98 4789.46 4625.81 4790.97C4625.65 4792.48 4625.1 4793.93 4624.24 4795.19C4623.37 4796.44 4622.2 4797.45 4620.84 4798.14C4617.49 4800.25 4613.56 4801.25 4609.61 4800.97C4605.66 4800.7 4601.91 4799.17 4598.88 4796.61L4599.65 4796ZM4719.17 4818.26C4702.3 4827.26 4683.41 4831.83 4664.29 4831.53C4647.67 4831.77 4631.2 4828.28 4616.11 4821.31L4718.56 4763.53C4723.99 4767.05 4728.54 4771.77 4731.87 4777.32C4735.2 4782.87 4737.22 4789.1 4737.77 4795.55C4736.66 4800.71 4734.32 4805.52 4730.95 4809.58C4727.58 4813.64 4723.28 4816.83 4718.41 4818.87L4719.17 4818.26Z" fill="#204AD4"/>
<path d="M4946.34 4613.51C4942.7 4607.7 4938.11 4602.55 4932.77 4598.27C4920.22 4587.49 4904.82 4580.57 4888.44 4578.33C4872.05 4576.08 4855.36 4578.61 4840.38 4585.61C4833.9 4588.58 4828.31 4593.18 4824.14 4598.96C4819.98 4604.74 4817.38 4611.51 4816.62 4618.59C4815.85 4625.67 4816.93 4632.83 4819.76 4639.37C4822.59 4645.91 4827.07 4651.61 4832.76 4655.89C4835.96 4658.43 4839.37 4660.67 4842.97 4662.6C4888.71 4688.67 4971.8 4691.87 4971.8 4691.87C4971.01 4663.85 4962.17 4636.65 4946.34 4613.51ZM4906.54 4642.33C4899.21 4646.24 4890.95 4648.08 4882.65 4647.65C4874.35 4647.22 4866.32 4644.54 4859.44 4639.89C4856.73 4637.82 4854.61 4635.08 4853.26 4631.95C4851.92 4628.82 4851.41 4625.4 4851.78 4622.01C4852.15 4618.62 4853.38 4615.39 4855.36 4612.62C4857.35 4609.85 4860.01 4607.64 4863.09 4606.19C4870.27 4602.85 4878.26 4601.65 4886.1 4602.73C4893.94 4603.81 4901.3 4607.13 4907.31 4612.29C4919.5 4622.2 4919.96 4634.7 4906.7 4642.33H4906.54Z" fill="#204AD4"/>
<path d="M6602.79 4774.51L6406.73 5346.68C6405.48 5350.32 6403.13 5353.48 6400 5355.72C6396.87 5357.96 6393.12 5359.16 6389.27 5359.16C6385.42 5359.16 6381.67 5357.96 6378.54 5355.72C6375.41 5353.48 6373.06 5350.32 6371.81 5346.68L6178.35 4769.93L6602.79 4774.51Z" fill="#FFA8A7"/>
<path d="M6371.81 5346.53C6373.06 5350.17 6375.41 5353.33 6378.54 5355.57C6381.67 5357.81 6385.42 5359.01 6389.27 5359.01C6393.12 5359.01 6396.87 5357.81 6400 5355.57C6403.13 5353.33 6405.48 5350.17 6406.73 5346.53L6444.99 5234.78C6428.49 5243.6 6409.87 5247.72 6391.18 5246.67C6372.49 5245.62 6354.45 5239.45 6339.04 5228.83L6330.5 5223.04L6371.81 5346.53Z" fill="#263238"/>
<path d="M6185.66 2218.55V2274.51V2342.05L6178.65 4769.78C6225.56 4819.31 6289.41 4849.36 6357.48 4853.94C6460.09 4864.61 6565.44 4830.92 6602.94 4774.51L6609.8 2348.14V2219.01C6604.77 2302.56 6182 2302.41 6185.66 2218.55Z" fill="#204AD4"/>
<path d="M6184.44 2431.54V2556.55C6183.22 2592.84 6260.67 2616.32 6349.56 2624.4C6467.86 2635.68 6607.21 2603.66 6608.73 2555.64V2463.4V2430.47C6606.9 2478.49 6467.56 2510.66 6349.56 2499.38C6264.18 2491.45 6189.47 2468.89 6185.21 2435.5C6184.59 2434.28 6184.32 2432.9 6184.44 2431.54Z" fill="#EBEBEB"/>
<path d="M6184.75 2462.79C6181.7 2546.95 6605.84 2545.88 6608.89 2461.73V2336.56C6605.84 2420.71 6182 2421.78 6184.75 2337.62V2462.79Z" fill="#204AD4"/>
<path d="M6185.66 2218.55V2342.05C6182 2424.68 6591.35 2427.12 6609.8 2348.14C6610.23 2346.6 6610.48 2345.02 6610.56 2343.42V2219.01C6604.77 2302.56 6182 2302.41 6185.66 2218.55Z" fill="#EBEBEB"/>
<path d="M6611.63 1689.22V1683.89C6611.63 1623.67 6516.8 1574.73 6399.71 1574.73C6282.63 1574.73 6187.65 1623.67 6187.65 1683.89V1740.75L6185.66 2218.56C6184.14 2254.38 6260.37 2278.01 6348.79 2286.55C6467.1 2298.14 6607.06 2266.88 6609.65 2219.01L6611.48 1693.03C6611.78 1691.36 6611.63 1689.53 6611.63 1689.22Z" fill="#F28F8F"/>
<path opacity="0.2" d="M6399.71 1793.05C6516.83 1793.05 6611.78 1744.17 6611.78 1683.89C6611.78 1623.6 6516.83 1574.73 6399.71 1574.73C6282.59 1574.73 6187.64 1623.6 6187.64 1683.89C6187.64 1744.17 6282.59 1793.05 6399.71 1793.05Z" fill="white"/>
<path opacity="0.1" d="M6609.34 2348.14L6611.63 1689.22C6608.89 1740.75 6520.16 1789.54 6424.87 1793.05L6418.01 4855.92L6406.73 5346.68L6602.79 4774.51L6609.34 2348.14Z" fill="black"/>
<path d="M5923.44 2858.57C6004.09 2846.83 6103.49 2907.51 6172.7 3004.78C6241.92 3102.05 6483.11 3338.81 6509.64 3414.13C6528.84 3469.01 6517.56 3572.23 6403.98 3523.74C6294.06 3476.94 5943.56 3133.15 5943.56 3133.15L5923.44 2858.57Z" fill="#B16668"/>
<path d="M5884.87 2858.57C5910.83 2853.01 5937.29 2850.05 5963.84 2849.73C5991.74 2851.56 6054.4 2868.18 6118.89 2930.99C6183.38 2993.8 6350.78 3196.72 6350.78 3196.72C6350.78 3196.72 6358.25 3253.74 6302.14 3317.32C6246.04 3380.89 6193.59 3380.89 6193.59 3380.89L5944.93 3174.92L5884.87 2858.57Z" fill="#37474F"/>
<path d="M6431.27 3302.38L6608.12 3045.64V2857.05C6608.12 2857.05 6647.15 2870.16 6662.7 2930.99C6678.25 2991.82 6697.62 3062.56 6689.84 3113.94C6682.07 3165.32 6559.64 3479.07 6493.63 3523.29C6427.61 3567.5 6431.27 3302.38 6431.27 3302.38Z" fill="#B16668"/>
<path d="M5635.29 2773.35L5669.75 2990.45L5884.86 2978.86L5854.07 2726.7L5635.29 2773.35Z" fill="#B16668"/>
<path d="M5490.61 2507.16C5490.61 2507.16 5439.38 2584.91 5444.87 2592.53C5450.36 2600.16 5488.48 2607.78 5488.48 2607.78L5490.61 2507.16Z" fill="#9A4A4D"/>
<path d="M5632.4 2291.89C5528.72 2313.84 5498.69 2359.43 5488.93 2524.23C5478.72 2696.51 5496.25 2750.63 5519.42 2773.81C5534.67 2789.05 5619.59 2792.25 5662.43 2780.51C5715.94 2765.27 5837.15 2722.73 5893.86 2636.14C5960.48 2534.29 5978.02 2396.02 5906.67 2339.45C5806.2 2259.57 5675.24 2283.04 5632.4 2291.89Z" fill="#B16668"/>
<path d="M5637.27 2785.24C5655.75 2781.89 5673.99 2777.3 5691.85 2771.52C5678.27 2787.02 5660.03 2797.72 5639.86 2802.01L5637.27 2785.24Z" fill="#9A4A4D"/>
<path d="M5482.99 2344.18C5497.41 2352.21 5512.77 2358.41 5528.72 2362.63C5554.03 2369.95 5550.22 2379.4 5553.73 2402.57C5556.82 2423.5 5566.86 2442.78 5582.24 2457.3C5592.15 2466.3 5599.46 2467.06 5602.82 2480.78C5604.42 2495.12 5604.42 2509.59 5602.82 2523.93C5602.82 2552.59 5621.42 2574.24 5630.26 2535.97C5630.26 2535.97 5646.73 2472.24 5700.39 2480.33C5754.06 2488.41 5758.78 2548.78 5733.17 2596.19C5717.92 2625.16 5675.85 2617.54 5675.85 2617.54C5674.34 2644.21 5678.57 2670.9 5688.25 2695.81C5697.93 2720.71 5712.83 2743.25 5731.95 2761.91C5731.95 2761.91 5785.31 2801.55 5869.16 2760.39C5904.8 2714.69 5936.72 2666.21 5964.6 2615.4C6001.8 2550.76 6033.97 2471.18 6021.31 2395.1C6017.26 2366.62 6004.66 2340.04 5985.18 2318.87C5979.79 2314.08 5975.46 2308.21 5972.47 2301.65C5969.48 2295.09 5967.89 2287.97 5967.8 2280.76C5964.61 2263.57 5955.42 2248.06 5941.88 2237C5931.27 2228.61 5918.59 2223.23 5905.17 2221.43C5891.76 2219.63 5878.11 2221.48 5865.66 2226.79C5864.61 2213.5 5859.38 2200.89 5850.73 2190.76C5842.07 2180.63 5830.44 2173.49 5817.48 2170.38C5791.25 2164.89 5763.94 2168.66 5740.18 2181.05C5733.22 2168.57 5723.23 2158.04 5711.14 2150.43C5699.05 2142.81 5685.24 2138.35 5670.98 2137.45C5656.72 2136.56 5642.46 2139.26 5629.51 2145.3C5616.57 2151.35 5605.34 2160.55 5596.87 2172.06C5592.94 2166.01 5587.63 2160.97 5581.37 2157.37C5575.12 2153.77 5568.1 2151.69 5560.89 2151.32C5546.51 2150.81 5532.17 2153.09 5518.66 2158.03C5507.19 2161.44 5496.14 2166.14 5485.73 2172.06C5466.93 2183.69 5452.27 2200.96 5443.84 2221.41C5435.41 2241.85 5433.64 2264.43 5438.77 2285.94C5441.74 2298.17 5447.2 2309.65 5454.81 2319.67C5462.42 2329.69 5472.01 2338.04 5482.99 2344.18Z" fill="#263238"/>
<path d="M5968.87 2326.95L6030.92 2290.36C6028.52 2286.29 6025.33 2282.73 6021.55 2279.88C6017.78 2277.04 6013.47 2274.96 6008.89 2273.78C6004.31 2272.6 5999.55 2272.33 5994.86 2272.99C5990.18 2273.65 5985.67 2275.23 5981.6 2277.63C5977.52 2280.03 5973.96 2283.22 5971.12 2286.99C5968.27 2290.77 5966.2 2295.08 5965.02 2299.66C5963.84 2304.24 5963.57 2309 5964.23 2313.69C5964.89 2318.37 5966.47 2322.88 5968.87 2326.95Z" fill="#263238"/>
<path d="M6026.8 5549.75L6028.17 5563.63C6030.69 5581.97 6031.15 5600.53 6029.55 5618.97C6029.52 5626.01 6027.99 5632.96 6025.04 5639.35C6022.09 5645.74 6017.81 5651.43 6012.47 5656.02C5999.79 5662.97 5986.19 5668.11 5972.07 5671.26C5940.57 5679 5907.38 5675.72 5878 5661.96C5853.61 5650.22 5834.55 5631.47 5808.18 5624.31C5780.94 5617.54 5753.21 5612.95 5725.24 5610.58C5712.8 5609.57 5700.49 5607.33 5688.5 5603.88C5679.39 5600.67 5670.56 5596.69 5662.12 5591.98C5632.67 5578.04 5606.13 5558.64 5583.91 5534.81C5569.88 5518.96 5560.21 5499.73 5555.86 5479.01C5553.42 5466.66 5548.54 5431.45 5568.82 5432.36C5668.68 5436.78 5767.02 5458.28 5867.33 5457.06C5873.83 5456.6 5880.35 5456.6 5886.85 5457.06C5899.01 5459.62 5910.46 5464.83 5920.39 5472.31C5924.52 5475.88 5929.43 5478.42 5934.73 5479.71C5940.03 5481.01 5945.57 5481.03 5950.88 5479.78C5968.03 5477.13 5985.5 5477.39 6002.56 5480.54C6006.27 5481.06 6009.81 5482.44 6012.9 5484.55C6016 5486.67 6018.56 5489.47 6020.4 5492.73C6021.37 5495.11 6021.89 5497.64 6021.92 5500.2C6023.6 5518.04 6025.28 5533.29 6026.8 5549.75Z" fill="#263238"/>
<path d="M6016.59 5430.23L6011.4 5505.39C6006.53 5534.05 5908.95 5551.13 5889.44 5500.97L5879.83 5415.59L6016.59 5430.23Z" fill="#B16668"/>
<path d="M5645.05 5727.82C5645.05 5727.82 5656.94 5766.85 5663.19 5801C5668.07 5828.14 5674.93 5873.57 5665.02 5893.7C5655.11 5913.82 5617.91 5926.02 5560.59 5924.19C5523.54 5922.97 5465.3 5946.91 5425.2 5968.1C5385.11 5989.29 5298.82 5997.06 5255.67 5991.12C5204.9 5983.95 5152.91 5953.16 5145.14 5931.97C5137.36 5910.77 5148.8 5888.97 5269.85 5840.49C5270.92 5840.49 5437.55 5789.87 5497.32 5727.21L5645.05 5727.82Z" fill="#263238"/>
<path d="M5646.12 5679.5C5646.12 5679.5 5645.2 5712.58 5645.05 5731.64C5644.9 5750.69 5621.72 5778.29 5563.79 5774.93C5523.08 5772.49 5495.03 5760.91 5497.32 5727.52L5498.38 5679.19L5646.12 5679.5Z" fill="#B16668"/>
<path d="M6055.92 4852.26C6038.69 4705.9 6025.43 4621.9 6025.43 4621.9C6025.43 4621.9 6028.48 4417.91 6040.68 4227.79C6053.63 4022.28 6050.74 3763.56 6055.92 3712.33C6055.92 3712.33 5395.93 3571.46 5390.44 3809.45C5384.35 4086.01 5402.64 4658.18 5406.6 4732.73C5412.09 4837.32 5412.4 4946.17 5430.08 5115.86C5447.62 5283.56 5498.38 5679.19 5498.38 5679.19C5521.11 5691.34 5546.48 5697.69 5572.25 5697.69C5598.02 5697.69 5623.39 5691.34 5646.12 5679.19C5646.12 5679.19 5703.59 5204.9 5701.31 5084.61C5699.92 4997.18 5691.56 4910 5676.3 4823.9L5728.29 4286.95C5728.29 4286.95 5748.72 4452.97 5754.21 4557.56C5759.7 4662.15 5774.03 4726.03 5799.95 4920.71C5822.36 5089.48 5879.22 5445.93 5879.22 5445.93C5900.85 5458.11 5925.43 5464.04 5950.23 5463.04C5975.03 5462.05 5999.06 5454.17 6019.64 5440.29C6019.64 5440.29 6073.15 4998.77 6055.92 4852.26Z" fill="#204AD4"/>
<path opacity="0.3" d="M6055.92 4852.26C6038.69 4705.9 6025.43 4621.9 6025.43 4621.9C6025.43 4621.9 6028.48 4417.91 6040.68 4227.79C6053.63 4022.28 6050.74 3763.56 6055.92 3712.33C6055.92 3712.33 5395.93 3571.46 5390.44 3809.45C5384.35 4086.01 5402.64 4658.18 5406.6 4732.73C5412.09 4837.32 5412.4 4946.17 5430.08 5115.86C5447.62 5283.56 5498.38 5679.19 5498.38 5679.19C5521.11 5691.34 5546.48 5697.69 5572.25 5697.69C5598.02 5697.69 5623.39 5691.34 5646.12 5679.19C5646.12 5679.19 5703.59 5204.9 5701.31 5084.61C5699.92 4997.18 5691.56 4910 5676.3 4823.9L5728.29 4286.95C5728.29 4286.95 5748.72 4452.97 5754.21 4557.56C5759.7 4662.15 5774.03 4726.03 5799.95 4920.71C5822.36 5089.48 5879.22 5445.93 5879.22 5445.93C5900.85 5458.11 5925.43 5464.04 5950.23 5463.04C5975.03 5462.05 5999.06 5454.17 6019.64 5440.29C6019.64 5440.29 6073.15 4998.77 6055.92 4852.26Z" fill="black"/>
<path opacity="0.15" d="M5979.39 4037.38C5979.39 4037.38 5933.65 4112.84 5794.91 4168.03L5756.19 4297.62L5752.07 4525.39C5746.74 4452.06 5738.66 4371.87 5728.29 4286.95L5743.54 4153.4C5743.54 4153.4 5897.21 4107.05 5979.39 4037.38Z" fill="black"/>
<path d="M6081.38 2998.99C6054.86 2904.61 5992.5 2862.99 5923.44 2858.57C5905.9 2857.5 5870.23 2858.57 5870.23 2858.57C5875.11 2898.67 5751.92 2926.87 5656.79 2904.31C5627.82 2911.78 5580.56 2922.6 5556.01 2930.68C5487.26 2953.55 5404.62 3039.54 5393.95 3264.11C5393.95 3264.11 5382.97 3746.64 5386.33 3886.9C5556.32 3958.55 5720.52 3967.55 5819.46 3947.88C6025.74 3907.79 6059.58 3819.36 6059.58 3819.36C6059.58 3819.36 6057.75 3697.39 6049.98 3501.18C6084.43 3223.71 6092.82 3039.84 6081.38 2998.99Z" fill="#455A64"/>
<path d="M5277.17 3798.78C5295.34 3810.11 5310.37 3825.81 5320.89 3844.46C5331.41 3863.1 5337.08 3884.09 5337.39 3905.5C5340.29 3949.41 5340.29 3996.97 5360.87 4036.76C5364.22 4043.32 5382.21 4058.11 5389.22 4055.97V3999.87C5400.66 3985.39 5431.91 3958.4 5439.99 3941.78C5453.41 3914.04 5437.71 3880.8 5445.79 3850.31C5450.97 3838.56 5454.46 3826.14 5456.15 3813.41C5457.28 3797.65 5454.78 3781.83 5448.83 3767.19C5442.88 3752.55 5433.65 3739.46 5421.85 3728.95C5391.36 3704.41 5364.53 3673.92 5337.24 3646.47C5301.87 3610.95 5252.78 3558.66 5217.4 3522.98L5454.78 3295.36C5482.16 3269.27 5505.04 3238.83 5522.47 3205.26C5561.35 3130.56 5613.95 2999.6 5555.25 2930.84C5470.64 2930.84 5422.61 2943.8 5336.17 3044.57C5261.62 3131.47 5023.63 3416.57 4992.99 3464.9C4962.34 3513.23 4944.81 3546.31 5003.51 3599.97C5051.33 3640.78 5101.31 3679 5153.22 3714.47C5193.32 3743.28 5237.07 3770.27 5277.17 3798.78Z" fill="#B16668"/>
<path d="M5217.56 3523.74C5196.26 3544.33 5171.68 3561.23 5144.84 3573.75C5176.65 3569.37 5207.1 3558.02 5234.02 3540.51L5217.56 3523.74Z" fill="#9A4A4D"/>
<path d="M5581.93 2923.21C5547.59 2921.6 5513.18 2924.21 5479.48 2930.99C5428.1 2942.12 5393.49 2968.19 5304.46 3068.96C5215.42 3169.74 5152.91 3251.91 5152.91 3251.91C5152.91 3251.91 5127.3 3308.63 5198.65 3372.96C5270 3437.3 5334.34 3426.17 5334.34 3426.17L5534.36 3231.64C5534.36 3231.64 5677.06 3082.38 5581.93 2923.21Z" fill="#37474F"/>
</svg>
