<svg width="237" height="568" viewBox="0 0 237 568" fill="none" xmlns="http://www.w3.org/2000/svg">
<g clip-path="url(#clip0_301_928)">
<path d="M191 815.5C191 815.5 176.41 739.62 167.061 691C157.712 642.38 143.122 566.5 143.122 566.5V233.746C144.443 213.802 151.17 194.594 162.58 178.187C167.419 170.823 173.089 164.04 179.477 157.973C187.74 150.987 198.77 142.14 206.331 139.164C215.709 135.443 215.998 122.422 207.281 120.148C198.564 117.874 172.454 127.465 149.732 150.78C127.01 174.095 132.133 123.703 133.703 105.308C135.273 86.9119 137.379 29.8649 132.091 25.0696C124.366 18.0007 115.153 25.0696 114.038 43.5893C112.922 62.1089 105.775 116.965 95.984 115.932C86.1928 114.898 95.6535 21.3905 95.6535 21.3905C95.6535 21.3905 100.859 1.63074 89.7457 0.0598785C69.6677 -2.79248 67.2302 97.1639 67.2302 106.713C67.2302 113.327 56.6954 112.583 57.0672 105.473C57.439 98.3627 68.387 12.296 47.9784 9.23696C32.3208 6.88067 45.2104 91.4592 33.0644 108.449C20.9184 125.439 29.842 43.1345 14.7628 41.481C9.18557 40.8609 4.88903 41.1916 6.50023 88.8962C7.40912 114.567 18.8941 152.929 16.8285 202.453L16.3327 215.268C9.96718 265.003 -8.37722 428.119 4.45024 566.5C15.516 685.876 70.7006 706.779 134.942 780.737C160.865 810.58 128.786 1106.57 206.331 852.5C283.875 598.434 191 815.5 191 815.5Z" fill="#FFBE9D"/>
</g>
<defs>
<clipPath id="clip0_301_928">
<rect width="237" height="568" fill="white"/>
</clipPath>
</defs>
</svg>
