<svg width="204" height="74" viewBox="0 0 204 74" fill="none" xmlns="http://www.w3.org/2000/svg">
<path d="M14.0197 26.4247C13.8219 26.0292 13.723 25.6337 13.723 25.2383C13.723 24.3155 14.5469 23.3927 16.1948 22.47C17.8426 21.5472 19.9517 20.6903 22.5223 19.8994C25.0929 19.0425 27.8942 18.2516 30.9261 17.5265C34.024 16.7356 36.9901 16.0765 39.8243 15.5492C42.7244 15.0219 45.295 14.6264 47.536 14.3628C49.777 14.0332 51.3589 13.8684 52.2817 13.8684C53.1385 13.8684 54.0613 13.9343 55.05 14.0662C56.1046 14.1321 57.0603 14.3628 57.9172 14.7582C58.84 15.0878 59.5979 15.5821 60.1912 16.2413C60.7844 16.9004 61.081 17.7902 61.081 18.9107C61.081 20.3608 60.3889 22.1074 59.0047 24.1507C57.6865 26.1281 55.8739 28.3032 53.567 30.676C51.326 33.0489 48.7224 35.5206 45.7564 38.0912C42.7903 40.6617 39.6925 43.2653 36.4628 45.9017C33.299 48.4723 30.0693 51.0099 26.7737 53.5146C23.544 55.9534 20.512 58.2273 17.6778 60.3365C14.8436 62.3798 12.3059 64.1924 10.0649 65.7743C7.8239 67.3562 6.14314 68.5755 5.02263 69.4324L5.31924 69.9267C10.0649 68.4767 14.9754 66.8948 20.0506 65.1811C25.1918 63.4014 30.3659 61.7866 35.5729 60.3365C40.8459 58.8205 46.0859 57.5682 51.293 56.5795C56.566 55.5908 61.7071 55.0965 66.7165 55.0965L72.7474 55.1954C72.6156 55.3272 72.352 55.492 71.9565 55.6897C71.6269 55.8874 71.3633 56.0193 71.1655 56.0852C60.5537 58.3262 50.1066 60.6661 39.8243 63.1048C29.542 65.4777 19.2597 68.4108 8.97737 71.9041C8.0546 72.2337 7.03296 72.5632 5.91245 72.8928C4.79194 73.2224 3.7703 73.3871 2.84753 73.3871C2.1225 73.3871 1.52929 73.2224 1.0679 72.8928C0.540603 72.4973 0.276955 71.9371 0.276955 71.212C0.276955 70.6188 1.10086 69.5972 2.74866 68.1471C4.39647 66.6311 6.57157 64.8186 9.27397 62.7094C11.9764 60.6002 15.0413 58.2932 18.4687 55.7886C21.9621 53.218 25.5213 50.5486 29.1465 47.7802C32.7717 45.0119 36.298 42.2436 39.7254 39.4753C43.2188 36.707 46.3166 34.0705 49.019 31.5658C51.7214 29.0612 53.8965 26.7542 55.5443 24.6451C57.1921 22.5359 58.0161 20.7562 58.0161 19.3062C58.0161 18.713 57.7524 18.2516 57.2251 17.922C56.7637 17.5265 56.1705 17.2629 55.4455 17.1311C54.7864 16.9992 54.0943 16.9333 53.3692 16.9333C52.7101 16.8674 52.1499 16.8345 51.6885 16.8345C48.3929 16.8345 45.1302 17.164 41.9005 17.8231C38.7367 18.4164 35.6059 19.2073 32.508 20.196C29.4102 21.1188 26.3123 22.1404 23.2144 23.2609C20.1824 24.3814 17.1175 25.436 14.0197 26.4247ZM99.1298 35.3228C99.5912 35.191 99.9867 34.9603 100.316 34.6308C100.712 34.2353 101.107 34.0376 101.503 34.0376C101.7 34.0376 101.898 34.1364 102.096 34.3342C102.36 34.5319 102.557 34.6967 102.689 34.8285C102.096 35.8172 101.404 36.74 100.613 37.5968C99.8878 38.4537 99.1957 39.3435 98.5366 40.2663C97.8775 41.1231 97.2843 42.0459 96.757 43.0346C96.2956 44.0233 96.0319 45.1767 95.966 46.495C97.1524 46.429 98.3718 46.2313 99.6242 45.9017C100.876 45.5722 102.096 45.2097 103.282 44.8142C104.469 44.4187 105.655 44.0892 106.842 43.8255C108.028 43.496 109.181 43.3312 110.302 43.3312L111.389 43.43C110.599 44.1551 109.61 44.8472 108.423 45.5063C107.303 46.1654 106.084 46.7586 104.765 47.2859C103.513 47.7473 102.228 48.1428 100.909 48.4723C99.6571 48.8019 98.5036 48.9667 97.4491 48.9667C95.0103 48.9667 93.7909 47.8132 93.7909 45.5063C93.7909 44.8472 93.8898 44.221 94.0875 43.6278C94.2853 42.9687 94.3512 42.3095 94.2853 41.6504C93.2966 42.0459 92.1431 42.6061 90.8249 43.3312C89.5066 44.0562 88.1554 44.7812 86.7713 45.5063C85.3871 46.1654 84.0359 46.7586 82.7177 47.2859C81.3994 47.8132 80.246 48.0769 79.2573 48.0769C78.5323 48.0769 77.939 47.8791 77.4777 47.4836C77.0163 47.0223 76.7856 46.429 76.7856 45.704C76.7856 44.188 77.4447 42.672 78.7629 41.1561C80.1471 39.6401 81.7949 38.2889 83.7064 37.1025C85.6178 35.8501 87.5952 34.8615 89.6385 34.1364C91.6817 33.3455 93.3955 32.95 94.7796 32.95C95.7024 32.95 96.5263 33.1477 97.2513 33.5432C98.0423 33.8728 98.6684 34.466 99.1298 35.3228ZM96.5592 36.5093C96.2297 36.3774 95.8672 36.3115 95.4717 36.3115C95.1421 36.3115 94.8126 36.3115 94.483 36.3115C93.2307 36.3115 91.8465 36.5422 90.3305 37.0036C88.8805 37.465 87.4634 38.0912 86.0792 38.8821C84.695 39.673 83.4757 40.6288 82.4211 41.7493C81.3665 42.8039 80.6414 43.9573 80.246 45.2097C83.212 44.221 86.0133 42.9687 88.6498 41.4527C91.3522 39.8708 93.9887 38.223 96.5592 36.5093ZM142.932 3.48724C142.734 4.08045 142.338 4.73957 141.745 5.46461C141.218 6.12373 140.592 6.78285 139.867 7.44198C139.208 8.1011 138.548 8.76022 137.889 9.41934C137.23 10.0785 136.703 10.6717 136.307 11.199C134.264 13.9014 132.122 16.7026 129.881 19.6028C127.706 22.5029 125.531 25.469 123.356 28.5009C121.181 31.467 119.071 34.466 117.028 37.4979C114.985 40.5299 113.139 43.496 111.491 46.3961C112.612 45.8029 113.996 44.8472 115.644 43.5289C117.358 42.2107 119.104 40.8924 120.884 39.5742C122.664 38.19 124.377 37.0036 126.025 36.0149C127.673 34.9603 129.024 34.433 130.079 34.433C130.804 34.433 131.364 34.6308 131.759 35.0262C132.221 35.4217 132.55 35.949 132.748 36.6081C132.946 37.2013 133.078 37.8934 133.144 38.6844C133.21 39.4094 133.21 40.1674 133.144 40.9583C133.078 41.7493 133.045 42.5402 133.045 43.3312C133.045 44.0562 133.275 44.6494 133.737 45.1108C134.198 45.5063 134.956 45.6381 136.011 45.5063C137.065 45.3744 138.647 44.8142 140.756 43.8255C140.427 44.5505 139.867 45.3085 139.076 46.0995C138.285 46.8245 137.428 47.3518 136.505 47.6814C135.187 48.2087 133.935 48.3075 132.748 47.978C131.628 47.5825 130.87 46.6597 130.474 45.2097C130.276 44.5505 130.145 43.8255 130.079 43.0346C130.013 42.2436 129.98 41.4856 129.98 40.7606C130.046 39.9696 130.079 39.2446 130.079 38.5855C130.145 37.9264 130.178 37.3991 130.178 37.0036C129.518 37.3332 128.596 37.8934 127.409 38.6844C126.223 39.4753 124.905 40.3651 123.455 41.3538C122.004 42.3425 120.521 43.3971 119.005 44.5176C117.489 45.6381 116.072 46.6597 114.754 47.5825C113.436 48.5053 112.282 49.2633 111.294 49.8565C110.371 50.4497 109.778 50.7463 109.514 50.7463C108.987 50.7463 108.525 50.5486 108.13 50.1531C107.734 49.7576 107.537 49.3292 107.537 48.8678C107.537 48.0109 108.295 46.3631 109.811 43.9244C111.327 41.4856 113.238 38.6514 115.545 35.4217C117.852 32.192 120.39 28.7975 123.158 25.2383C125.926 21.6131 128.596 18.2186 131.166 15.0548C133.737 11.891 136.011 9.15569 137.988 6.84876C139.966 4.47593 141.317 2.95995 142.042 2.30082L142.932 3.48724ZM149.635 34.9274C147.856 36.9047 146.142 38.9151 144.494 40.9583C142.846 43.0016 141.561 45.2756 140.638 47.7802C141.297 48.1098 141.891 48.2746 142.418 48.2746C143.077 48.2746 144.033 48.1098 145.285 47.7802C146.603 47.3848 147.988 46.9234 149.438 46.3961C150.954 45.8688 152.404 45.3415 153.788 44.8142C155.238 44.2869 156.457 43.8585 157.446 43.5289C156.721 44.5835 155.732 45.5392 154.48 46.3961C153.293 47.2529 151.975 48.0109 150.525 48.6701C149.075 49.2633 147.592 49.7247 146.076 50.0542C144.56 50.3838 143.176 50.5486 141.924 50.5486C141.001 50.5486 140.21 50.252 139.551 49.6587C138.892 49.0655 138.562 48.3075 138.562 47.3848C138.562 46.7257 138.925 45.6711 139.65 44.221C140.375 42.705 141.199 41.189 142.121 39.673C143.11 38.1571 144.099 36.8388 145.087 35.7183C146.142 34.5319 146.966 33.9387 147.559 33.9387C147.889 33.9387 148.218 34.1035 148.548 34.433C148.943 34.6967 149.306 34.8615 149.635 34.9274ZM155.567 25.5349C155.04 26.919 154.348 28.0725 153.491 28.9953C152.634 29.918 151.745 30.7749 150.822 31.5658L149.833 31.1704L149.734 29.8851C150.525 28.9623 151.316 28.1055 152.107 27.3145C152.898 26.4576 153.722 25.6008 154.579 24.7439L155.567 25.5349ZM177.708 35.7183C176.588 36.6411 175.171 37.8934 173.457 39.4753C171.809 41.0572 170.03 42.6061 168.118 44.1221C166.273 45.6381 164.427 46.9563 162.582 48.0769C160.736 49.1314 159.121 49.6587 157.737 49.6587C157.078 49.6587 156.518 49.494 156.056 49.1644C155.529 48.7689 155.265 48.2087 155.265 47.4836C155.265 45.9677 155.793 44.5505 156.847 43.2323C157.902 41.9141 159.22 40.7276 160.802 39.673C162.45 38.5525 164.229 37.5639 166.141 36.707C168.052 35.8501 169.865 35.0921 171.579 34.433C173.292 33.708 174.775 33.1148 176.028 32.6534C177.346 32.1261 178.17 31.6977 178.499 31.3681C182.784 27.2156 186.673 22.6347 190.166 17.6254C193.725 12.5502 197.186 7.54084 200.547 2.59743C200.745 2.26787 201.008 1.87239 201.338 1.411C201.668 0.949621 202.03 0.718929 202.426 0.718929C202.755 0.718929 203.052 0.817798 203.315 1.01554C203.645 1.21327 203.81 1.50988 203.81 1.90535C203.414 3.02586 202.854 4.08045 202.129 5.06914C201.47 6.05782 200.778 7.01355 200.053 7.93632C189.441 22.437 180.015 37.6627 171.776 53.6135C170.722 55.6568 169.733 57.6671 168.81 59.6444C167.888 61.6218 166.8 63.5992 165.548 65.5765L164.164 66.0709L163.768 64.3901C165.548 59.5126 167.822 54.7669 170.59 50.1531C173.358 45.4733 175.929 40.8265 178.302 36.2127L177.708 35.7183ZM158.33 46.6927C159.319 46.429 160.472 45.9347 161.791 45.2097C163.109 44.4846 164.394 43.6937 165.647 42.8368C166.965 41.9141 168.151 40.9583 169.206 39.9696C170.26 38.981 171.051 38.0252 171.579 37.1025C169.074 38.223 166.668 39.5412 164.361 41.0572C162.054 42.5073 160.044 44.3858 158.33 46.6927Z" fill="white"/>
</svg>
