<?xml version="1.0" standalone="no"?>
<!DOCTYPE svg PUBLIC "-//W3C//DTD SVG 20010904//EN"
 "http://www.w3.org/TR/2001/REC-SVG-20010904/DTD/svg10.dtd">
<svg version="1.0" xmlns="http://www.w3.org/2000/svg"
 width="1080.000000pt" height="1080.000000pt" viewBox="0 0 1080.000000 1080.000000"
 preserveAspectRatio="xMidYMid meet">
<metadata>
Created by potrace 1.14, written by Peter Selinger 2001-2017
</metadata>
<g transform="translate(0.000000,1080.000000) scale(0.100000,-0.100000)"
fill="#000000" stroke="none">
<path d="M5135 10794 c-265 -20 -353 -28 -502 -50 -1011 -144 -1939 -563
-2733 -1232 -165 -140 -489 -465 -624 -627 -739 -887 -1144 -1863 -1258 -3030
-16 -172 -16 -730 0 -910 106 -1147 533 -2170 1270 -3045 140 -165 465 -489
627 -624 887 -739 1863 -1144 3030 -1258 172 -16 730 -16 910 0 1147 106 2171
533 3045 1270 165 140 489 465 624 627 739 887 1144 1863 1258 3030 16 172 16
730 0 910 -105 1137 -524 2149 -1252 3026 -132 158 -489 515 -645 645 -340
282 -673 503 -1040 689 -622 315 -1243 493 -1975 565 -107 11 -644 21 -735 14z
m1120 -2844 l850 -850 847 0 848 0 0 -850 0 -850 -1697 0 -1698 0 850 850 850
850 -2553 0 -2552 0 0 850 0 850 1703 0 1702 0 850 -850z m-1700 -3400 l-850
-850 2548 0 2547 0 0 -850 0 -850 -1698 0 -1697 0 -850 850 -850 850 -852 0
-853 0 0 850 0 850 1702 0 1703 0 -850 -850z"/>
</g>
</svg>
