<svg width="42" height="42" viewBox="0 0 42 42" fill="none" xmlns="http://www.w3.org/2000/svg">
<rect x="0.251465" y="1.4317" width="40" height="40" rx="20" transform="rotate(-2 0.251465 1.4317)" fill="#000"/>
<rect x="7.91284" y="8.57611" width="6.30417" height="6.2963" transform="rotate(-2 7.91284 8.57611)" fill="#FAC404"/>
<rect x="8.13257" y="14.8687" width="6.30417" height="6.2963" transform="rotate(-2 8.13257 14.8687)" fill="#000"/>
<rect x="8.35229" y="21.1611" width="6.30417" height="6.2963" transform="rotate(-2 8.35229 21.1611)" fill="#FAC404"/>
<rect x="8.57202" y="27.4536" width="6.30417" height="6.2963" transform="rotate(-2 8.57202 27.4536)" fill="#000"/>
<rect x="27.4414" y="26.7946" width="6.30417" height="6.2963" transform="rotate(-2 27.4414 26.7946)" fill="#FAC404"/>
<rect x="21.1726" y="27.0135" width="6.30417" height="6.2963" transform="rotate(-2 21.1726 27.0135)" fill="#FAC404"/>
<rect x="14.8723" y="27.2335" width="6.30417" height="6.2963" transform="rotate(-2 14.8723 27.2335)" fill="#000"/>
<rect x="27.2217" y="20.5021" width="6.30417" height="6.2963" transform="rotate(-2 27.2217 20.5021)" fill="#000"/>
<rect x="20.9529" y="20.7211" width="6.30417" height="6.2963" transform="rotate(-2 20.9529 20.7211)" fill="#000"/>
<rect x="14.6526" y="20.9411" width="6.30417" height="6.2963" transform="rotate(-2 14.6526 20.9411)" fill="#000"/>
<rect x="27.002" y="14.2097" width="6.30417" height="6.2963" transform="rotate(-2 27.002 14.2097)" fill="#FAC404"/>
<rect x="20.7332" y="14.4286" width="6.30417" height="6.2963" transform="rotate(-2 20.7332 14.4286)" fill="#000"/>
<rect x="14.4329" y="14.6486" width="6.30417" height="6.2963" transform="rotate(-2 14.4329 14.6486)" fill="#000"/>
<rect x="14.2131" y="8.35614" width="6.30417" height="6.2963" transform="rotate(-2 14.2131 8.35614)" fill="#FAC404"/>
<rect x="20.5134" y="8.13617" width="6.30417" height="6.2963" transform="rotate(-2 20.5134 8.13617)" fill="#000"/>
<rect x="26.7822" y="7.91724" width="6.30417" height="6.2963" transform="rotate(-2 26.7822 7.91724)" fill="#000"/>
<path d="M20.5134 8.13617L27.0335 14.2086L20.7332 14.4286L20.5134 8.13617Z" fill="#FAC404"/>
<path d="M20.9529 20.7211L27.0335 14.2086L27.2532 20.5011L20.9529 20.7211Z" fill="#FAC404"/>
<path d="M20.9529 20.7211L14.8723 27.2335L14.6525 20.9411L20.9529 20.7211Z" fill="#FAC404"/>
<path d="M21.3923 33.306L14.8723 27.2335L21.1726 27.0135L21.3923 33.306Z" fill="#FAC404"/>
</svg>
